<svg xmlns="http://www.w3.org/2000/svg" viewBox="0 0 335.89 375.3"><defs><style>.cls-1,.cls-10,.cls-100,.cls-101,.cls-102,.cls-103,.cls-104,.cls-105,.cls-106,.cls-107,.cls-108,.cls-109,.cls-11,.cls-110,.cls-111,.cls-112,.cls-113,.cls-114,.cls-115,.cls-116,.cls-117,.cls-118,.cls-119,.cls-12,.cls-120,.cls-121,.cls-122,.cls-123,.cls-124,.cls-125,.cls-126,.cls-127,.cls-128,.cls-129,.cls-13,.cls-130,.cls-131,.cls-132,.cls-133,.cls-134,.cls-135,.cls-136,.cls-137,.cls-138,.cls-139,.cls-14,.cls-140,.cls-141,.cls-142,.cls-143,.cls-144,.cls-145,.cls-146,.cls-147,.cls-148,.cls-149,.cls-15,.cls-150,.cls-151,.cls-152,.cls-153,.cls-154,.cls-155,.cls-156,.cls-157,.cls-158,.cls-159,.cls-16,.cls-160,.cls-161,.cls-162,.cls-163,.cls-164,.cls-165,.cls-166,.cls-167,.cls-168,.cls-169,.cls-17,.cls-170,.cls-171,.cls-172,.cls-173,.cls-174,.cls-175,.cls-176,.cls-177,.cls-178,.cls-179,.cls-18,.cls-180,.cls-181,.cls-182,.cls-183,.cls-184,.cls-185,.cls-186,.cls-187,.cls-188,.cls-189,.cls-19,.cls-190,.cls-191,.cls-192,.cls-193,.cls-194,.cls-195,.cls-196,.cls-197,.cls-198,.cls-199,.cls-2,.cls-20,.cls-200,.cls-201,.cls-202,.cls-203,.cls-204,.cls-205,.cls-206,.cls-207,.cls-208,.cls-209,.cls-21,.cls-210,.cls-211,.cls-212,.cls-213,.cls-214,.cls-215,.cls-216,.cls-217,.cls-218,.cls-219,.cls-22,.cls-220,.cls-221,.cls-222,.cls-223,.cls-224,.cls-225,.cls-226,.cls-227,.cls-228,.cls-229,.cls-23,.cls-230,.cls-231,.cls-232,.cls-233,.cls-234,.cls-235,.cls-236,.cls-237,.cls-238,.cls-239,.cls-24,.cls-240,.cls-241,.cls-242,.cls-243,.cls-244,.cls-245,.cls-246,.cls-247,.cls-248,.cls-249,.cls-25,.cls-250,.cls-251,.cls-252,.cls-253,.cls-254,.cls-255,.cls-256,.cls-257,.cls-258,.cls-259,.cls-26,.cls-260,.cls-261,.cls-262,.cls-263,.cls-264,.cls-265,.cls-266,.cls-267,.cls-268,.cls-269,.cls-27,.cls-270,.cls-271,.cls-272,.cls-273,.cls-274,.cls-275,.cls-276,.cls-277,.cls-278,.cls-279,.cls-28,.cls-280,.cls-281,.cls-282,.cls-283,.cls-284,.cls-285,.cls-286,.cls-287,.cls-288,.cls-289,.cls-29,.cls-290,.cls-291,.cls-292,.cls-293,.cls-294,.cls-295,.cls-296,.cls-297,.cls-298,.cls-299,.cls-3,.cls-30,.cls-300,.cls-301,.cls-302,.cls-303,.cls-304,.cls-305,.cls-306,.cls-307,.cls-308,.cls-309,.cls-31,.cls-310,.cls-311,.cls-312,.cls-313,.cls-314,.cls-315,.cls-316,.cls-317,.cls-318,.cls-319,.cls-32,.cls-320,.cls-321,.cls-322,.cls-323,.cls-324,.cls-325,.cls-326,.cls-327,.cls-328,.cls-329,.cls-33,.cls-330,.cls-331,.cls-332,.cls-333,.cls-334,.cls-335,.cls-336,.cls-337,.cls-338,.cls-339,.cls-34,.cls-340,.cls-341,.cls-342,.cls-343,.cls-344,.cls-345,.cls-346,.cls-347,.cls-348,.cls-349,.cls-35,.cls-350,.cls-351,.cls-352,.cls-353,.cls-354,.cls-355,.cls-356,.cls-357,.cls-358,.cls-359,.cls-36,.cls-360,.cls-37,.cls-38,.cls-39,.cls-4,.cls-40,.cls-41,.cls-42,.cls-43,.cls-44,.cls-45,.cls-46,.cls-47,.cls-48,.cls-49,.cls-5,.cls-50,.cls-51,.cls-52,.cls-53,.cls-54,.cls-55,.cls-56,.cls-57,.cls-58,.cls-59,.cls-6,.cls-60,.cls-61,.cls-62,.cls-63,.cls-64,.cls-65,.cls-66,.cls-67,.cls-68,.cls-69,.cls-7,.cls-70,.cls-71,.cls-72,.cls-73,.cls-74,.cls-75,.cls-76,.cls-77,.cls-78,.cls-79,.cls-8,.cls-80,.cls-81,.cls-82,.cls-83,.cls-84,.cls-85,.cls-86,.cls-87,.cls-88,.cls-89,.cls-9,.cls-90,.cls-91,.cls-92,.cls-93,.cls-94,.cls-95,.cls-96,.cls-97,.cls-98,.cls-99{fill:none;stroke-linecap:round;stroke-linejoin:round;stroke-width:3px;}.cls-1{stroke:#f6a871;}.cls-2{stroke:#f18c77;}.cls-3{stroke:#fcdc56;}.cls-4{stroke:#f9b13a;}.cls-5{stroke:#7e68ab;}.cls-6{stroke:#fff;}.cls-7{stroke:#1a381d;}.cls-8{stroke:#175327;}.cls-9{stroke:#172919;}.cls-10{stroke:#165427;}.cls-11{stroke:#165a2a;}.cls-12{stroke:#165b2a;}.cls-13{stroke:#154922;}.cls-14{stroke:#297031;}.cls-15{stroke:#18622d;}.cls-16{stroke:#236b2f;}.cls-17{stroke:#236c2f;}.cls-18{stroke:#2b7131;}.cls-19{stroke:#1d662e;}.cls-20{stroke:#1e662e;}.cls-21{stroke:#246c30;}.cls-22{stroke:#1b4721;}.cls-23{stroke:#19622d;}.cls-24{stroke:#58905b;}.cls-25{stroke:#2c7231;}.cls-26{stroke:#2d7331;}.cls-27{stroke:#246c2f;}.cls-28{stroke:#6db971;}.cls-29{stroke:#246931;}.cls-30{stroke:#77a983;}.cls-31{stroke:#1c4620;}.cls-32{stroke:#1f3c1d;}.cls-33{stroke:#1f3f1e;}.cls-34{stroke:#1b321b;}.cls-35{stroke:#095629;}.cls-36{stroke:#0b5c2b;}.cls-37{stroke:#13662e;}.cls-38{stroke:#0e5c2b;}.cls-39{stroke:#155c2b;}.cls-40{stroke:#166e31;}.cls-41{stroke:#214620;}.cls-42{stroke:#1c7733;}.cls-43{stroke:#1a662e;}.cls-44{stroke:#1f8937;}.cls-45{stroke:#259a39;}.cls-46{stroke:#2b7431;}.cls-47{stroke:#163e1e;}.cls-48{stroke:#347832;}.cls-49{stroke:#3b8935;}.cls-50{stroke:#316f2f;}.cls-51{stroke:#1d5628;}.cls-52{stroke:#175f2c;}.cls-53{stroke:#18612c;}.cls-54{stroke:#1c351c;}.cls-55{stroke:#1d401f;}.cls-56{stroke:#2d7c34;}.cls-57{stroke:#e5f1ea;}.cls-58{stroke:#307634;}.cls-59{stroke:#e7f3eb;}.cls-60{stroke:#387b3c;}.cls-61{stroke:#286f30;}.cls-62{stroke:#398935;}.cls-63{stroke:#397c3c;}.cls-64{stroke:#e6f2eb;}.cls-65{stroke:#469944;}.cls-66{stroke:#ecf5f0;}.cls-67{stroke:#4a884f;}.cls-68{stroke:#357939;}.cls-69{stroke:#43854b;}.cls-70{stroke:#669b6b;}.cls-71{stroke:#3b7e40;}.cls-72{stroke:#3c7e3f;}.cls-73{stroke:#2f7432;}.cls-74{stroke:#347838;}.cls-75{stroke:#53a759;}.cls-76{stroke:#87c37f;}.cls-77{stroke:#79bd71;}.cls-78{stroke:#72ba61;}.cls-79{stroke:#59b257;}.cls-80{stroke:#378635;}.cls-81{stroke:#448a3a;}.cls-82{stroke:#57884c;}.cls-83{stroke:#628f5c;}.cls-84{stroke:#578f58;}.cls-85{stroke:#44854c;}.cls-86{stroke:#508d56;}.cls-87{stroke:#5e9665;}.cls-88{stroke:#195327;}.cls-89{stroke:#20411f;}.cls-90{stroke:#182b19;}.cls-91{stroke:#157834;}.cls-92{stroke:#11662f;}.cls-93{stroke:#12662f;}.cls-94{stroke:#0e602d;}.cls-95{stroke:#137634;}.cls-96{stroke:#187a34;}.cls-97{stroke:#125327;}.cls-98{stroke:#1e5628;}.cls-99{stroke:#115628;}.cls-100{stroke:#204e24;}.cls-101{stroke:#185b2a;}.cls-102{stroke:#19632d;}.cls-103{stroke:#1f5628;}.cls-104{stroke:#1f5326;}.cls-105{stroke:#214c23;}.cls-106{stroke:#1b8a37;}.cls-107{stroke:#208737;}.cls-108{stroke:#166c30;}.cls-109{stroke:#1d9739;}.cls-110{stroke:#239a39;}.cls-111{stroke:#1e9739;}.cls-112{stroke:#219338;}.cls-113{stroke:#2aa738;}.cls-114{stroke:#32a937;}.cls-115{stroke:#48ac35;}.cls-116{stroke:#34a837;}.cls-117{stroke:#288a37;}.cls-118{stroke:#387d33;}.cls-119{stroke:#44993a;}.cls-120{stroke:#228937;}.cls-121{stroke:#3f9436;}.cls-122{stroke:#367a3a;}.cls-123{stroke:#3c7f40;}.cls-124{stroke:#3f9437;}.cls-125{stroke:#4ba945;}.cls-126{stroke:#f1f8f5;}.cls-127{stroke:#8ac483;}.cls-128{stroke:#eef7f2;}.cls-129{stroke:#99cb94;}.cls-130{stroke:#90c894;}.cls-131{stroke:#eef6f2;}.cls-132{stroke:#92c88d;}.cls-133{stroke:#528e57;}.cls-134{stroke:#83c175;}.cls-135{stroke:#a3d1aa;}.cls-136{stroke:#95ca9c;}.cls-137{stroke:#e6f3eb;}.cls-138{stroke:#8bc583;}.cls-139{stroke:#9bcda2;}.cls-140{stroke:#e5f2ea;}.cls-141{stroke:#8cc793;}.cls-142{stroke:#9fcfa6;}.cls-143{stroke:#a2d1aa;}.cls-144{stroke:#95ca94;}.cls-145{stroke:#9fce9d;}.cls-146{stroke:#8fc473;}.cls-147{stroke:#87c27a;}.cls-148{stroke:#95c77f;}.cls-149{stroke:#7bba7a;}.cls-150{stroke:#3b7f40;}.cls-151{stroke:#44854b;}.cls-152{stroke:#3c7f41;}.cls-153{stroke:#639a59;}.cls-154{stroke:#71aa6a;}.cls-155{stroke:#7fbe6d;}.cls-156{stroke:#96ca91;}.cls-157{stroke:#77bb5c;}.cls-158{stroke:#59b24b;}.cls-159{stroke:#439839;}.cls-160{stroke:#195a2a;}.cls-161{stroke:#16652e;}.cls-162{stroke:#085629;}.cls-163{stroke:#2d7e48;}.cls-164{stroke:#368549;}.cls-165{stroke:#11672f;}.cls-166{stroke:#0f662f;}.cls-167{stroke:#0f5c2b;}.cls-168{stroke:#1b8637;}.cls-169{stroke:#1c8938;}.cls-170{stroke:#177a35;}.cls-171{stroke:#347f4a;}.cls-172{stroke:#0c5c2c;}.cls-173{stroke:#0e622d;}.cls-174{stroke:#0c5d2c;}.cls-175{stroke:#0f7634;}.cls-176{stroke:#11622d;}.cls-177{stroke:#15602c;}.cls-178{stroke:#348249;}.cls-179{stroke:#105b2b;}.cls-180{stroke:#0f602d;}.cls-181{stroke:#11612d;}.cls-182{stroke:#19612c;}.cls-183{stroke:#127634;}.cls-184{stroke:#10973a;}.cls-185{stroke:#198136;}.cls-186{stroke:#1c9138;}.cls-187{stroke:#166d31;}.cls-188{stroke:#25a438;}.cls-189{stroke:#20a638;}.cls-190{stroke:#25a038;}.cls-191{stroke:#42ab35;}.cls-192{stroke:#41ab35;}.cls-193{stroke:#48ac34;}.cls-194{stroke:#3fab36;}.cls-195{stroke:#59b032;}.cls-196{stroke:#52af3b;}.cls-197{stroke:#48a639;}.cls-198{stroke:#49a945;}.cls-199{stroke:#229739;}.cls-200{stroke:#83c076;}.cls-201{stroke:#85c177;}.cls-202{stroke:#88c278;}.cls-203{stroke:#87c488;}.cls-204{stroke:#91c784;}.cls-205{stroke:#94c88c;}.cls-206{stroke:#87c37e;}.cls-207{stroke:#8ec686;}.cls-208{stroke:#7b6;}.cls-209{stroke:#73bc74;}.cls-210{stroke:#52b159;}.cls-211{stroke:#5fb568;}.cls-212{stroke:#68b86d;}.cls-213{stroke:#97ca92;}.cls-214{stroke:#6db756;}.cls-215{stroke:#99cb93;}.cls-216{stroke:#78bc65;}.cls-217{stroke:#8bc166;}.cls-218{stroke:#89c060;}.cls-219{stroke:#7dbe72;}.cls-220{stroke:#69a85a;}.cls-221{stroke:#74b966;}.cls-222{stroke:#6cb754;}.cls-223{stroke:#72b960;}.cls-224{stroke:#66b445;}.cls-225{stroke:#54ad46;}.cls-226{stroke:#155f2c;}.cls-227{stroke:#156e31;}.cls-228{stroke:#2a8748;}.cls-229{stroke:#337f4a;}.cls-230{stroke:#32874a;}.cls-231{stroke:#379448;}.cls-232{stroke:#319348;}.cls-233{stroke:#328648;}.cls-234{stroke:#369248;}.cls-235{stroke:#2a9844;}.cls-236{stroke:#1b8938;}.cls-237{stroke:#1e9539;}.cls-238{stroke:#2c8148;}.cls-239{stroke:#10682f;}.cls-240{stroke:#0d6d31;}.cls-241{stroke:#107834;}.cls-242{stroke:#0f6c31;}.cls-243{stroke:#126c31;}.cls-244{stroke:#147333;}.cls-245{stroke:#177a34;}.cls-246{stroke:#148337;}.cls-247{stroke:#108838;}.cls-248{stroke:#25a23e;}.cls-249{stroke:#289644;}.cls-250{stroke:#3baa36;}.cls-251{stroke:#52ae33;}.cls-252{stroke:#5cb134;}.cls-253{stroke:#60b235;}.cls-254{stroke:#5db131;}.cls-255{stroke:#52af33;}.cls-256{stroke:#57b14b;}.cls-257{stroke:#5ab142;}.cls-258{stroke:#52ae3f;}.cls-259{stroke:#57b147;}.cls-260{stroke:#2da737;}.cls-261{stroke:#42ab39;}.cls-262{stroke:#219a39;}.cls-263{stroke:#86c171;}.cls-264{stroke:#6cb96b;}.cls-265{stroke:#87c068;}.cls-266{stroke:#8ec473;}.cls-267{stroke:#86bf61;}.cls-268{stroke:#84c177;}.cls-269{stroke:#68b65a;}.cls-270{stroke:#8fc684;}.cls-271{stroke:#9acb95;}.cls-272{stroke:#5bab64;}.cls-273{stroke:#69b973;}.cls-274{stroke:#5cb567;}.cls-275{stroke:#74ba63;}.cls-276{stroke:#6eb96a;}.cls-277{stroke:#68b766;}.cls-278{stroke:#5fb45c;}.cls-279{stroke:#54b150;}.cls-280{stroke:#40ab50;}.cls-281{stroke:#47a857;}.cls-282{stroke:#74b84d;}.cls-283{stroke:#6fb745;}.cls-284{stroke:#5ab24f;}.cls-285{stroke:#73b84d;}.cls-286{stroke:#7ebe69;}.cls-287{stroke:#7abc61;}.cls-288{stroke:#74b94d;}.cls-289{stroke:#6eb75c;}.cls-290{stroke:#78bb5c;}.cls-291{stroke:#84c172;}.cls-292{stroke:#77bb64;}.cls-293{stroke:#7dbd64;}.cls-294{stroke:#63b33c;}.cls-295{stroke:#6cb64b;}.cls-296{stroke:#87bf5d;}.cls-297{stroke:#77b949;}.cls-298{stroke:#67b54c;}.cls-299{stroke:#77bd7c;}.cls-300{stroke:#289844;}.cls-301{stroke:#279844;}.cls-302{stroke:#338f4d;}.cls-303{stroke:#2f9745;}.cls-304{stroke:#469856;}.cls-305{stroke:#2d9f42;}.cls-306{stroke:#30a441;}.cls-307{stroke:#3e994b;}.cls-308{stroke:#3b9654;}.cls-309{stroke:#2e9e42;}.cls-310{stroke:#77be83;}.cls-311{stroke:#75bd7c;}.cls-312{stroke:#72b845;}.cls-313{stroke:#7cba3d;}.cls-314{stroke:#77be7c;}.cls-315{stroke:#80bc44;}.cls-316{stroke:#4bae45;}.cls-317{stroke:#6db74b;}.cls-318{stroke:#5eb248;}.cls-319{stroke:#5fb347;}.cls-320{stroke:#64b444;}.cls-321{stroke:#32a642;}.cls-322{stroke:#84c173;}.cls-323{stroke:#79be78;}.cls-324{stroke:#7dbf81;}.cls-325{stroke:#80c181;}.cls-326{stroke:#93c887;}.cls-327{stroke:#6bb974;}.cls-328{stroke:#51a35a;}.cls-329{stroke:#63b76d;}.cls-330{stroke:#66ac68;}.cls-331{stroke:#65b26c;}.cls-332{stroke:#4eb063;}.cls-333{stroke:#40aa44;}.cls-334{stroke:#6fb744;}.cls-335{stroke:#64b33c;}.cls-336{stroke:#91c573;}.cls-337{stroke:#8dc26a;}.cls-338{stroke:#7cbc61;}.cls-339{stroke:#75b94d;}.cls-340{stroke:#20a347;}.cls-341{stroke:#49af55;}.cls-342{stroke:#69b655;}.cls-343{stroke:#3bac50;}.cls-344{stroke:#53b154;}.cls-345{stroke:#6fb85b;}.cls-346{stroke:#488d54;}.cls-347{stroke:#319c44;}.cls-348{stroke:#3c8e52;}.cls-349{stroke:#6ab652;}.cls-350{stroke:#55b047;}.cls-351{stroke:#6db96b;}.cls-352{stroke:#65b76e;}.cls-353{stroke:#87c173;}.cls-354{stroke:#51b159;}.cls-355{stroke:#5fb567;}.cls-356{stroke:#3dad55;}.cls-357{stroke:#55b363;}.cls-358{stroke:#878787;opacity:0.2;}.cls-359{stroke:#c3bfe1;}.cls-360{stroke:#ffdc57;}</style></defs><g id="Слой_2" data-name="Слой 2"><g id="Слой_1-2" data-name="Слой 1"><path class="cls-1" d="M217.7,55.22s1.7-1,1.73-1c.16.27-5.69,9-5.57,9.16.21.36,16.79-10.26,17-9.83s-10,10.78-9.79,11.14c.51.88,23.1-14.41,23.57-13.6S217.09,71.26,217.52,72c.67,1.17,50.72-30.81,51.38-29.66.81,1.4-48.34,31.45-47.56,32.8,1.75,3,103.93-64.51,105.88-61.13,1.38,2.37-112.68,66-110.72,69.37,1.34,2.32,115-69.66,116.39-67.2S222.14,82.26,223.58,84.76c1.54,2.67,109.38-66.42,110.79-64S229.39,84,230.84,86.5c1.16,2,94.55-58.13,96.08-55.48,1.28,2.22-83.28,51.61-82.09,53.66,1.34,2.33,82.53-50.12,83.6-48.27.45.77-35.1,24.88-34.48,26,.43.74,28.66-17.91,29.25-16.89"/><path class="cls-2" d="M241.35,66.36c.16.26,9.79-6.12,10-5.77.37.64-19.16,16.37-18.89,16.85.45.78,33.93-20.84,34.47-19.9S236.67,79.28,237.2,80.2c.75,1.3,37.41-23.2,38.1-22s-39.44,26.62-38.84,27.66,49.25-29.92,49.89-28.81S246.59,83.85,247.24,85c.78,1.36,42.72-26.69,43.6-25.17.55.95-43.82,28.92-43,30.29.61,1.06,55.71-33.68,56.36-32.55s-48.4,31.92-47.75,33c.74,1.28,55.82-33.8,56.5-32.62s-47.48,31.78-46.8,33c.57,1,46.05-28.33,46.8-27,.48.84-29.48,22.25-29,23,.66,1.15,38-23.16,38.54-22.25.35.6-26.73,20.36-26.25,21.19s26.36-16.48,26.91-15.53"/><path class="cls-1" d="M5.34,12.91s.73-.45.74-.43c.15.24-4.69,8.4-4.58,8.59s8.09-4.9,8.19-4.73-1,5.89-.94,6c.18.31,4.33-2.88,4.49-2.59S5,29.41,5.16,29.69s15.15-9.2,15.34-8.86S9.14,32.22,9.36,32.6s12.07-7.75,12.41-7.16c.26.43-18.4,15.24-18,15.86S32.11,24.22,32.41,24.74,5.89,44.67,6.26,45.31,38.6,25.81,39,26.43,8.8,48.74,9.25,49.51c.34.6,27.39-16.87,27.85-16.07.31.54-17.92,15.93-17.63,16.43.47.81,25.32-15.48,25.69-14.83S22.83,53,23.25,53.73,48.35,38,48.88,38.93c.37.63-22.65,17.7-22.36,18.2.54.95,34.85-21.15,35.3-20.38S28.54,60.28,29.07,61.19c.42.73,30.7-18.72,31.12-18S37.26,60.93,37.63,61.59s27.62-16.94,28.05-16.2S40.84,64.87,41.28,65.63,73.5,45.84,74,46.73,49.08,65.82,49.55,66.62,83.1,46.23,83.54,47,55.56,67.83,56,68.61s35.34-21.47,35.8-20.67S56.1,73,56.55,73.8c.55,1,39-23.72,39.52-22.82S62.16,75,62.68,75.88,99.07,53.79,99.54,54.6c.35.62-28.28,20.9-27.82,21.69.63,1.1,37.08-22.76,37.66-21.75S78.75,76.33,79.3,77.28s34.53-21.61,35.26-20.36c.44.76-32.1,23.67-31.6,24.54S117.9,60.27,118.34,61,82.79,85.73,83.42,86.82c.37.65,35.07-21.38,35.56-20.53S91,87.13,91.42,87.93c.33.58,25-15.25,25.39-14.66.23.39-10.65,11.51-10.42,11.91.12.2,13.72-8.24,13.86-8"/><path class="cls-2" d="M5.22,67.19c0,.07.86-.61.91-.52s.44,5.54.5,5.65c.25.43,19.62-12,19.92-11.5.18.31-9.73,10.64-9.52,11,.46.8,20.76-13,21.19-12.24s-21.7,17-21.36,17.57c.46.78,34.18-20.77,34.63-20S24.19,77.2,24.65,78C25.27,79.07,57,57.71,57.7,58.91c.46.8-35.85,24.64-35.2,25.77.54.93,49.37-29.82,49.94-28.83S28.13,85.52,28.73,86.55C29.42,87.75,81.34,54.7,82,55.81S35.18,87.22,35.85,88.37c.55.95,44.37-27.3,45.1-26,.5.87-31,23.06-30.52,23.87.65,1.13,37.31-22.74,37.83-21.84.4.68-30.57,22.43-30,23.37S89.56,68.2,90.19,69.29C90.6,70,64.58,88.62,64.9,89.18c.56,1,35.41-21.48,35.86-20.7S71,90.11,71.45,90.94c.33.58,24.16-14.74,24.5-14.15.22.37-11.6,11.55-11.39,11.92s12.94-8,13.17-7.6c.07.13-.82,6.41-.73,6.56s4-2.39,4-2.31"/><path class="cls-3" d="M167.06,2.36s1.47-.9,1.5-.86c.16.29-7.46,10.2-7.33,10.42s7.85-4.94,8-4.63c.32.55-18.89,15.74-18.57,16.3S174,9.54,174.25,10"/><path class="cls-3" d="M112.15,11.82s.71-.44.73-.42c.14.24-4.68,8.39-4.57,8.58s7.94-4.81,8-4.64-.86,5.8-.78,5.95c.18.3,4-2.66,4.13-2.38s-7.88,9.42-7.72,9.69,14.53-8.83,14.72-8.5-11.11,11.26-10.9,11.63,11.51-7.4,11.84-6.83S108.42,40.57,108.8,41.22c.28.49,28.74-17.3,29.05-16.78s-29,21.28-28.6,22,34.28-20.67,34.66-20c.52.89-35.14,25-34.63,25.93.4.68,31.62-19.47,32.14-18.56.44.75-26.27,20.5-25.87,21.2,1,1.79,62.42-37.95,63.25-36.52s-65.4,41.23-64.29,43.15c.86,1.5,64.14-39.76,65.33-37.71,1,1.76-68,42.68-67.19,44.08,1.27,2.2,76.65-46.64,77.68-44.85,1.22,2.11-82.28,50.17-81,52.32,1,1.78,75.71-46.12,76.75-44.31,1.14,2-73.6,45.25-72.48,47.19C115,80.87,218.89,14,220.41,16.64,221.76,19,120,77,121.64,79.81c1.19,2.06,99-60.88,100.57-58.07,1.53,2.65-89.27,53.77-87.74,56.43,1.05,1.82,89.73-54.6,90.94-52.51s-81.18,49.75-79.95,51.88c1,1.68,80.57-49,81.66-47.14S149.4,78.57,150.35,80.22c1.1,1.9,73.3-44.73,74.35-42.92,1,1.64-64.73,40.78-63.77,42.44.84,1.46,59.12-35.9,59.89-34.58.57,1-47.14,31.15-46.41,32.42s47.67-29.25,48.42-28c.64,1.11-37.25,25.37-36.6,26.5s33.19-20.79,33.9-19.57c.36.62-25.67,20.17-25.26,20.87s28.68-17.39,29-16.77-24.58,18.79-24.13,19.57c.24.42,24.46-14.86,24.78-14.31.21.37-12.49,12.4-12.26,12.8.14.24,9.94-6.06,10.08-5.82s-3.09,6.74-3,6.93c0,0,6.4-3.74,6.42-3.7"/><path class="cls-4" d="M166.8,35.57c0,.08,1.77-1.17,1.83-1.06"/><path class="cls-4" d="M109.82,65.2c0,.07.89-.62.94-.54s-2.53,7.21-2.45,7.36C109.13,73.44,168.05,35.25,169,37c.8,1.39-54.39,34.79-53.48,36.37,1.06,1.83,55.18-34.11,56.16-32.42S112,78.56,112.91,80.09s64.51-39.19,65.36-37.73S125.14,76.41,126,77.89s51.9-32.37,52.94-30.57c.64,1.11-51.42,33-50.5,34.6.67,1.16,59.95-36.25,60.66-35s-51.41,33.57-50.73,34.76,56.27-34.08,56.95-32.89S148,80.47,148.67,81.64c.54.94,43.9-27,44.63-25.77.46.8-28,21.41-27.52,22.14.62,1.08,35.16-21.43,35.66-20.58.34.6-26.72,20.34-26.23,21.18s29.69-18.55,30.3-17.5c.38.65-23.3,18.06-23,18.57.57,1,36-21.87,36.5-21.07s-30.76,22.16-30.27,23c.41.7,29.13-17.76,29.53-17.05.32.54-18.31,15.2-18,15.74s19.83-12.19,20.15-11.64c.2.36-12.32,12.69-12.07,13.12.15.26,13.67-8.37,13.87-8,.1.16-1.14,6.2-1,6.37s4.21-2.52,4.25-2.46"/><path class="cls-5" d="M31.15,89.11s1.39-.86,1.42-.82c.15.27-5.37,8.79-5.26,9S41,89,41.15,89.29s-6.75,9-6.59,9.3c.37.63,15.1-9.51,15.44-8.92s-19.34,15.68-19,16.22c.42.74,31.78-19.31,32.2-18.59.5.87-28.86,20.89-28.38,21.73.68,1.18,36.13-22.62,36.89-21.3.56,1-44.68,29.39-43.88,30.78.7,1.22,63.06-38.14,63.81-36.84S27.4,122.25,28.25,123.72c1.13,2,81.9-49.68,82.94-47.88,1.17,2-84.08,51.77-82.91,53.79,1.62,2.81,132.94-81.71,135.09-78,2,3.43-130.65,77.46-128.82,80.63,2.13,3.7,134.32-81.48,136-78.53S31.2,134.9,33.51,138.91c1.76,3.05,137.57-85,140-80.82C175.61,61.75,30,142.38,31.65,145.27c2.58,4.46,152-92.58,154.09-89,2.34,4-159.82,92.31-157.45,96.43,2.08,3.59,153-93.19,155.12-89.55,2.36,4.08-155.17,89.57-152.85,93.59,2.15,3.71,155.43-94.87,157.65-91S25.38,159.89,28,164.41c2,3.46,165-101.57,167.75-96.85,2.84,4.91-167.75,96.05-164.91,101,2,3.52,171.31-104.28,173.64-100.25C207.18,73,29.3,169.12,31.91,173.63c2.16,3.76,177.51-108.09,179.94-103.89S25,177.92,27.26,181.82c2.88,5,185.05-113.17,187.79-108.42S25.36,182.22,28.09,187s186.59-113.29,189-109.11C219.27,81.62,29,185.58,31.83,190.43,35,195.85,222.33,73.76,225.22,78.77c3.16,5.47-194.09,110-190.86,115.56,3,5.14,190.77-118.08,194.21-112.13C231.1,86.58,29.22,197,32.09,201.93,34.71,206.47,237.23,77.7,239.74,82S23.8,204,27.39,210.28c2.57,4.45,216.52-132.83,219.9-127C250.34,88.59,27.68,208.19,31,213.93,33.89,219,249.54,81,252.46,86.06c3.69,6.39-226,127.72-222.25,134.21,3,5.28,230.16-140.86,233.61-134.88,2.88,5-233.3,134.14-230.6,138.82,3.65,6.33,234.17-142,237.13-136.9C273.18,92.23,35.65,221.09,39,226.8S275.28,82.67,278.6,88.43C282,94.35,30.5,231.14,33.39,236.15c4.18,7.23,255-155.35,258.55-149.28C296.06,94,39.07,229.13,43.27,236.4c4,6.88,253-154.84,256.8-148.26,3.57,6.19-267.52,150.15-263.19,157.65S299.32,84.38,303.6,91.8C307,97.63,35.75,243.11,39.83,250.19,42.87,255.44,297.73,92,301.75,99S39.56,248.07,43,254c4.37,7.57,257.86-158.5,262-151.28C308.79,109.27,39.53,254.28,42.85,260c4,7,259.88-157.23,263-151.84,3.89,6.74-263.53,147.08-259,154.89,4.05,7,252.11-153.84,255.7-147.63C306.34,122.05,47.27,259.2,51.18,266c3.54,6.13,253-153.26,256.08-147.85C310.83,124.31,48,265.8,51.55,271.94c3.06,5.3,244.08-149.93,248-143.17s-252,142.75-248.38,149c3.5,6.06,250.7-154.53,254.94-147.19S57.7,272.08,61.09,278C64.93,284.6,301.3,132,304.44,137.45c3.44,6-248.1,140.84-244.63,146.86,3.67,6.35,243.28-149.72,247.29-142.77S60.24,282.31,63.32,287.65c3.33,5.77,234.93-143.34,238.27-137.57,3.61,6.25-237.54,133.95-233.47,141,3.46,6,233.5-141.24,236.28-136.42,2.94,5.08-242.17,137.56-238.5,143.92C69.14,304.21,303.61,153,307.22,159.26c3.41,5.9-238,134.48-234.13,141.24,3,5.24,223.2-136.57,226.53-130.79,3.73,6.46-225.91,129.28-223,134.39,3.15,5.44,220.58-135.22,224-129.32,2.87,5-229.25,129.32-225.56,135.71,2.84,4.92,226.7-139.6,230.47-133.06S81.61,304.21,85.3,310.6c2.74,4.75,210.76-130,214.35-123.76,3,5.22-221.59,126-218.48,131.36,3.63,6.29,222.24-136.42,225.75-130.34C310.67,194.35,82,316,85.07,321.44,87.56,325.77,303,189,305.83,194S90.69,316.61,93.7,321.81c2.91,5,206.65-125.23,209.21-120.79S89.34,321.72,92.8,327.72,298.69,202.15,301.59,207.17c3.21,5.57-204.81,117.18-201.67,122.62,2.94,5.1,200.77-123.29,204-117.76,3,5.25-208.3,118.21-205.08,123.78,2.91,5,195.56-119.18,198.28-114.48,2.36,4.09-189.45,109.86-187.09,113.94,2.59,4.49,186.18-113.54,188.8-109,2.37,4.1-188.58,108.74-186,113.19S296.4,228,298.75,232.09c2.89,5-185.21,105.66-182.35,110.6S294.86,233.45,297.55,238.11c2.35,4.07-182.87,106.08-180.74,109.78,2.7,4.67,171.67-106,174.65-100.84,2.29,4-171.73,99.69-169.34,103.83,2.81,4.86,160.84-99,163.5-94.4,2.13,3.7-157.87,92-156,95.27,2.64,4.57,152.07-92,153.89-88.85,2.24,3.87-150.11,87.79-147.92,91.59S275.22,268,277.75,272.41c2.15,3.74-143.4,82.9-141.18,86.75s142.06-86,143.77-83-141.16,82.8-139,86.52c1.83,3.17,128.25-78.64,130.24-75.19,1.54,2.66-127,74.51-125.15,77.74C148,367.93,262.7,295,264,297.31c1.89,3.26-113.06,67.18-111.44,70,1.44,2.49,103.5-63.63,105.18-60.73,1.19,2.07-96,59-94.8,61.06,1.06,1.83,79.21-49,80.62-46.54s-82.66,50.76-81.55,52.68c.79,1.36,64.81-39.23,65.6-37.87"/><path class="cls-6" d="M52.15,104.87s1.4-.86,1.42-.82c.15.26-5.37,8.78-5.26,9s13.73-8.38,13.92-8-6.83,9.07-6.67,9.35c.37.65,15.47-9.73,15.82-9.13S51.65,121.1,52,121.65c.43.75,32.7-19.87,33.13-19.13.51.89-29.81,21.4-29.31,22.26.71,1.24,38.18-23.88,39-22.5.58,1-46.81,30.53-46,32s67.94-41.11,68.76-39.7-69.22,43.32-68.31,44.9c1.72,3,120.89-73.43,122.47-70.7,1.72,3-124.14,73.66-122.44,76.62,1.44,2.49,118-72.51,119.86-69.21,1.75,3-115.21,69-113.59,71.85,1.91,3.3,119.44-72.47,121-69.84s-124.06,72.9-122,76.47c1.58,2.74,122.94-76,125.11-72.23,1.9,3.28-128.46,76-127,78.6,2.33,4,137.54-83.76,139.42-80.5,2.12,3.67-144.94,84.23-142.78,88C51.17,171.75,188.08,84,190,87.27,192.13,91,49.46,168.89,51.56,172.53c2,3.39,141.48-86.36,143.5-82.85S46.6,176,49,180.16c1.83,3.18,151.47-93.22,154-88.89,2.61,4.5-153.73,88.5-151.13,93C53.71,187.53,210,88,212.1,91.75c2.51,4.34-161.6,93.47-159.19,97.64C54.92,192.87,217.7,89,220,92.94S46.16,194,48.26,197.58c2.68,4.65,172.87-105.72,175.43-101.29s-177.16,102-174.6,106.43,175-106.27,177.28-102.36c2,3.54-176,101.17-173.35,105.71C56,211.19,232.55,96.12,235.28,100.84c3,5.13-181.82,103.36-178.8,108.6,2.8,4.85,179.77-111.29,183-105.66,2.37,4.1-186.71,107.88-184,112.53,2.47,4.29,194-117.51,196.41-113.4S48.48,218.15,51.87,224C54.31,228.25,257.58,97.84,260.8,103.4c2.88,5-208.07,118.6-204.93,124,2.78,4.81,209-127.11,211.79-122.28,3.52,6.11-215.72,122.18-212.14,128.37,2.94,5.11,222.41-136.11,225.74-130.33C284,108,56.35,232.72,59,237.24c3.47,6,222.46-134.91,225.26-130.06,2.69,4.66-222.21,127-219.09,132.39,2.94,5.08,215.4-131.37,218.43-126.11S57.4,244.07,60,248.64c3.65,6.33,223.82-136.3,226.88-131,3.59,6.21-220.19,124.63-216.53,131,3.32,5.75,211-129.14,214.14-123.63,3,5.18-223.68,126.47-220,132.75s216.6-133.2,220.12-127.09c2.77,4.8-220,125.36-216.66,131.19,2.49,4.3,211.51-129.72,214.81-124s-214,122.69-211.2,127.51c3.57,6.18,211-129.7,214.43-123.8,3.12,5.39-216.7,124.85-214,129.56,3.29,5.69,212.32-128.43,214.85-124,3.17,5.49-214,120.45-210.37,126.81,3.28,5.67,204.16-124.57,207.06-119.55C286.6,159.62,78.2,271,81.35,276.44,84.2,281.37,285.74,152.62,288.26,157,291.14,162,79.48,277.09,82.34,282c2.45,4.25,195.06-119.83,198.18-114.42s-200.9,114.92-198,119.94c2.79,4.83,201.19-123.95,204.57-118.11S90.41,282.69,93.1,287.35c3,5.27,189.85-115.36,192.34-111,2.72,4.73-195.73,112.28-193,117,2.88,5,192.48-118.42,195.64-112.95S94.15,292.12,96.58,296.32c2.61,4.52,183.4-111.91,186-107.39,2.8,4.85-183.61,104.92-180.45,110.4,2.68,4.64,181.1-109.55,183.26-105.81,2.28,3.95-187.55,107.91-184.7,112.85,2.5,4.33,184.74-113.08,187.52-108.27,2.63,4.55-182.53,104.52-179.53,109.73,2.3,4,168.66-103.24,171.19-98.84,2.8,4.85-169.06,98.14-166.84,102,2.35,4.08,164-100.56,166.52-96.14,2.14,3.7-170.07,97.33-167.32,102.09,2.09,3.61,167.89-103.33,170.66-98.53s-162.23,93.47-159.55,98.12c2,3.41,149-92,151.59-87.52,2.14,3.71-157.12,90.82-154.91,94.66,2.54,4.4,157.62-96.69,160.08-92.43,2.63,4.56-157.48,91.34-155.29,95.14,1.7,2.94,149.7-90.9,151.64-87.54S132.34,322.7,134.37,326.21c1.91,3.3,134.57-81.58,136.26-78.67s-138.45,80.11-136.19,84c2.14,3.71,130.05-79.31,131.88-76.14,2,3.44-125.54,74.17-123.6,77.54,1.76,3.05,120.71-74.11,122.62-70.8S140.73,335,142.67,338.36c1.65,2.85,110.92-67.59,112.45-64.93,1.28,2.22-101.28,61.46-100,63.67s95.69-58.4,97-56c1.2,2.08-94.27,57.22-93,59.47,1.16,2,85.81-52.07,86.91-50.18,1.32,2.29-83.32,50.42-82,52.68,1.12,1.94,71.9-44,73-42.13,1,1.64-72,45-71.16,46.52.76,1.33,50.26-31,51.1-29.51"/><path class="cls-7" d="M210.14,179.17s0-.07,0,0-2.18,7-2.1,7.16,13.09-8,13.28-7.67-6.15,8.7-6,9,4.57-3,4.74-2.73-8.31,9.66-8.15,9.94,10.63-6.46,10.77-6.22-7.17,9.11-7,9.39,3.29-2.33,3.47-2-10.6,11-10.37,11.44c.13.22,15.9-9.5,16-9.26S209.32,212,209.55,212.44s16.63-9.92,16.77-9.68c.27.48-17.23,15.25-16.95,15.72.12.22,9.33-5.78,9.5-5.49s-3.33,7.94-3.23,8.12,5.17-3.27,5.3-3.05-6.27,9.28-6.11,9.56,3.77-2.57,3.94-2.27-5.93,8.47-5.82,8.65,13.36-8.05,13.5-7.8-11.38,11.62-11.16,12c.06.11,3.87-2.38,3.94-2.27"/><path class="cls-8" d="M111.06,179.22c0,.05,0-.1.08,0s-1.66,6.72-1.59,6.86,5-3,5-2.9-1.27,6-1.18,6.18,2.64-1.62,2.68-1.55-2.95,6.73-2.86,6.89,2.63-1.6,2.67-1.54-2.58,6.61-2.49,6.77,2.9-1.78,3-1.7-6.47,8.8-6.3,9.09c0,.06,8.56-5,8.6-5,.14.24-8.29,9.92-8.15,10.17s11-6.5,11.07-6.39c.2.34-11.23,12-11,12.31.1.18,7.39-4.58,7.52-4.34s-1.34,6.83-1.25,7,4.6-2.94,4.72-2.73-5.91,9.09-5.76,9.36,3.43-2.36,3.59-2.07-5.55,8.26-5.45,8.44,13-7.82,13.13-7.58-10.9,11.35-10.69,11.7c0,.1,3.4-2.09,3.46-2"/><path class="cls-9" d="M158.08,265.72c.07.12,3.51-2.24,3.6-2.08s6.51,2.27,6.58,2.39c.21.36,12.47-7.76,12.71-7.34s-10.92,11.41-10.71,11.77,12.67-7.62,12.8-7.39-11.69,11.8-11.51,12.11,11.9-7.27,12.07-7-1.21,6.64-1.12,6.79.2-.23.25-.14"/><path class="cls-9" d="M152.66,259.41s1.34-.83,1.36-.79c.15.26-5.32,8.76-5.21,8.95s6.74-4.06,6.82-3.93-2.64,6.78-2.53,7c0,0,.6-.37.61-.36"/><path class="cls-7" d="M151,269.06s.17-.18.2-.12-1.76,6.78-1.68,6.92c.17.3,14.45-8.83,14.66-8.47.09.17-2.85,6.9-2.74,7.09.25.44,8.57-5.5,8.8-5.09.12.2-3.41,7-3.31,7.15s5.89-3.58,6-3.44"/><path class="cls-10" d="M146.58,248.16c0,.06.47-.37.51-.29s1.59,5.14,1.65,5.24,2.92-1.79,3-1.71"/><path class="cls-10" d="M133.72,242.67s1.75-1.09,1.78-1c.17.28-6.15,9.21-6,9.42s9.05-5.49,9.17-5.29-2,6.43-1.9,6.6c.21.36,6-3.92,6.21-3.59s-4.53,7.59-4.42,7.79,4.63-2.81,4.69-2.71"/><path class="cls-7" d="M189.22,248.8c.09.17,5.42-3.42,5.54-3.2s-6,9.13-5.87,9.34,12.4-7.56,12.58-7.26c.09.15-2.44,6.66-2.34,6.84s1-.83,1.1-.63"/><path class="cls-7" d="M200.05,238.44s0-.09,0,0-1.32,6.53-1.24,6.66,12.34-7.52,12.51-7.22-2.16,6.51-2.06,6.69.69-.65.79-.47"/><path class="cls-8" d="M190.24,159.2s0-.07,0,0S189,165.7,189,165.83s12.22-7.44,12.39-7.15c.08.14-1.61,6.21-1.52,6.37s.14-.31.24-.13,2,3.91,2.11,4,1.12-.68,1.14-.66-.86,5.66-.79,5.8.93-.57.95-.55"/><path class="cls-7" d="M141,258.59c0,.05,0-.08,0,0s-1.63,6.7-1.55,6.84,13.48-8.23,13.67-7.89-6.11,8.67-6,8.93,5.76-3.53,5.85-3.37"/><path class="cls-8" d="M121,238.71s0-.06,0,0-1.6,6.69-1.52,6.82,12.3-7.5,12.47-7.2c.08.13-1.3,6-1.22,6.2s.25-.38.36-.2"/><path class="cls-7" d="M203.14,167.64s1.47-.9,1.5-.86c.15.26-5.43,8.81-5.32,9s11.89-7.24,12.06-7-4.81,8-4.67,8.2,6.07-3.73,6.16-3.56"/><path class="cls-7" d="M183.32,256.35s1.23-.76,1.25-.72c.15.26-5.31,8.75-5.2,8.94s11.95-7.28,12.12-7-2.55,6.73-2.44,6.91,1.09-.9,1.21-.7"/><path class="cls-8" d="M150.94,139.32s.07-.12.1-.06,5.68,2.51,5.75,2.63,7.16-4.33,7.25-4.18,6.14,1.73,6.23,1.89,4.73-2.9,4.8-2.77,3.85,2.87,3.91,3,3.81-2.31,3.86-2.23"/><path class="cls-11" d="M113.75,179.51c0,.05.5-.38.54-.31s-2,6.91-1.92,7.05,3.81-2.26,3.84-2.22-.78,5.76-.7,5.91,1.81-1.12,1.84-1.07-2,6.18-1.89,6.33,1.73-1,1.75-1-1.32,5.91-1.24,6.05,1.66-1,1.69-1-4.56,7.76-4.42,8c0,0,7.37-4.32,7.4-4.27s-5.06,8.13-5,8.32,8.65-5.07,8.68-5"/><path class="cls-12" d="M151,142.26c0,.08,1.27-.85,1.32-.76s7.49,1.43,7.57,1.58,5.54-3.32,5.59-3.23,7.67.81,7.78,1,3.18-2,3.23-1.87,3.52,3.07,3.58,3.17,2.74-1.67,2.78-1.6"/><path class="cls-9" d="M183.14,254c.08.13,3.91-2.49,4-2.32s-2.83,7.38-2.74,7.53,7.05-4.26,7.13-4.12,1.4,4.54,1.47,4.66l.08-.05c.08.13-.33,5.27-.27,5.39l.12-.07"/><path class="cls-13" d="M146.56,251.85c0,.06.82-.58.87-.5s1.85,5,1.91,5.09,2.46-1.51,2.5-1.44"/><path class="cls-13" d="M143.14,248.9s.89-.55.9-.52c.15.25-4.87,8.5-4.76,8.69,0,0,2.93-1.71,2.94-1.69"/><path class="cls-8" d="M189.37,147.71s1.49-.92,1.52-.87c.15.26-5.32,8.75-5.21,8.95s5.71-3.44,5.77-3.33"/><path class="cls-14" d="M151,147.46c.06.11,2.75-1.78,2.83-1.64s9.45.25,9.55.44,4.57-2.73,4.61-2.66,8,.59,8.15.79,1.77-1.09,1.79-1,3.22,3.24,3.28,3.34,1.62-1,1.64-.94"/><path class="cls-15" d="M151,144.64c0,.07,1.15-.79,1.21-.7.14.25,9.61.15,9.72.34,0,0,4.26-2.54,4.3-2.48s8.93,0,9.06.26c0,0,1.4-.86,1.42-.82s4.9,2.25,5,2.37,1.16-.71,1.17-.68"/><path class="cls-15" d="M118.44,178s1.8-1.12,1.84-1.06c.17.3-6.8,9.57-6.67,9.79,0,0,3.65-2.16,3.68-2.12s0,5.3.11,5.43,1.18-.72,1.2-.69-1.46,5.9-1.38,6,1.3-.79,1.32-.76-1,5.72-.9,5.86,1-.61,1-.58-3.47,7.17-3.35,7.38c0,0,6.41-3.73,6.42-3.71"/><path class="cls-16" d="M151,146.54c.06.1,2.56-1.66,2.64-1.53s10-.06,10.08.13c0,0,3.68-2.18,3.7-2.14.11.2,8.87.09,9,.31,0,0,1.37-.84,1.39-.8"/><path class="cls-9" d="M196.48,244.56c.06.09,2.25-1.46,2.32-1.34s.12,5.73.19,5.84,2.56-1.49,2.57-1.48,1.35,4.56,1.41,4.68l.09,0"/><path class="cls-17" d="M117.76,179.72c0,.05.23-.21.27-.15.12.21-3.27,7.62-3.18,7.78s3.46-2,3.48-2,.3,5.16.37,5.28,1.12-.68,1.14-.65-1.4,5.86-1.32,6,1.16-.7,1.17-.67-1,5.73-.92,5.87,1.63-1,1.65-.95-3.54,7.2-3.42,7.42c0,0,6.79-4,6.81-3.94"/><path class="cls-11" d="M187.19,147.82s1.68-1,1.71-1c.15.26-5.18,8.68-5.07,8.87s4.8-2.87,4.84-2.79"/><path class="cls-18" d="M138.32,159.76c0,.06.64-.46.68-.39"/><path class="cls-18" d="M128.35,169.74s.63-.46.67-.39"/><path class="cls-18" d="M148.29,149.79c0,.05.63-.46.67-.39"/><path class="cls-19" d="M151,146c0,.09,2-1.33,2.1-1.22.16.27,10.53-.4,10.64-.2,0,0,3.22-1.89,3.24-1.86"/><path class="cls-20" d="M119.94,177.79s1.12-.69,1.14-.66c.17.29-6.62,9.47-6.5,9.7,0,0,2.8-1.64,2.81-1.63s.94,4.8,1,4.92.54-.33.55-.32-.81,5.54-.73,5.66.58-.35.59-.34"/><path class="cls-11" d="M121.63,170.4c.05.08,2-1.29,2-1.18"/><path class="cls-11" d="M141.57,150.44c.05.09,2-1.28,2-1.17"/><path class="cls-11" d="M131.6,160.42c.05.09,2-1.29,2-1.17"/><path class="cls-21" d="M183.85,147.68s1.26-.78,1.28-.74c.14.24-4.42,8.25-4.31,8.43s4.27-2.54,4.31-2.49"/><path class="cls-19" d="M185.45,147.47s.84-.52.86-.5c.13.23-4,8-3.86,8.17s3.77-2.23,3.79-2.18"/><path class="cls-22" d="M133.26,243.87s1.19-.74,1.21-.7"/><path class="cls-23" d="M186.45,147.57s.94-.58,1-.55c.14.23-4.16,8.12-4.06,8.29,0,0,3.24-1.9,3.25-1.88"/><path class="cls-24" d="M122.77,177.83s.93-.58,1-.55c.14.25-4.9,8.52-4.79,8.71,0,0,3.34-2,3.36-2s.2,5.21.27,5.35,1.22-.75,1.24-.72-1.49,5.92-1.41,6.05,1.25-.76,1.26-.73-.8,5.63-.73,5.76.86-.53.88-.5-4.41,7.68-4.28,7.91c0,0,6.21-3.61,6.22-3.59"/><path class="cls-15" d="M135.58,159.63s.33-.28.36-.22"/><path class="cls-15" d="M125.61,169.6c0,.05.33-.28.36-.21"/><path class="cls-15" d="M145.55,149.65s.33-.28.37-.21"/><path class="cls-25" d="M121.87,177.71s1.2-.74,1.22-.71"/><path class="cls-26" d="M183,147.87s1-.6,1-.57c.13.24-4.07,8.06-4,8.24s3.43-2,3.45-2"/><path class="cls-27" d="M127.34,169.63c0,.05.19-.19.23-.13"/><path class="cls-27" d="M147.28,149.68s.19-.19.23-.13"/><path class="cls-27" d="M137.31,159.66s.19-.19.23-.13"/><path class="cls-28" d="M182.55,147.91s.62-.38.63-.36c.14.24-4.58,8.34-4.47,8.52,0,0,3.23-1.9,3.25-1.87s-.27,5.46-.19,5.6,1.62-1,1.64-1"/><path class="cls-8" d="M131,159.25s0-.06,0,0"/><path class="cls-8" d="M141,149.27s0-.06,0,0"/><path class="cls-8" d="M121,169.22s0-.06,0,0"/><path class="cls-29" d="M122.84,210.14s.75-.47.77-.44c.13.23-4.38,8.23-4.28,8.41,0,0,2.78-1.62,2.79-1.61s1,4.76,1.06,4.89.45-.28.45-.27-.7,5.48-.63,5.6.56-.34.57-.32-.45,5.42-.38,5.55.58-.35.59-.34"/><path class="cls-19" d="M177.2,142.48s.74-.45.75-.43"/><path class="cls-20" d="M129.33,168.14s1.36-.84,1.38-.8"/><path class="cls-20" d="M139.3,158.16s1.36-.84,1.38-.8"/><path class="cls-20" d="M149.27,148.19s1.36-.84,1.38-.8"/><path class="cls-30" d="M133.13,167.64s.55-.34.55-.32c.15.25-4.88,8.51-4.77,8.7,0,0,3.34-2,3.36-1.94"/><path class="cls-30" d="M143.1,157.66s.55-.33.56-.32c.14.25-4.89,8.52-4.78,8.71,0,0,3.34-2,3.36-1.94"/><path class="cls-30" d="M153.08,147.69s.52-.33.52-.31c.15.25-4.86,8.5-4.75,8.69,0,0,3.34-2,3.36-1.94"/><path class="cls-31" d="M209.39,177.57s1.42-.88,1.45-.84c.14.25-4.46,8.28-4.36,8.46s4.53-2.7,4.56-2.63-.89,5.82-.8,6,2.23-1.38,2.26-1.31-2.63,6.54-2.54,6.7,2.59-1.58,2.63-1.52-2.47,6.54-2.37,6.71,2.48-1.54,2.53-1.46-6,8.55-5.86,8.83c0,.05,7.68-4.51,7.71-4.46.12.22-6.95,9.19-6.82,9.41,0,.06,8.49-5,8.51-4.91.17.28-8.71,10.58-8.54,10.86,0,0,.89-.59.92-.53"/><path class="cls-32" d="M208.42,229.34s.1-.14.13-.08c.17.29-6.31,9.3-6.19,9.52s8.62-5.23,8.73-5"/><path class="cls-33" d="M212,217.85s.58-.36.59-.34c.15.27-5.4,8.8-5.28,9,0,0,3.88-2.31,3.91-2.26"/><path class="cls-32" d="M199.36,243.15s.51-.31.52-.29"/><path class="cls-32" d="M195.61,239.62c.09.16,11.5-6.83,11.58-6.69"/><path class="cls-32" d="M186.73,243.61s1.12-.69,1.14-.66c.17.29-7.84,10.4-7.71,10.64s13.14-8.17,13.4-7.73"/><path class="cls-32" d="M154,257.73s1.5-.93,1.53-.88-2.82,7.37-2.73,7.52,5.77-3.47,5.83-3.37,7.16,1.12,7.27,1.31,1.45-1.12,1.57-.91,6.47,1.3,6.55,1.45,5.65-3.43,5.72-3.3"/><path class="cls-34" d="M155.64,261.47s1.35-.84,1.38-.8-1.43,6.48-1.36,6.61,2.86-1.67,2.87-1.66"/><path class="cls-34" d="M166.75,263.76s1.5-.93,1.53-.88"/><path class="cls-35" d="M162.61,252.72s1-.64,1.06-.61"/><path class="cls-35" d="M155.08,251.57c.07.13,3.91-2.5,4-2.32s-5.94,9.09-5.82,9.3,5.72-3.44,5.78-3.33"/><path class="cls-36" d="M147.42,249.51c.05.08,1.38-.92,1.43-.82s-.86,6.28-.79,6.4,12.08-7.36,12.25-7.07"/><path class="cls-37" d="M133.17,237.5s.43-.27.44-.26c.1.18-1.56,6.67-1.48,6.8s6.23-3.75,6.3-3.63,2,4.19,2.06,4.3,2.85-1.75,2.9-1.67"/><path class="cls-38" d="M144.37,247s1.3-.79,1.32-.76-.67,6.18-.6,6.3,5.79-3.48,5.84-3.38"/><path class="cls-39" d="M133.58,240.77s.66-.41.67-.39.31,5.62.38,5.73,3.49-2.06,3.51-2"/><path class="cls-40" d="M143.33,246.15s1.79-1.1,1.82-1.05"/><path class="cls-41" d="M190.86,228.6s6.83-4,6.85-4c.12.21-4.69,8.18-4.56,8.4s9.21-5.52,9.3-5.36"/><path class="cls-41" d="M157.61,257.82c0,.06,2.34-1.43,2.37-1.38s4.39,2.82,4.47,2.95,9.1-5.57,9.23-5.33"/><path class="cls-41" d="M170.72,248.7c0,.06,8.39-4.92,8.42-4.87s-5.9,8.34-5.75,8.61S184,246,184.12,246.25"/><path class="cls-41" d="M184.72,236.36c0,.06,1-.69,1-.6s-1.69,7-1.62,7.13c.36.62,24.53-15.14,25-14.41s-20.12,16.41-19.78,17c.09.15,7-4.21,7.11-4.1"/><path class="cls-41" d="M205.47,219.91c0,.07,1.35-.91,1.4-.81s-2.5,7.19-2.41,7.34,6-3.63,6.09-3.52"/><path class="cls-42" d="M195.75,167.54s1.31-.81,1.33-.77-1.65,6.72-1.57,6.85S200,171,200,171s.13,5.25.21,5.38,2.6-1.6,2.64-1.53-.57,5.4-.5,5.52,2.48-1.5,2.51-1.44-.85,5.64-.77,5.78S207,183,207,183.06s-6.51,8.82-6.34,9.11c0,.06,8.31-4.89,8.35-4.82"/><path class="cls-43" d="M203.38,177.36s1.06-.66,1.08-.63c.11.19-1.88,6.85-1.8,7s4.42-2.64,4.45-2.57-.45,5.57-.37,5.71,2.24-1.37,2.28-1.31-1.51,5.92-1.43,6,1.67-1,1.69-1"/><path class="cls-44" d="M194.32,167.68s1.21-.74,1.23-.7-1.81,6.8-1.73,6.94,4-2.37,4-2.32.54,5,.61,5.15,2.46-1.51,2.5-1.44-.3,5.25-.23,5.36,2-1.19,2-1.14"/><path class="cls-45" d="M189.73,162.61s1.53-.94,1.56-.89c.14.25-4.87,8.5-4.76,8.69s4.95-3,5-2.89"/><path class="cls-43" d="M198.43,167.36s1-.63,1-.6c.11.18-1.74,6.77-1.66,6.91s3.55-2.1,3.57-2.07"/><path class="cls-46" d="M190.51,157.71s1.56-1,1.59-.92"/><path class="cls-46" d="M192.55,160.29s.56-.35.57-.33c.14.23-4.08,8.07-4,8.24,0,0,2.47-1.43,2.47-1.42"/><path class="cls-47" d="M143.33,252.7s.86-.52.87-.5"/><path class="cls-48" d="M123.4,228.66s.84-.52.85-.49c.14.25-4.8,8.47-4.69,8.65s4.85-2.9,4.89-2.82"/><path class="cls-49" d="M122.25,233.65s0-.11.08-.05,3,4.07,3.08,4.17,4.45-2.65,4.48-2.59"/><path class="cls-50" d="M123.39,235.66s.68-.42.7-.4"/><path class="cls-51" d="M206.13,177.28s.92-.56.94-.54c.11.19-2.28,7.07-2.2,7.22s4.22-2.52,4.25-2.46.39,5.1.47,5.23,1-.62,1-.59"/><path class="cls-52" d="M117.66,180.92s.46-.28.47-.27c.15.26-5.06,8.61-4.95,8.8,0,0,3-1.78,3.06-1.76s.66,4.94.74,5.07.75-.46.76-.44-1,5.62-.89,5.75.74-.45.75-.44"/><path class="cls-53" d="M119.32,206.76s1.1-.68,1.12-.65-1.91,6.46-1.83,6.59,3-1.74,3-1.72"/><path class="cls-52" d="M162.2,141.2s1-.6,1-.57,5.45,2.64,5.52,2.76,3.25-1.92,3.27-1.89"/><path class="cls-54" d="M186.8,252s.73-.45.74-.43"/><path class="cls-55" d="M153.12,259.36c0,.06.62-.45.66-.38"/><path class="cls-56" d="M188.89,157.61s1.41-.87,1.44-.83c.11.19-2.46,6.82-2.38,7s3.44-2,3.46-2"/><path class="cls-57" d="M178.7,147.56s1.82-1.13,1.85-1.07c.13.23-4,8-3.85,8.17s4.73-2.83,4.77-2.76"/><path class="cls-58" d="M155.59,146.62s.16-.17.2-.11c.14.24,9.55.18,9.66.36s3.72-2.2,3.75-2.16,8.42.36,8.54.57c0,0,1.1-.68,1.12-.65"/><path class="cls-59" d="M151,149.06c0,.05.33-.28.36-.21"/><path class="cls-60" d="M176.94,145.81s1.3-.81,1.32-.77"/><path class="cls-19" d="M118.41,201s.69-.43.7-.41c.12.2-3.49,7-3.4,7.16s2.91-1.7,2.92-1.68"/><path class="cls-61" d="M119.6,184s.53-.33.54-.31c.14.24-4.49,8.29-4.38,8.47,0,0,3.15-1.85,3.17-1.83s.6,5,.67,5.11.82-.5.83-.48"/><path class="cls-25" d="M120.18,199.93s.83-.51.85-.49c.12.22-3.39,7.69-3.3,7.85s3.36-2,3.38-1.95"/><path class="cls-19" d="M120.2,206.15s.65-.41.66-.39"/><path class="cls-62" d="M187.33,157.82s1.42-.88,1.44-.83"/><path class="cls-63" d="M141.61,159.71s1.39-.86,1.42-.82"/><path class="cls-64" d="M131,169c0,.05.16-.18.2-.12"/><path class="cls-64" d="M121.05,179c0,.05.15-.16.18-.1"/><path class="cls-63" d="M131.64,169.68s1.39-.86,1.42-.82"/><path class="cls-63" d="M151.58,149.73s1.39-.86,1.42-.82"/><path class="cls-64" d="M141,159c0,.05.16-.17.2-.11"/><path class="cls-65" d="M185.3,157.84s1.44-.89,1.47-.85"/><path class="cls-66" d="M138.42,195.55c.11.19,4-2.53,4.1-2.37"/><path class="cls-66" d="M122.86,179.24c0,.08,8.5-5,8.54-4.93.16.28-7.76,9.86-7.59,10.16s13.3-8,13.44-7.76c.31.55-16.36,14.52-16,15.08.08.13,5.23-3.25,5.33-3.08s-6.93,9.74-6.75,10c.07.12,10.51-6.22,10.58-6.11s-8.12,10.55-8,10.83,21.74-13.16,22-12.7-18.18,15.22-17.84,15.8c0,.1,4.39-2.7,4.46-2.57"/><path class="cls-66" d="M157.87,175.68c.13.22,4.86-3.06,5-2.87"/><path class="cls-66" d="M163.59,168.29c.13.22,13.61-8.12,13.72-7.92"/><path class="cls-66" d="M177.94,155.87c.05.09,2.26-1.48,2.34-1.35"/><path class="cls-66" d="M151,151.17c.07.13,3.75-2.39,3.85-2.22s-5.48,8.84-5.37,9c.23.39,18-11,18.32-10.57.07.11,4.09,3,4.16,3.09.17.3,3.71-2.51,3.87-2.23s-6.74,8.8-6.6,9,12.1-7.35,12.26-7.07c.33.58-18.32,15.17-18,15.73.21.36,6-4,6.19-3.58.41.72-32,22.58-31.44,23.6.26.46,26.81-16.12,27.08-15.64.46.8-35.59,24.9-35.11,25.74.3.52,26.35-15.84,26.62-15.36"/><path class="cls-64" d="M123.39,204.35s.78-.48.79-.46,1.19,5.12,1.25,5.22,6.31-3.8,6.38-3.68"/><path class="cls-67" d="M122.34,181s.73-.45.74-.43c.15.26-5.06,8.61-5,8.81,0,0,3.32-2,3.34-1.93s.11,5.26.19,5.39S123,192,123,192s-1,5.62-.89,5.75.69-.42.7-.4"/><path class="cls-68" d="M120.47,197.66s1.1-.68,1.12-.65c.13.23-3.75,7.89-3.65,8.05s3-1.74,3-1.72"/><path class="cls-69" d="M121.71,197.71s.79-.49.81-.47"/><path class="cls-70" d="M123.39,207.53s.86-.54.88-.51"/><path class="cls-71" d="M122.39,179.45s.67-.42.68-.4"/><path class="cls-72" d="M122.18,202.44s.39-.24.4-.23"/><path class="cls-73" d="M120.2,185.19s.79-.5.81-.47c.14.25-4.76,8.44-4.65,8.63,0,0,3.17-1.87,3.19-1.84s.57,5,.65,5.12.8-.49.81-.47"/><path class="cls-68" d="M121.37,181.61s.55-.34.56-.32"/><path class="cls-68" d="M120.79,184.59s.78-.48.79-.46"/><path class="cls-74" d="M183.24,148.88s.45-.28.46-.26c.13.23-4.4,8-4.3,8.23,0,0,3-1.79,3-1.77"/><path class="cls-75" d="M183.23,157.66s.52-.33.53-.31"/><path class="cls-76" d="M174.61,160.11c0,.07,1.51-1,1.57-.91.17.3-6.61,9.47-6.48,9.69s5.16-3.09,5.21-3"/><path class="cls-77" d="M176.59,161c0,.06.68-.49.73-.42"/><path class="cls-78" d="M177.65,163.14c0,.07,1.09-.75,1.14-.66"/><path class="cls-79" d="M183,159.75s.9-.56.92-.53"/><path class="cls-80" d="M123.4,220.09s.79-.49.8-.46c.14.24-4.75,8.43-4.64,8.62,0,0,3.72-2.2,3.74-2.16s1.13,4.68,1.2,4.8S126,230,126,230"/><path class="cls-81" d="M123.39,217.49s.85-.52.86-.5"/><path class="cls-82" d="M123.4,214.9s.81-.5.82-.48"/><path class="cls-83" d="M123.38,209.94s.52-.32.53-.3"/><path class="cls-84" d="M123.39,212.52s.75-.46.77-.44"/><path class="cls-66" d="M132.36,169.5c0,.07,1-.69,1-.6s-4,8-3.95,8.22S142.83,169,143,169.3"/><path class="cls-85" d="M131.63,171.06s1.4-.86,1.42-.82"/><path class="cls-86" d="M128.43,174.71s.36-.29.4-.23"/><path class="cls-87" d="M131.81,173.93s1.21-.75,1.24-.71"/><path class="cls-66" d="M142.35,159.55c0,.07,1-.69,1-.6s-4,8.05-3.94,8.22S152.79,159,153,159.36"/><path class="cls-85" d="M141.6,161.09s1.4-.87,1.42-.83"/><path class="cls-86" d="M138.4,164.74s.36-.3.4-.23"/><path class="cls-87" d="M141.78,164s1.22-.75,1.24-.72"/><path class="cls-85" d="M151.57,151.11s1.4-.86,1.42-.82"/><path class="cls-86" d="M148.37,154.76c0,.05.36-.29.4-.23"/><path class="cls-87" d="M151.75,154s1.22-.75,1.24-.71"/><path class="cls-88" d="M209,193.53s1.48-.91,1.5-.86c.16.26-5.45,8.82-5.33,9s4.08-2.43,4.11-2.37-.82,5.78-.74,5.92,2-1.22,2-1.17-1.35,5.84-1.27,6,1.61-1,1.63-.94-2,6.27-1.88,6.43,1.52-.94,1.54-.9"/><path class="cls-12" d="M209.19,187.06s.67-.41.68-.39c.16.28-6.2,9.23-6.07,9.45,0,0,4.23-2.52,4.27-2.47"/><path class="cls-89" d="M196.94,238s1.71-1,1.74-1"/><path class="cls-90" d="M154.91,259.21s.45-.28.46-.27"/><path class="cls-36" d="M152.45,239.47c0,.07,1.21-.82,1.27-.73s-.17,5.89-.1,6,8.25-5,8.35-4.83-1.76,6.3-1.66,6.46,3.24-2,3.29-1.9"/><path class="cls-88" d="M160.75,248.71s.09-.13.12-.08-1.52,6.65-1.44,6.78,4.69-2.8,4.74-2.73"/><path class="cls-36" d="M158.36,254.05s.4-.32.44-.25"/><path class="cls-91" d="M142.38,241s1.13-.7,1.15-.66c.11.19-2.53,7.2-2.44,7.35s10.59-6.45,10.73-6.2"/><path class="cls-92" d="M150.1,247.35c0,.07,1.45-1,1.5-.87"/><path class="cls-93" d="M152.79,248.79s.6-.37.61-.36"/><path class="cls-94" d="M157.13,247.19s1.08-.66,1.1-.63"/><path class="cls-95" d="M133.87,240c0,.08,1.54-1,1.6-.92s2.57,4.07,2.62,4.16,3.46-2,3.48-2"/><path class="cls-96" d="M133.51,237.29s1.71-1,1.74-1"/><path class="cls-97" d="M180.26,229c0,.06.58-.43.62-.35s-2.23,7-2.14,7.18,12.64-7.71,12.82-7.4-4.72,7.91-4.59,8.14,6-3.66,6.06-3.5"/><path class="cls-98" d="M200.26,218.84c0,.06.89-.63.94-.54s-2.32,7.09-2.24,7.23,8.4-5.09,8.5-4.91-3.43,7.22-3.32,7.42S206,226.93,206,227"/><path class="cls-97" d="M178.19,236.74c0,.07.93-.65,1-.56s.11,6,.17,6.09,3.41-2.08,3.46-2"/><path class="cls-97" d="M170.42,238.75s.07-.12.11-.06"/><path class="cls-38" d="M190.53,219.39c0,.06.73-.52.77-.44s-2.69,7.3-2.61,7.45,9.56-5.81,9.68-5.59"/><path class="cls-98" d="M172.54,249.07s1.17-.72,1.19-.69c.16.29-6.42,9.36-6.29,9.58s6.55-3.95,6.62-3.83"/><path class="cls-99" d="M177.57,241.51s.65-.4.66-.38"/><path class="cls-100" d="M191.82,229.1s.05-.11.09,0"/><path class="cls-101" d="M171.47,247.41s1.6-1,1.63-.94c.14.24-5.17,8-5.06,8.22,0,0,3.52-2.08,3.54-2"/><path class="cls-102" d="M162.4,254.79c0,.05.29-.25.33-.19"/><path class="cls-103" d="M196.46,229.05s0-.08,0,0"/><path class="cls-98" d="M157.83,258.71s.17-.18.2-.12"/><path class="cls-100" d="M207.61,223.53s1.36-.84,1.38-.8"/><path class="cls-104" d="M202.79,229.21s1.83-1.12,1.86-1.07"/><path class="cls-104" d="M166,257.08s1.17-.72,1.19-.69"/><path class="cls-105" d="M202,228.56s.89-.55.9-.52"/><path class="cls-106" d="M202.46,182.25s.86-.53.88-.5c.27.47-13.14,13.06-12.94,13.41s12.16-7.41,12.33-7.12-10.78,11.21-10.56,11.6,5.44-3.56,5.62-3.24"/><path class="cls-96" d="M200.61,192.57c0,.05.2-.19.23-.13s-1.48,6.63-1.4,6.76,5.18-3.11,5.23-3"/><path class="cls-107" d="M203.15,182s.53-.33.54-.31c.13.22-3.73,7.72-3.64,7.88s2.92-1.71,2.94-1.69"/><path class="cls-108" d="M206.43,188.71s1.42-.88,1.44-.83"/><path class="cls-108" d="M206.15,192.28s1.75-1.08,1.78-1"/><path class="cls-109" d="M197.41,184.17c0,.06,1-.72,1.08-.63.3.52-14.88,14-14.65,14.41s16.88-10.33,17.13-9.9-13.26,12.56-13,13c.08.15,4.89-3,5-2.87"/><path class="cls-110" d="M194.25,170.11s1.45-.9,1.48-.86c.12.21-3.2,7.58-3.11,7.74s4.63-2.77,4.67-2.7"/><path class="cls-111" d="M197.79,176.72s1.08-.66,1.1-.63c.13.23-4,8-3.95,8.21s5-3,5-2.89"/><path class="cls-112" d="M199,178.08l.28-.16"/><path class="cls-113" d="M192.86,170.12s1.41-.87,1.43-.83c.13.22-3.59,7.8-3.5,8s4.69-2.8,4.74-2.73-4.08,7.56-4,7.78,4.74-2.91,4.82-2.78-6,8.41-5.91,8.64,4.92-3,5-2.87"/><path class="cls-114" d="M187.92,167.43s1.67-1,1.69-1c.13.22-3.35,7.67-3.26,7.83s5-3,5.07-2.92"/><path class="cls-115" d="M187,162.82s.86-.53.88-.5"/><path class="cls-116" d="M187.6,162.17s1.47-.91,1.5-.86-2.62,7.17-2.54,7.32,3.19-1.88,3.21-1.85"/><path class="cls-117" d="M190.33,161.34s1.39-.86,1.41-.82"/><path class="cls-118" d="M126.19,233.7a3.14,3.14,0,0,0,.31-.18"/><path class="cls-119" d="M125.13,228.25s1.53-.94,1.56-.9c.11.19-2.31,7.09-2.22,7.23s3.73-2.21,3.75-2.17"/><path class="cls-120" d="M133.24,235.48s1.29-.8,1.31-.76"/><path class="cls-121" d="M125.78,230.68s.66-.41.67-.39"/><path class="cls-69" d="M154.84,148.12s.41-.33.45-.26c.13.23,8.8.64,8.9.81s5.28-3.17,5.33-3.08,7.44.95,7.55,1.14,1.3-.8,1.32-.76"/><path class="cls-122" d="M160.45,145.26s1.46-.9,1.48-.85,5.43,2.65,5.5,2.77,3.27-1.93,3.28-1.9"/><path class="cls-123" d="M157.5,146.13s1.43-.88,1.45-.84"/><path class="cls-124" d="M188.09,159.23s.5-.31.51-.29"/><path class="cls-125" d="M184.4,158.86s1.13-.7,1.15-.67"/><path class="cls-126" d="M156.33,154.45c0,.07,1.07-.73,1.12-.64.37.64-19.24,16.4-19,16.89.39.66,29.35-18,29.81-17.22S135,176.9,135.54,177.9s32-19.9,32.64-18.84c.7,1.22-41.15,27.55-40.53,28.63.42.73,31.82-19.34,32.24-18.62s-28,20.45-27.58,21.27c.33.56,13.55-8.67,13.91-8"/><path class="cls-127" d="M143,189.64c0,.06.75-.54.8-.46s3.87,3.57,3.93,3.67,4.06-2.41,4.09-2.36"/><path class="cls-128" d="M124.45,195.11s.19-.18.22-.12"/><path class="cls-129" d="M150.86,181.17c.07.11,3.18-2,3.27-1.89"/><path class="cls-130" d="M171.21,160.22c0,.08,1.63-1.08,1.69-1"/><path class="cls-131" d="M164.5,161.61c0,.07,1-.68,1-.6"/><path class="cls-131" d="M154.6,171.51c0,.05.2-.19.23-.13"/><path class="cls-128" d="M134.66,191.47s.19-.2.23-.13"/><path class="cls-132" d="M164.31,169.59c0,.06.66-.48.7-.41"/><path class="cls-133" d="M160.45,146.75s.91-.56.93-.54,5.49,2.62,5.56,2.74,3.21-1.89,3.23-1.86"/><path class="cls-134" d="M131.67,201c.07.11,3-1.91,3.06-1.77"/><path class="cls-135" d="M150.82,179.2s0-.06,0,0-1.63,6.71-1.55,6.84,2.86-1.67,2.87-1.65.86,4.83.93,5,.62-.38.63-.37-1.29,5.81-1.21,5.94,1.05-.64,1.07-.62-.93,5.69-.85,5.83,1-.6,1-.57-4.48,7.72-4.35,7.95c0,0,6.32-3.67,6.34-3.65.11.19-6,8.63-5.84,8.84,0,0,7.31-4.25,7.32-4.23"/><path class="cls-131" d="M159.1,166.35c0,.05.25-.23.29-.16"/><path class="cls-136" d="M162.91,169.91c0,.05.56-.42.6-.35"/><path class="cls-137" d="M138.37,196.51c0,.06.69-.5.73-.42"/><path class="cls-131" d="M149.21,176.29s.17-.18.21-.12"/><path class="cls-64" d="M158.42,176.43c0,.06.56-.42.6-.35"/><path class="cls-138" d="M131,200c0,.07,1.33-.9,1.39-.8"/><path class="cls-139" d="M161.17,169.55c0,.06.53-.39.57-.32"/><path class="cls-140" d="M169,166.15s0-.09.05,0"/><path class="cls-141" d="M140.86,189.21s0-.09,0,0-1.69,6.75-1.62,6.88,2.87-1.67,2.88-1.66"/><path class="cls-142" d="M170.74,159.28s0-.09.06,0-1.67,6.74-1.6,6.87,2.9-1.69,2.91-1.68"/><path class="cls-143" d="M163.13,167.85s1.29-.79,1.31-.75c.15.26-5.32,8.75-5.21,9,0,0,2.85-1.67,2.86-1.65"/><path class="cls-144" d="M133.24,197.86s1.82-1.12,1.85-1.07c.16.28-5.89,9.07-5.77,9.28,0,0,2.82-1.65,2.83-1.64"/><path class="cls-145" d="M158.9,177.28s1-.59,1-.56"/><path class="cls-146" d="M125.59,209.77s.23-.22.26-.16"/><path class="cls-147" d="M126.1,207.71s1.74-1.07,1.77-1"/><path class="cls-148" d="M129,207.2s.87-.54.89-.51"/><path class="cls-149" d="M124.83,207.76s1.42-.88,1.44-.84"/><path class="cls-150" d="M121.51,183.45s.41-.25.42-.24"/><path class="cls-69" d="M121.13,190.43s1.23-.76,1.25-.72"/><path class="cls-151" d="M121.41,194.09s1-.65,1.06-.61"/><path class="cls-152" d="M120.8,192.87s1.11-.69,1.13-.66"/><path class="cls-152" d="M120.8,196.47s1.09-.67,1.11-.64"/><path class="cls-153" d="M124,211.32s.88-.54.89-.51"/><path class="cls-154" d="M124.58,209.53s1.35-.84,1.38-.8"/><path class="cls-68" d="M120.79,190s.69-.43.71-.41"/><path class="cls-68" d="M120.8,193.77s.51-.32.52-.31"/><path class="cls-155" d="M177.48,162.33s1.65-1,1.68-1"/><path class="cls-77" d="M172.77,167.78s1.75-1.08,1.78-1"/><path class="cls-156" d="M173.27,163.23s1.7-1,1.72-1"/><path class="cls-157" d="M177.11,165.4c0,.06,1-.68,1-.59"/><path class="cls-158" d="M183.22,161.12s1-.6,1-.57"/><path class="cls-159" d="M124.57,219.49s.82-.5.83-.48c.14.25-4.77,8.46-4.67,8.64,0,0,3.49-2.06,3.51-2"/><path class="cls-12" d="M204.18,207.23c0,.05.34-.28.38-.22s-.5,6.08-.43,6.2,4.23-2.52,4.26-2.46"/><path class="cls-160" d="M207.19,197.57s1.47-.91,1.49-.86c.14.24-4.73,8.43-4.63,8.61s4.16-2.47,4.19-2.42"/><path class="cls-161" d="M206.45,193.73s1.4-.86,1.42-.82c.21.37-9.25,10.93-9.09,11.2s7.52-4.55,7.61-4.39-3,7-2.92,7.18,4.41-2.71,4.48-2.58-5.53,8.13-5.4,8.35,5.24-3.19,5.31-3.07-2.49,6.55-2.39,6.72,2.12-1.31,2.15-1.24"/><path class="cls-162" d="M160.73,238.66s.14-.16.18-.1-1.75,6.78-1.68,6.91,11.82-7.2,12-6.92"/><path class="cls-163" d="M159.29,235.77c.06.11,2.62-1.68,2.7-1.55s2.34,4.46,2.4,4.56,8.5-5.16,8.61-5"/><path class="cls-164" d="M158,228.93s1.12-.69,1.14-.66c.2.35-8.51,10.52-8.36,10.77s9.32-5.65,9.44-5.45"/><path class="cls-165" d="M156.72,238.77s0-.07,0,0"/><path class="cls-165" d="M153.22,237.38s1.38-.85,1.4-.81c.16.27-5.52,8.87-5.41,9.07,0,0,3.28-1.93,3.29-1.9"/><path class="cls-166" d="M155.28,245.36c0,.07,1-.7,1.05-.61"/><path class="cls-94" d="M156.07,243.57s1.49-.92,1.51-.88"/><path class="cls-167" d="M174.09,238.41s1.84-1.13,1.87-1.08"/><path class="cls-167" d="M172.27,237.24s.71-.44.72-.42c.23.4-10.54,11.64-10.37,11.94S175.85,240.68,176,241"/><path class="cls-101" d="M166.27,249.46s.55-.34.56-.33c.17.29-6.4,9.36-6.28,9.57,0,.05,4.09-2.43,4.12-2.37"/><path class="cls-160" d="M164.63,249.76c0,.07,1.25-.85,1.3-.75"/><path class="cls-168" d="M143.11,240.49c.07.11,3-2,3.13-1.8"/><path class="cls-169" d="M142.91,237.51s.7-.44.72-.41c.12.2-3,7.46-2.91,7.62s4.61-2.75,4.65-2.68"/><path class="cls-170" d="M139.83,237.25s1.64-1,1.67-1"/><path class="cls-171" d="M177.53,227.78c.05.07,1.39-.93,1.45-.83.15.25-5,8.55-4.86,8.74s7.27-4.39,7.35-4.24"/><path class="cls-92" d="M188.45,220.49s1.68-1,1.71-1c.13.22-3.82,7.92-3.72,8.09s4.93-2.95,5-2.87"/><path class="cls-172" d="M180.77,225.85s0-.07,0,0"/><path class="cls-173" d="M184,221.39s1.18-.72,1.2-.69c.11.18-1.74,6.77-1.66,6.91s3.89-2.31,3.91-2.26"/><path class="cls-36" d="M189.09,224.47s1.24-.77,1.26-.73"/><path class="cls-174" d="M187.91,225.52s1-.62,1-.59"/><path class="cls-175" d="M182.75,219.46s1.29-.8,1.31-.76c.15.25-5,8.58-4.89,8.77l2.47-1.43"/><path class="cls-92" d="M197.07,215.33c.09.16,5.08-3.2,5.2-3s-2,7.16-1.9,7.29.32-.34.39-.22-2.92,7-2.82,7.2,4.44-2.64,4.47-2.58"/><path class="cls-92" d="M190.32,207.76c0,.05.1-.14.14-.08s-2.8,7.36-2.71,7.51,13.76-8.4,13.95-8.06-11.77,11.75-11.53,12.16c.07.12,3.91-2.4,4-2.29"/><path class="cls-176" d="M199.86,224.8s.07-.12.1-.05"/><path class="cls-176" d="M202.92,221.56l.17-.1"/><path class="cls-177" d="M206.91,215.1s1.56-1,1.59-.91"/><path class="cls-178" d="M174.13,229.41c0,.07,1-.66,1-.58s-4.1,8.08-4,8.26,5.82-3.5,5.88-3.4"/><path class="cls-179" d="M175,246.22s.16-.17.19-.11"/><path class="cls-180" d="M193.84,224.68c0,.09,2.14-1.4,2.21-1.28"/><path class="cls-181" d="M196.68,217.56s.91-.56.93-.54"/><path class="cls-43" d="M164.49,253.63s.23-.22.26-.16"/><path class="cls-182" d="M171.23,252.42s.73-.45.75-.42"/><path class="cls-177" d="M168.34,246.28c0,.05.42-.33.46-.26"/><path class="cls-183" d="M196.38,204c.1.18,6.36-4,6.5-3.76s-3.1,6.83-3,7,3-1.82,3-1.75"/><path class="cls-183" d="M189.75,203.75c.1.16,5.32-3.36,5.45-3.15.22.4-10.23,11.46-10.06,11.76,0,.06,5-3,5.06-2.92"/><path class="cls-184" d="M182.36,203.4c0,.07,1.11-.76,1.16-.67s-4.05,8.05-4,8.22,7.18-4.33,7.26-4.19"/><path class="cls-170" d="M196.44,197.2c0,.05.72-.53.77-.45"/><path class="cls-185" d="M197.17,195.46c0,.07,1.12-.76,1.17-.67"/><path class="cls-186" d="M193.16,193.82s.87-.54.89-.51"/><path class="cls-183" d="M199.73,197.23s.14-.16.18-.1"/><path class="cls-187" d="M203.36,198.37s1.11-.69,1.13-.65"/><path class="cls-187" d="M206,193.8s.7-.43.71-.41"/><path class="cls-188" d="M184.27,192.41c.08.14,4.07-2.58,4.18-2.41s-6.51,9.41-6.39,9.63c0,.05,4.45-2.65,4.48-2.58"/><path class="cls-189" d="M180.9,200.2c0,.06,1-.67,1-.59"/><path class="cls-188" d="M192.89,186.34c0,.08,1.85-1.22,1.91-1.11"/><path class="cls-190" d="M199.7,183.75s.86-.53.88-.5"/><path class="cls-188" d="M196.17,179s.75-.45.76-.43"/><path class="cls-191" d="M187.8,175c0,.09,1.94-1.27,2-1.15s-4.69,8.4-4.58,8.59,8.08-4.9,8.18-4.72-8.37,9.9-8.19,10.22c.1.17,5.73-3.51,5.82-3.36s-7.09,9-6.95,9.25c0,0,2-1.22,2-1.18"/><path class="cls-192" d="M192.84,183.13s1.61-1,1.64-.94"/><path class="cls-193" d="M180.57,169s.26-.24.3-.18-2,6.92-1.91,7.05,7.89-4.77,8-4.61.34,5.13.42,5.26,3-1.83,3-1.75"/><path class="cls-194" d="M185.68,167.5s1.28-.78,1.3-.74"/><path class="cls-195" d="M181.29,167.68c0,.06.7-.51.75-.43"/><path class="cls-196" d="M186.19,163s1.12-.69,1.14-.66"/><path class="cls-197" d="M125.19,219.89s.8-.49.81-.47c.14.24-4.31,8.2-4.21,8.38,0,0,3.87-2.3,3.9-2.26s1.76,4.33,1.82,4.45,1.39-.85,1.41-.81"/><path class="cls-198" d="M126.85,232.47s.13-.16.16-.1"/><path class="cls-199" d="M139.35,232.14s1.66-1,1.69-1"/><path class="cls-199" d="M133.38,233.09s1.73-1.07,1.76-1-.25,5.94-.18,6.05,6.6-4,6.68-3.85"/><path class="cls-200" d="M149.76,190s1.45-.9,1.48-.86c.15.27-5.31,8.75-5.2,8.95s5.29-3.17,5.34-3.09"/><path class="cls-201" d="M141,193.28c0,.07,1.22-.82,1.27-.73"/><path class="cls-202" d="M144,191.58s0-.08,0,0"/><path class="cls-203" d="M141.07,191.08s.36-.3.4-.23"/><path class="cls-204" d="M151.06,183.71c.08.14,4.4-2.79,4.5-2.6"/><path class="cls-205" d="M155.81,180.83c0,.06.69-.5.74-.43s.67,5,.73,5.06,4.5-2.68,4.53-2.62"/><path class="cls-206" d="M166.85,170.3c.05.09,1.86-1.22,1.93-1.11.21.37-9.35,11-9.19,11.25,0,.07,5.07-3,5.12-2.95"/><path class="cls-207" d="M164.77,172s0-.09.06,0"/><path class="cls-208" d="M134.46,200.86c.06.11,2.88-1.85,3-1.71"/><path class="cls-66" d="M167.7,195.83c.07.12,3.78-2.41,3.88-2.25"/><path class="cls-66" d="M153.3,187.55s1.47-.91,1.49-.87c.16.27-5.44,8.82-5.33,9s14.57-8.9,14.78-8.53-7.7,9.54-7.52,9.84c.31.54,11.85-7.5,12.14-7s-16,13.86-15.73,14.32c.13.23,10.13-6.16,10.26-5.93s-6.58,8.8-6.43,9.06,2.5-1.84,2.67-1.54-8.69,10-8.49,10.35c.1.18,14.05-8.38,14.16-8.18"/><path class="cls-137" d="M153.29,214.34s1-.6,1-.57.73,5.38.8,5.49,6.58-4,6.65-3.85"/><path class="cls-209" d="M151.52,197.77s1.19-.74,1.21-.7c.15.26-5.19,8.68-5.08,8.88,0,0,3.82-2.26,3.84-2.22s.11,5.26.18,5.39,1.32-.8,1.34-.77"/><path class="cls-210" d="M148.81,213.56s1.69-1,1.72-1c.13.23-3.87,8-3.77,8.12s4.91-2.94,5-2.86"/><path class="cls-211" d="M150.35,210s1.21-.75,1.23-.71c.13.22-3.65,7.83-3.56,8s3.48-2.05,3.5-2"/><path class="cls-212" d="M150.9,207.76s1-.6,1-.57"/><path class="cls-213" d="M163.3,173.82s1.09-.67,1.11-.64"/><path class="cls-214" d="M140.33,198.86c0,.07,1-.67,1-.58l2.81,4.32c0,.05,4.51-2.69,4.55-2.63s-1,5.91-1,6.06,2.55-1.57,2.59-1.5"/><path class="cls-215" d="M158.4,179.29c0,.05.24-.21.27-.15"/><path class="cls-216" d="M141,197c0,.06.72-.52.76-.44"/><path class="cls-214" d="M134.52,203.5c0,.08,1.39-.93,1.45-.83"/><path class="cls-217" d="M128,209.9s1.59-1,1.62-.94c.15.27-5.54,8.88-5.43,9.08s7.57-4.57,7.66-4.42"/><path class="cls-218" d="M133.16,208l.43-.25c.21.36-8.75,10.65-8.6,10.91s7.08-4.27,7.16-4.13"/><path class="cls-219" d="M125.78,209.32s1.43-.88,1.46-.83"/><path class="cls-220" d="M124.56,214.86S126,214,126,214"/><path class="cls-221" d="M125.8,210.71s1-.63,1-.6"/><path class="cls-222" d="M173.93,169.76c0,.06.94-.66,1-.57s-4.36,8.06-4.26,8.24,4.26-2.53,4.29-2.48"/><path class="cls-223" d="M175.45,167.75s1.73-1.07,1.76-1"/><path class="cls-155" d="M168.31,172.12c0,.06.56-.41.6-.34.19.33-8.16,10.32-8,10.57s6.78-4.09,6.85-4,2.16,4.1,2.23,4.21,2.62-1.6,2.66-1.53"/><path class="cls-224" d="M175.87,169.76c.07.12,3.45-2.2,3.54-2,.24.4-10.72,11.73-10.54,12,.06.11,6.82-4.12,6.9-4s1.6,4.41,1.66,4.53,1.25-1,1.36-.78-2.47,6.46-2.38,6.61,3.06-1.86,3.1-1.79"/><path class="cls-225" d="M125.18,217.52s1.34-.82,1.36-.78"/><path class="cls-226" d="M207.63,210.42s.88-.54.89-.51"/><path class="cls-227" d="M202.19,209.34s.56-.35.57-.33"/><path class="cls-228" d="M165.08,228.5c0,.08,1.81-1.19,1.87-1.08s6.38,2.35,6.45,2.47,3.94-2.55,4.06-2.34"/><path class="cls-228" d="M171.35,224.23c.12.22,7.79-4.88,8-4.59"/><path class="cls-229" d="M171.81,231.66s.12-.15.15-.09"/><path class="cls-230" d="M158.34,233.74s.13-.16.17-.1"/><path class="cls-231" d="M151.93,227.32s1.84-1.13,1.87-1.08c.12.21-3.48,7.37-3.39,7.53s5.16-3.09,5.2-3"/><path class="cls-231" d="M149.91,234.17c0,.05.26-.23.29-.17"/><path class="cls-232" d="M161.11,227.23s1.7-1,1.73-1"/><path class="cls-233" d="M158.72,228.33s1.55-1,1.58-.92"/><path class="cls-234" d="M156.88,229.35s1.29-.8,1.31-.76"/><path class="cls-94" d="M153.45,240.3s1.52-.93,1.54-.89"/><path class="cls-235" d="M147.49,233.26s1.63-1,1.66-.95"/><path class="cls-236" d="M141.61,239.82c0,.06.79-.56.84-.48"/><path class="cls-237" d="M143.31,237.4s1.74-1.07,1.77-1"/><path class="cls-238" d="M178.58,225.56s.12-.16.15-.1"/><path class="cls-239" d="M187.15,218.69s1.78-1.09,1.81-1c.15.26-5.2,8.69-5.09,8.88,0,0,3.93-2.33,4-2.29"/><path class="cls-240" d="M181.15,219.82c.07.12,3.35-2.15,3.44-2"/><path class="cls-239" d="M183.21,222.5s.53-.32.54-.31"/><path class="cls-241" d="M187.23,210.57s1.6-1,1.63-.94c.19.32-7.79,10.11-7.65,10.36s7.27-4.4,7.36-4.25"/><path class="cls-242" d="M186.89,215.7c0,.07,1.36-.92,1.42-.82"/><path class="cls-243" d="M193.54,204.3s1.17-.73,1.19-.69"/><path class="cls-244" d="M201.55,213.71s.51-.32.52-.3"/><path class="cls-245" d="M197.82,201.24s1.34-.83,1.36-.79"/><path class="cls-246" d="M188.06,207.84s1.29-.8,1.31-.76"/><path class="cls-247" d="M187.64,206.06s1.22-.76,1.24-.72c.23.38-9.93,11.3-9.77,11.59.06.09,6.07-3.66,6.14-3.54"/><path class="cls-248" d="M182.56,202.15s.69-.43.7-.41c.14.25-4.66,8.39-4.55,8.58,0,0,3.75-2.23,3.78-2.19"/><path class="cls-249" d="M182.56,212.8s.59-.37.6-.35"/><path class="cls-250" d="M180.67,195.83s.31-.27.35-.21"/><path class="cls-251" d="M186.6,177.47s1.59-1,1.62-.93c.21.37-9.74,11.18-9.58,11.47s8.13-4.93,8.23-4.75-4.36,7.72-4.23,7.94c0,.06,2.06-1.27,2.1-1.21s-2.35,6.38-2.26,6.53.53-.32.54-.31"/><path class="cls-252" d="M181.7,179.27c0,.07,1.19-.8,1.24-.71.18.32-7.63,10-7.49,10.27.06.1,6.61-4,6.68-3.86"/><path class="cls-253" d="M183,167.83l.14-.09c.21.36-8.95,10.76-8.79,11,.06.11,7-4.25,7.11-4.11"/><path class="cls-254" d="M175.66,175.17c.06.11,3-1.93,3.08-1.78"/><path class="cls-255" d="M181.26,176.13c0,.06.74-.53.78-.45"/><path class="cls-256" d="M125.67,228.6c0,.05.08-.12.12-.06s2.13,4.58,2.19,4.68,3.58-2.12,3.6-2.09"/><path class="cls-257" d="M126.38,221.26s1-.63,1-.6c.12.22-3.49,7.74-3.39,7.9s3.44-2,3.45-2"/><path class="cls-258" d="M126.77,225.34s.7-.44.71-.42"/><path class="cls-259" d="M144.49,213.26c.06.09,2.09-1.36,2.15-1.24"/><path class="cls-259" d="M139.5,206.93s.3-.25.33-.19c.19.33-7.71,10.08-7.57,10.32s11.53-7,11.69-6.75-11.18,11.43-11,11.82c.09.16,5.27-3.23,5.36-3.09s-5.73,8.25-5.6,8.47,8.14-4.94,8.24-4.76"/><path class="cls-260" d="M131,232.2c.1.18,6-3.8,6.17-3.56"/><path class="cls-261" d="M131,229.11s.08-.12.11-.06"/><path class="cls-262" d="M138.59,231.87c0,.06.79-.56.83-.48"/><path class="cls-262" d="M137.75,233s1.49-.93,1.52-.88"/><path class="cls-263" d="M144.22,193.15s0-.08.05,0"/><path class="cls-264" d="M150.11,197s.76-.47.78-.45"/><path class="cls-265" d="M148,192.52s.51-.31.52-.3"/><path class="cls-266" d="M148.57,189.9s.71-.43.72-.41"/><path class="cls-267" d="M145.72,194s.55-.34.56-.32"/><path class="cls-215" d="M153.37,187.71c.08.13,3.75-2.39,3.85-2.22"/><path class="cls-206" d="M163.07,178.57s.41-.25.42-.24c.13.24-4.26,8.17-4.15,8.35s5.23-3.14,5.28-3.06,4.67,2.63,4.75,2.76,2.56-1.57,2.6-1.5"/><path class="cls-268" d="M167.22,174.42s.67-.41.69-.39"/><path class="cls-269" d="M137.29,200.71c0,.06.71-.51.76-.44"/><path class="cls-131" d="M155.5,194.87c0,.06.9-.63.95-.55s-1.27,6.43-1.19,6.56,2.84-1.67,2.85-1.65"/><path class="cls-270" d="M161.24,200.71c.06.1,2.67-1.72,2.74-1.59s-4.75,8.44-4.64,8.63c0,0,3.68-2.18,3.7-2.14"/><path class="cls-64" d="M171.71,189.62s1.66-1,1.69-1c.18.31-7.37,9.88-7.23,10.12.05.08,5.57-3.35,5.62-3.25"/><path class="cls-271" d="M160.86,199.31c0,.05.27-.24.31-.17s-2,6.9-1.89,7,2.47-1.43,2.47-1.42,1.27,4.6,1.34,4.72.44-.27.45-.26-.73,5.49-.65,5.61.57-.35.58-.33"/><path class="cls-132" d="M163.27,186.33s1.5-.93,1.53-.88"/><path class="cls-64" d="M168.31,189.3c0,.06.48-.37.52-.3"/><path class="cls-272" d="M152.81,217.66s1.22-.75,1.24-.71-1.88,6.85-1.8,7,5.86-3.52,5.92-3.42"/><path class="cls-273" d="M155.83,217.46s1.33-.83,1.35-.79"/><path class="cls-274" d="M157.07,220.09c.05.08,1.66-1.1,1.72-1"/><path class="cls-275" d="M149.57,201.05s1.56-1,1.59-.91"/><path class="cls-276" d="M150.61,203.55s1.26-.78,1.29-.74"/><path class="cls-277" d="M149.69,207.16s1.53-.94,1.56-.9"/><path class="cls-278" d="M148.92,206.94s1.12-.69,1.14-.66c.14.25-4.91,8.53-4.8,8.72,0,0,3.94-2.34,4-2.29"/><path class="cls-279" d="M147.47,211.72s.91-.56.93-.53"/><path class="cls-280" d="M149.72,219s1-.64,1.05-.61"/><path class="cls-281" d="M152.4,218.07s.69-.42.7-.4"/><path class="cls-224" d="M137.16,204.3c.05.1,2.36-1.53,2.43-1.41.22.38-9.5,11.06-9.33,11.34s9.38-5.7,9.5-5.49"/><path class="cls-282" d="M145.69,200.16s1.81-1.12,1.84-1.07c.15.26-5.12,8.64-5,8.84,0,0,3.91-2.33,3.93-2.28"/><path class="cls-283" d="M143.92,200.74s1.59-1,1.62-.94c.14.25-4.76,8.45-4.65,8.63s3.76-2.22,3.78-2.18"/><path class="cls-284" d="M147.14,209.79s1.12-.69,1.14-.65"/><path class="cls-285" d="M131,209.5c0,.06.75-.54.79-.46"/><path class="cls-286" d="M126.53,210.25s1.6-1,1.63-.93"/><path class="cls-287" d="M126.82,215s.88-.54.89-.51"/><path class="cls-283" d="M131,211c.06.1,2.67-1.72,2.74-1.58s-4.53,8.31-4.42,8.5c0,0,4.19-2.5,4.22-2.44"/><path class="cls-288" d="M125.39,219.22c0,.05.24-.22.27-.15"/><path class="cls-289" d="M125.78,215.11s.71-.43.72-.41"/><path class="cls-290" d="M171.38,173.51s1.71-1.06,1.74-1c.17.28-6.16,9.22-6,9.43,0,0,4.13-2.45,4.16-2.4"/><path class="cls-291" d="M163.65,181.17s.67-.41.68-.39"/><path class="cls-291" d="M171.24,183.86s.39-.24.4-.23"/><path class="cls-292" d="M173,183.18s.5-.31.51-.29"/><path class="cls-293" d="M168.84,178s1.36-.84,1.38-.8"/><path class="cls-294" d="M177.46,176s.36-.23.37-.22c.09.16-.53,6.1-.46,6.21s5.86-3.52,5.92-3.42"/><path class="cls-214" d="M173,180.26s.28-.17.28-.16c.12.21-3.25,7.61-3.15,7.77s5.67-3.41,5.73-3.31"/><path class="cls-295" d="M176.9,179s.4-.25.41-.24c.15.26-5.31,8.75-5.2,8.94,0,0,3.41-2,3.43-2"/><path class="cls-296" d="M174.22,189.4s.41-.33.45-.26"/><path class="cls-297" d="M171.85,176.06s1-.6,1-.57"/><path class="cls-294" d="M176.84,172.25s.25-.16.26-.15"/><path class="cls-298" d="M126.7,217.69s1.54-.95,1.56-.9c.14.22-3.89,8-3.79,8.13s3.92-2.33,3.95-2.28,2,4.2,2.05,4.31,2.94-1.8,3-1.72"/><path class="cls-299" d="M160.66,225.39c0,.05.39-.31.42-.25s3.35,3.88,3.41,4,7.19-4.34,7.28-4.2"/><path class="cls-300" d="M162.8,227.37s1.31-.81,1.34-.77"/><path class="cls-249" d="M176.76,218.85c0,.05.19-.19.22-.13"/><path class="cls-301" d="M173.67,220.67c0,.07,1.11-.76,1.16-.67"/><path class="cls-216" d="M172.73,199.7s.84-.52.86-.49c.14.25-4.93,8.53-4.82,8.72,0,0,3.36-2,3.37-1.94s.47,5,.55,5.18.95-.59,1-.56-1.21,5.76-1.13,5.89.9-.55.91-.53-.93,5.69-.85,5.83.92-.57.94-.54"/><path class="cls-300" d="M174.72,220s1.13-.7,1.15-.67"/><path class="cls-302" d="M162,228.61s.55-.34.56-.33"/><path class="cls-303" d="M149.25,227.49s1.84-1.13,1.87-1.08c.14.25-4.81,8.48-4.71,8.66s5.31-3.18,5.36-3.09"/><path class="cls-304" d="M153.66,224.44c0,.06.54-.41.58-.33"/><path class="cls-305" d="M151.18,227.49s.81-.49.82-.47"/><path class="cls-306" d="M148.67,226.92s.06-.11.09-.06"/><path class="cls-307" d="M152.44,223.09s1.08-.67,1.1-.64"/><path class="cls-308" d="M158,223.88c0,.05.61-.45.65-.38"/><path class="cls-231" d="M157.69,227.44s1-.6,1-.57"/><path class="cls-309" d="M141.52,235.5c.06.11,2.87-1.85,2.95-1.71"/><path class="cls-310" d="M170.41,199c0,.05.39-.32.43-.25s-1.52,6.65-1.44,6.78,10.94-6.66,11.09-6.4-4,7.5-3.84,7.71,3.45-2.34,3.6-2.08-7.35,9.13-7.2,9.39,9.67-5.87,9.8-5.65-5.65,8.28-5.51,8.52,5.54-3.42,5.63-3.25"/><path class="cls-311" d="M177.59,217.91c0,.05.35-.3.39-.23"/><path class="cls-312" d="M176.8,192.9c0,.09,1.88-1.23,1.95-1.12"/><path class="cls-313" d="M177.41,190.12c0,.07,1.28-.86,1.33-.77"/><path class="cls-224" d="M178.28,195.93s0-.09.06,0"/><path class="cls-314" d="M180.12,197.51s1.44-.89,1.46-.84"/><path class="cls-315" d="M176.27,189.41c0,.05.42-.34.46-.27"/><path class="cls-316" d="M135.93,217.75c0,.09,2.12-1.38,2.19-1.26s-.3,6-.23,6.08,8.63-5.24,8.74-5-6.23,8.74-6.08,9,5.59-3.43,5.68-3.28"/><path class="cls-317" d="M126.77,222c0,.09,2-1.3,2-1.18"/><path class="cls-318" d="M139.05,213.8c.07.13,3.56-2.27,3.66-2.11"/><path class="cls-224" d="M143.89,206.82s1.17-.72,1.19-.69"/><path class="cls-319" d="M133.68,218.17s1.77-1.09,1.8-1"/><path class="cls-320" d="M133.35,219.29s.83-.51.84-.49"/><path class="cls-321" d="M144.72,222.11c0,.07,1.16-.79,1.21-.7.17.3-6.62,9.47-6.49,9.69s11.13-6.77,11.28-6.51-4.1,7.58-4,7.8.38-.46.49-.28"/><path class="cls-322" d="M164.23,200.93c.07.11,3-1.93,3.09-1.78"/><path class="cls-323" d="M164.22,203s1.56-1,1.58-.92"/><path class="cls-324" d="M163.32,207.54s.48-.3.49-.28"/><path class="cls-325" d="M163.94,203.14s.93-.58.94-.55"/><path class="cls-216" d="M171.61,198.07s1.48-.91,1.51-.87"/><path class="cls-326" d="M173.12,187.53s1.29-.8,1.32-.76c.15.26-5.28,8.73-5.17,8.93,0,0,3.14-1.85,3.16-1.82"/><path class="cls-310" d="M160.72,218.9s.38-.31.42-.24-1.78,6.79-1.7,6.93,11.88-7.24,12-7"/><path class="cls-327" d="M164.14,209.94s1.61-1,1.64-.95c.16.29-6.47,8.93-6.34,9.15,0,0,3.54-2.1,3.56-2.06"/><path class="cls-328" d="M153.21,221.35s.62-.38.63-.36"/><path class="cls-329" d="M157.64,218.47s1.08-.67,1.1-.64"/><path class="cls-330" d="M154,218s1.16-.71,1.18-.68"/><path class="cls-331" d="M155.87,218.45s1.32-.81,1.34-.77"/><path class="cls-332" d="M158.74,221.58s.1-.13.14-.07.3,5.62.36,5.73l2.48-1.43"/><path class="cls-333" d="M148.25,217.89s1.18-.73,1.2-.7"/><path class="cls-334" d="M137.64,207s.91-.56.93-.54"/><path class="cls-335" d="M133.37,216s.47-.29.48-.27"/><path class="cls-336" d="M174.33,187.65s1.61-1,1.64-1"/><path class="cls-337" d="M175.72,187.87s1.48-.91,1.5-.86"/><path class="cls-338" d="M172.55,194.1s.17-.18.21-.12"/><path class="cls-339" d="M177.07,192.64s1.84-1.14,1.87-1.09"/><path class="cls-340" d="M173.38,217.4s1.33-.81,1.35-.78"/><path class="cls-341" d="M170.3,207.63s1.56-1,1.59-.92c.2.34-8.19,10.34-8,10.59s6.8-4.1,6.88-4"/><path class="cls-342" d="M171.34,201s1.61-1,1.64-.94"/><path class="cls-343" d="M171.67,212.15s1.29-.8,1.31-.76"/><path class="cls-344" d="M168.48,207.11s.25-.24.29-.17"/><path class="cls-345" d="M171.05,200.69s1.51-.93,1.54-.88"/><path class="cls-346" d="M157.89,224.92s.76-.48.78-.45"/><path class="cls-347" d="M151,224.13s1.79-1.1,1.82-1"/><path class="cls-348" d="M158.88,224.89s1.34-.82,1.36-.78"/><path class="cls-349" d="M173.21,198c0,.05.62-.46.66-.38"/><path class="cls-350" d="M142.65,217s.53-.32.54-.31"/><path class="cls-351" d="M166.24,203.94s1.42-.88,1.44-.84"/><path class="cls-352" d="M162.13,209.78c0,.05.59-.44.64-.37"/><path class="cls-353" d="M173.46,192.16s1.8-1.11,1.83-1.06"/><path class="cls-354" d="M165.52,207.27s0-.11.09-.05-2.17,7-2.09,7.15,4.76-2.84,4.8-2.77"/><path class="cls-355" d="M166.84,206.79s1.32-.81,1.34-.77c.18.31-7.13,9.76-7,10,0,.06,4.76-2.85,4.81-2.78"/><path class="cls-356" d="M166.74,216.8s.2-.2.24-.14"/><path class="cls-357" d="M167.09,212.9s.66-.41.67-.39"/><path class="cls-358" d="M63.79,124.3s0-.08,0,0-1.76,6.78-1.69,6.92c.22.36,17.13-10.48,17.39-10S69,132.21,69.26,132.59s11-7,11.31-6.53-15.29,13.46-15,13.91,17.84-10.84,18.07-10.43S69,142.72,69.23,143.18s11.1-7.15,11.42-6.59S61.74,152.1,62.11,152.74c.23.41,24.68-14.83,24.93-14.4s-25,19.07-24.61,19.68S89.1,142,89.38,142.46c.41.71-27.48,20.85-27.07,21.56.26.45,20.35-12.55,20.7-12s-14.83,14.24-14.58,14.68c.35.6,17.66-10.85,17.94-10.36s-19.5,16.44-19.13,17.08,17.94-11.3,18.35-10.59-20.6,16.57-20.34,17c.45.77,29-17.58,29.36-17,.52.9-33.38,23.59-32.85,24.51.37.64,26.77-16.33,27.14-15.68s-25.42,19.07-25,19.79,26.13-16,26.54-15.33-29.77,22.15-29.25,23c.38.66,32.48-19.95,33-19.05s-30.85,22.29-30.29,23.26c.4.69,35-21.26,35.44-20.47.57,1-34.21,24.22-33.67,25.16.43.75,37-22.45,37.45-21.62.58,1-41.47,28.24-40.95,29.15s40.08-24.39,40.63-23.45-39.11,26.82-38.52,27.85,36.42-22.12,36.9-21.3-32.3,23.08-31.78,24c.61,1.06,35.6-21.86,36.17-20.88s-32.8,23-32.22,24,31.23-19.58,31.89-18.42c.45.78-32.88,24.1-32.37,25s38.61-23.41,39.09-22.58-43,28.72-42.23,30c.49.85,45-27.47,45.63-26.35S73.51,241.88,74.17,243c.55,1,41.36-25.17,41.92-24.2.73,1.26-42.56,28.74-41.82,30,.58,1,47.72-29.07,48.38-27.93s-45.06,30.44-44.51,31.39c.69,1.19,45.55-27.59,46.11-26.63s-40.1,27.67-39.5,28.7S126.37,228.92,127,230s-47.45,32.19-46.87,33.2c.78,1.35,53.28-32.27,53.94-31.14.75,1.3-43.91,29.54-43.14,30.87s43.79-26.91,44.49-25.69-50.85,33.08-50,34.56,53-32.44,53.77-31c.67,1.15-50.66,33.48-49.86,34.88.59,1,51.35-31.45,52.13-30.1s-48.76,32.21-48.1,33.35c.88,1.52,54.43-33.35,55.27-31.91s-55.1,36.17-54.39,37.41c.84,1.46,59-35.54,59.64-34.42.85,1.47-55.74,35.24-54.76,37,.87,1.5,54.72-33.36,55.49-32s-51,33-50.2,34.39,58.48-35.35,59.17-34.16c.84,1.45-58.59,38.08-57.76,39.51.7,1.22,54.15-33.32,55-31.77s-55.39,35.7-54.57,37.13,64.88-39.78,65.89-38-55.86,36.32-55.06,37.69c.94,1.64,57.82-35.18,58.6-33.84S115.78,304,116.65,305.53s65.83-40.39,66.87-38.6-63.4,40.08-62.59,41.49,61.25-37.42,62.14-35.88-57.4,37-56.38,38.77,64.54-39.07,65.32-37.72-67.55,42.78-66.49,44.61c1,1.65,74.65-45.55,75.71-43.72s-68.5,42.95-67.34,44.95c.93,1.61,65.26-40,66.28-38.26s-62.24,39.65-61.4,41.1c1,1.75,67.71-41.61,68.8-39.72.9,1.55-70,43.23-68.84,45.23,1,1.64,79-48.5,80.24-46.32s-69.06,43.17-67.89,45.2c.95,1.64,68.2-42.25,69.45-40.1,1,1.74-72.22,44.52-71.18,46.31,1.3,2.26,84.08-51.45,85.34-49.27s-79.18,48.61-78.06,50.55c.83,1.45,76.21-46.19,77.16-44.55S169.05,330.2,170,331.81c.78,1.35,53.51-32.49,54.2-31.3.59,1-48.09,31.28-47.28,32.68.58,1,35.76-21.79,36.26-20.93"/><path class="cls-359" d="M74.65,121.08c.6,1,47-28.95,47.75-27.57.58,1-36,25.91-35.51,26.7,1,1.82,79.52-48.74,80.75-46.62,1.1,1.91-72.44,44.83-71.33,46.76,1.22,2.12,77.1-46.57,78-45,.77,1.33-61.72,39.31-60.94,40.65,1,1.72,65.65-40.36,66.71-38.52.66,1.14-37.33,26.31-36.73,27.35C144,106,183.91,79.73,184.62,81c.25.42-16.5,14.8-16.17,15.37.23.4,24.81-14.93,25.07-14.47.37.63-20,16.59-19.76,17.06s22.62-13.82,23-13.25S179.52,101,179.86,101.6,205.71,85.93,206,86.49s-16.21,14.12-15.95,14.56,20.13-12.35,20.45-11.8-16.61,14.38-16.33,14.87S211.35,93.48,211.67,94s-17.47,14.73-17.21,15.17,27-16.31,27.3-15.76-15.69,13.86-15.39,14.37S228.3,94.34,228.65,95,209.66,111,210,111.54s21.19-12.83,21.45-12.38-18.47,15.66-18.13,16.24,24.23-14.79,24.58-14.19-17.56,15.11-17.22,15.7,24.08-14.69,24.42-14.1-13.72,13.63-13.49,14c.39.67,26.92-16.5,27.33-15.78s-25.57,19.74-25.13,20.51c.35.6,28-16.94,28.37-16.37s-19.79,16.66-19.46,17.24S270.8,105.32,271.19,106c.25.44-14.75,13.3-14.51,13.72.44.75,24-14.84,24.42-14.09.3.51-20.32,16.46-20.05,16.94s22-13.45,22.3-12.88c.23.41-14.53,13.74-14.24,14.23s15.14-9.3,15.39-8.88c.39.69-21.39,17.49-21,18.2.22.37,22-13.4,22.31-12.88s-17.39,15-17.09,15.48S287,124.56,287.32,125.1s-20.41,16.63-20.1,17.17,20.13-12.35,20.44-11.8c.42.72-24.17,19.31-23.76,20,.25.44,23.63-14.3,23.92-13.81.42.73-27,20-26.5,20.84.22.38,23.11-13.85,23.33-13.47s-19.21,15.53-18.85,16.16,17-10.42,17.23-9.95-17,14.37-16.69,14.88,19.79-12,20-11.56-21.92,17.06-21.51,17.77c.23.39,20.07-12.25,20.35-11.75S262,178,262.32,178.53s19.51-11.94,19.8-11.43S265.71,182,266,182.58c.22.38,17.23-10.52,17.48-10.09s-16.73,14.57-16.42,15.1,15.53-9.66,15.83-9.14-15.73,14.25-15.46,14.71,15.2-9.48,15.51-8.95S263.68,200,264,200.6s19.25-11.67,19.49-11.25c.37.64-19.36,16.17-19,16.78.24.41,20.28-12.39,20.58-11.88s-21.37,17.37-21,18,22.9-13.83,23.16-13.38c.46.79-25.87,19.23-25.42,20,.28.48,17.91-11.14,18.25-10.55s-24.89,19.69-24.44,20.46c.32.55,28.57-17.19,28.87-16.66.46.79-25.76,20.1-25.38,20.76s22.1-13.43,22.39-12.93c.57,1-31.29,22.35-30.88,23.06s31-18.81,31.39-18.12c.61,1.06-35.9,25.05-35.25,26.17.43.76,30-18.25,30.42-17.56.56,1-31.27,23-30.77,23.88.4.69,22.94-14.08,23.3-13.45.65,1.12-36.55,25.69-35.94,26.75.5.86,33.65-20.36,34.05-19.67.67,1.15-41.94,28.95-41.29,30.09.48.83,39.44-24.08,40-23.1.86,1.49-51.22,33.35-50.36,34.85.56,1,43.76-26.6,44.34-25.6.78,1.35-64,40.66-63.2,42s54.39-33.07,55.12-31.82"/><path class="cls-359" d="M52.18,104.9s1.39-.86,1.42-.82c.15.26-5.37,8.78-5.26,9s13.74-8.38,13.93-8-6.84,9.07-6.68,9.35c.37.65,15.47-9.73,15.82-9.13S51.68,121.13,52,121.68c.43.75,32.71-19.87,33.14-19.13.51.89-29.82,21.4-29.32,22.26.71,1.24,38.2-23.89,39-22.51.59,1-46.82,30.54-46,32s68-41.13,68.79-39.72S48.37,137.92,49.28,139.5c.28.48,24.62-14.79,24.87-14.35.38.66-25.22,19.61-24.84,20.27.22.38,17.1-10.55,17.39-10S55.38,147.7,55.58,148.06s13-8,13.18-7.62-14.51,13.75-14.22,14.25,11.75-7.48,12.05-6.95-14.1,13-13.91,13.32c.32.54,21.34-12.91,21.59-12.47.41.7-25.36,19.23-24.95,19.94.25.42,17.48-10.66,17.73-10.23s-15.73,13.79-15.46,14.26,15.15-9.34,15.41-8.89-18.32,15.94-18,16.52c.22.39,19.47-11.94,19.77-11.41s-17.27,14.95-16.93,15.54c.22.38,19.88-12.06,20.13-11.62.34.59-19.38,16.15-19,16.72.22.39,20.5-12.43,20.76-12,.37.65-25.75,19.59-25.41,20.18s22.71-13.75,23-13.27-22.51,17.78-22.15,18.41c.26.45,18-11,18.27-10.55s-14.6,13.45-14.34,13.9,16.08-9.91,16.35-9.44S56.26,209,56.52,209.46s9.88-6.38,10.17-5.87c.19.32-11.4,12.38-11.18,12.75s15.44-9.38,15.64-9-19.61,16.1-19.24,16.74c.2.34,20.73-12.57,21-12.12s-17.29,15-17,15.53,15.86-9.65,16.08-9.28c.32.56-16.76,14.82-16.43,15.38.22.38,21-12.73,21.29-12.3s-18.1,15.59-17.85,16S76.62,226.62,76.82,227,65,239.23,65.16,239.59s12.5-7.73,12.72-7.34-18,16-17.8,16.41S83,234.93,83.19,235.32s-13,12.86-12.75,13.33,12.16-7.56,12.39-7.16-18.66,15.67-18.31,16.27S84.7,245.5,85,246s-17.29,15.36-17,15.9c.18.32,17.23-10.52,17.47-10.09S71.38,265,71.6,265.35,90.73,253.71,91,254.15s-19.23,16.48-18.95,17,22.22-13.28,22.41-12.94c.31.53-18.29,15.08-17.93,15.7.25.44,16.82-10.23,17-9.84s-12.39,12-12.16,12.43,19.28-11.59,19.48-11.25c.3.52-18.79,16.33-18.49,16.85.19.34,13.58-8.42,13.83-8s-13.9,13.09-13.65,13.51,22.88-13.85,23.15-13.37S92.93,287,93.15,287.37s13.95-8.54,14.16-8.18-15,13.74-14.8,14.17,20.41-12.4,20.68-11.94-16.8,14.5-16.56,14.92,14-8.61,14.23-8.22S102,299,102.19,299.34s15.14-9.19,15.34-8.85-17.08,15.37-16.77,15.9,23.35-14.08,23.61-13.63-15.93,14.54-15.62,15.08c.22.38,11.88-7.42,12.12-7S113,310.74,113.1,311s12.52-7.82,12.77-7.38S112,316.47,112.3,316.93s22.2-13.48,22.49-13-11.62,12.15-11.38,12.57,9.74-6.27,10-5.79-13.57,12.53-13.34,12.93,24.44-14.77,24.72-14.28c.38.66-20.25,16.45-19.93,17,.21.36,23.09-13.88,23.32-13.46s-14,12.91-13.77,13.31,15.17-9.27,15.39-8.89-15.62,13.72-15.32,14.23,18.9-11.5,19.15-11.06S142.57,332.58,142.79,333s19.9-12.18,20.2-11.66-20.6,16.44-20.24,17.05,19.7-12,20-11.53c.14.24-7.66,10-7.53,10.27,1.35,2.34,95.5-58.28,96.86-55.92,1.2,2.08-94.06,57.11-92.76,59.36,1.16,2,85.58-51.94,86.68-50.05,1.31,2.29-83.08,50.29-81.78,52.54,1.12,1.94,71.62-43.8,72.68-42,.94,1.63-71.73,44.87-70.88,46.35.76,1.32,49.81-30.69,50.65-29.24"/><path class="cls-360" d="M130.54,91.48c.06.12,3.37-2.16,3.46-2s-1.28,6.51-1.2,6.64c.5.87,37.45-23,38.06-22,.42.74-27.82,20.42-27.33,21.27.63,1.08,30.12-18.73,30.7-17.72s-31.46,22.27-31,23.12,37.64-22.87,38.13-22-31.44,22.29-30.92,23.2,31.46-19.74,32.14-18.56c.46.81-36.35,24.9-35.68,26.05.49.85,45.81-27.66,46.33-26.75s-43,29-42.42,30,48.5-29.33,49.08-28.33c.66,1.15-45.95,31-45.29,32.08.53.92,43-26.44,43.68-25.22.55,1-34,24.69-33.45,25.57.4.7,21-12.87,21.33-12.31s-18.9,16.12-18.54,16.74c.1.18,2-1.5,2.16-1.25"/><path class="cls-250" d="M139.61,87.34c.35.6,24.59-15.25,25-14.46S141.57,91.4,141.89,92,172,73.48,172.47,74.31c.32.56-20.2,16.31-19.83,17,.5.86,22.84-14.26,23.3-13.46S152,96,152.38,96.64s30.29-18.4,30.68-17.71S159.2,97.11,159.61,97.81s24-15.1,24.51-14.15c.37.64-28.57,20.71-28,21.63.4.69,38-22.9,38.39-22.16S159.54,107.66,160,108.49c.32.55,27.8-16.74,28.1-16.22s-24.77,19.21-24.4,19.85c0,.06,1.68-1.08,1.73-1"/></g></g></svg>