<svg xmlns="http://www.w3.org/2000/svg" viewBox="0 0 290.97 375.31"><defs><style>.cls-1,.cls-10,.cls-100,.cls-101,.cls-102,.cls-103,.cls-104,.cls-105,.cls-106,.cls-107,.cls-108,.cls-109,.cls-11,.cls-110,.cls-111,.cls-112,.cls-113,.cls-114,.cls-115,.cls-116,.cls-117,.cls-118,.cls-119,.cls-12,.cls-120,.cls-121,.cls-122,.cls-123,.cls-124,.cls-125,.cls-126,.cls-127,.cls-128,.cls-129,.cls-13,.cls-130,.cls-131,.cls-132,.cls-133,.cls-134,.cls-135,.cls-136,.cls-137,.cls-138,.cls-139,.cls-14,.cls-140,.cls-141,.cls-142,.cls-143,.cls-144,.cls-145,.cls-146,.cls-147,.cls-148,.cls-149,.cls-15,.cls-150,.cls-151,.cls-152,.cls-153,.cls-154,.cls-155,.cls-156,.cls-157,.cls-158,.cls-159,.cls-16,.cls-160,.cls-161,.cls-162,.cls-163,.cls-164,.cls-165,.cls-166,.cls-167,.cls-168,.cls-169,.cls-17,.cls-170,.cls-171,.cls-172,.cls-173,.cls-174,.cls-175,.cls-176,.cls-177,.cls-178,.cls-179,.cls-18,.cls-180,.cls-181,.cls-182,.cls-183,.cls-184,.cls-185,.cls-186,.cls-187,.cls-188,.cls-189,.cls-19,.cls-190,.cls-191,.cls-192,.cls-193,.cls-194,.cls-195,.cls-196,.cls-197,.cls-198,.cls-199,.cls-2,.cls-20,.cls-200,.cls-201,.cls-202,.cls-203,.cls-204,.cls-205,.cls-206,.cls-207,.cls-208,.cls-209,.cls-21,.cls-210,.cls-211,.cls-212,.cls-213,.cls-214,.cls-215,.cls-216,.cls-217,.cls-218,.cls-219,.cls-22,.cls-220,.cls-221,.cls-222,.cls-223,.cls-224,.cls-225,.cls-226,.cls-227,.cls-228,.cls-229,.cls-23,.cls-230,.cls-231,.cls-232,.cls-233,.cls-234,.cls-235,.cls-236,.cls-237,.cls-238,.cls-239,.cls-24,.cls-240,.cls-241,.cls-242,.cls-243,.cls-244,.cls-245,.cls-246,.cls-247,.cls-248,.cls-249,.cls-25,.cls-250,.cls-251,.cls-252,.cls-253,.cls-254,.cls-255,.cls-256,.cls-257,.cls-258,.cls-259,.cls-26,.cls-260,.cls-261,.cls-262,.cls-263,.cls-264,.cls-265,.cls-266,.cls-267,.cls-268,.cls-269,.cls-27,.cls-270,.cls-271,.cls-272,.cls-273,.cls-274,.cls-275,.cls-276,.cls-277,.cls-278,.cls-279,.cls-28,.cls-280,.cls-281,.cls-282,.cls-283,.cls-284,.cls-285,.cls-286,.cls-287,.cls-288,.cls-289,.cls-29,.cls-290,.cls-291,.cls-292,.cls-293,.cls-294,.cls-295,.cls-296,.cls-297,.cls-298,.cls-299,.cls-3,.cls-30,.cls-300,.cls-301,.cls-302,.cls-303,.cls-304,.cls-305,.cls-306,.cls-307,.cls-308,.cls-309,.cls-31,.cls-310,.cls-311,.cls-312,.cls-313,.cls-314,.cls-315,.cls-316,.cls-317,.cls-318,.cls-319,.cls-32,.cls-320,.cls-321,.cls-322,.cls-323,.cls-324,.cls-325,.cls-326,.cls-327,.cls-328,.cls-329,.cls-33,.cls-330,.cls-331,.cls-332,.cls-333,.cls-334,.cls-335,.cls-336,.cls-337,.cls-338,.cls-339,.cls-34,.cls-340,.cls-341,.cls-342,.cls-343,.cls-344,.cls-345,.cls-346,.cls-347,.cls-348,.cls-349,.cls-35,.cls-350,.cls-351,.cls-352,.cls-353,.cls-354,.cls-355,.cls-356,.cls-357,.cls-358,.cls-359,.cls-36,.cls-360,.cls-361,.cls-362,.cls-363,.cls-364,.cls-365,.cls-366,.cls-367,.cls-368,.cls-369,.cls-37,.cls-370,.cls-371,.cls-372,.cls-373,.cls-374,.cls-375,.cls-376,.cls-377,.cls-378,.cls-379,.cls-38,.cls-380,.cls-381,.cls-382,.cls-383,.cls-384,.cls-385,.cls-386,.cls-387,.cls-388,.cls-389,.cls-39,.cls-390,.cls-391,.cls-392,.cls-393,.cls-394,.cls-395,.cls-396,.cls-397,.cls-398,.cls-399,.cls-4,.cls-40,.cls-400,.cls-401,.cls-402,.cls-403,.cls-404,.cls-405,.cls-406,.cls-407,.cls-408,.cls-409,.cls-41,.cls-410,.cls-411,.cls-412,.cls-413,.cls-414,.cls-415,.cls-416,.cls-417,.cls-418,.cls-419,.cls-42,.cls-420,.cls-421,.cls-422,.cls-423,.cls-424,.cls-425,.cls-426,.cls-427,.cls-428,.cls-429,.cls-43,.cls-430,.cls-431,.cls-432,.cls-433,.cls-434,.cls-435,.cls-436,.cls-437,.cls-438,.cls-439,.cls-44,.cls-440,.cls-441,.cls-442,.cls-443,.cls-444,.cls-445,.cls-446,.cls-447,.cls-448,.cls-449,.cls-45,.cls-450,.cls-451,.cls-452,.cls-453,.cls-454,.cls-455,.cls-456,.cls-457,.cls-458,.cls-459,.cls-46,.cls-460,.cls-461,.cls-462,.cls-463,.cls-464,.cls-465,.cls-466,.cls-467,.cls-468,.cls-469,.cls-47,.cls-470,.cls-471,.cls-472,.cls-473,.cls-474,.cls-475,.cls-476,.cls-477,.cls-478,.cls-479,.cls-48,.cls-480,.cls-481,.cls-482,.cls-483,.cls-484,.cls-485,.cls-486,.cls-487,.cls-488,.cls-489,.cls-49,.cls-490,.cls-491,.cls-492,.cls-493,.cls-494,.cls-495,.cls-496,.cls-497,.cls-498,.cls-499,.cls-5,.cls-50,.cls-500,.cls-501,.cls-502,.cls-503,.cls-504,.cls-505,.cls-506,.cls-507,.cls-508,.cls-509,.cls-51,.cls-510,.cls-511,.cls-512,.cls-513,.cls-514,.cls-515,.cls-516,.cls-517,.cls-518,.cls-519,.cls-52,.cls-520,.cls-521,.cls-522,.cls-523,.cls-524,.cls-525,.cls-526,.cls-527,.cls-53,.cls-54,.cls-55,.cls-56,.cls-57,.cls-58,.cls-59,.cls-6,.cls-60,.cls-61,.cls-62,.cls-63,.cls-64,.cls-65,.cls-66,.cls-67,.cls-68,.cls-69,.cls-7,.cls-70,.cls-71,.cls-72,.cls-73,.cls-74,.cls-75,.cls-76,.cls-77,.cls-78,.cls-79,.cls-8,.cls-80,.cls-81,.cls-82,.cls-83,.cls-84,.cls-85,.cls-86,.cls-87,.cls-88,.cls-89,.cls-9,.cls-90,.cls-91,.cls-92,.cls-93,.cls-94,.cls-95,.cls-96,.cls-97,.cls-98,.cls-99{fill:none;stroke-linecap:round;stroke-linejoin:round;stroke-width:3px;}.cls-1{stroke:#f6a871;}.cls-2{stroke:#f18c77;}.cls-3{stroke:#fcdc56;}.cls-4{stroke:#f9b13a;}.cls-5{stroke:#7e68ab;}.cls-6{stroke:#fff;}.cls-7{stroke:#6a4310;}.cls-8{stroke:#623e0f;}.cls-9{stroke:#613e0f;}.cls-10{stroke:#5e3d11;}.cls-11{stroke:#462f14;}.cls-12{stroke:#503413;}.cls-13{stroke:#5d3c11;}.cls-14{stroke:#734b12;}.cls-15{stroke:#694310;}.cls-16{stroke:#5d3d11;}.cls-17{stroke:#5f3e11;}.cls-18{stroke:#603e11;}.cls-19{stroke:#e89306;}.cls-20{stroke:#9a891a;}.cls-21{stroke:#8d6615;}.cls-22{stroke:#6e4a13;}.cls-23{stroke:#8a5f17;}.cls-24{stroke:#623210;}.cls-25{stroke:#834813;}.cls-26{stroke:#663510;}.cls-27{stroke:#855214;}.cls-28{stroke:#754a11;}.cls-29{stroke:#734a11;}.cls-30{stroke:#864a14;}.cls-31{stroke:#774c12;}.cls-32{stroke:#b36e16;}.cls-33{stroke:#875214;}.cls-34{stroke:#894f14;}.cls-35{stroke:#774a12;}.cls-36{stroke:#754711;}.cls-37{stroke:#855314;}.cls-38{stroke:#7f5415;}.cls-39{stroke:#79551b;}.cls-40{stroke:#895514;}.cls-41{stroke:#865a17;}.cls-42{stroke:#9f7b15;}.cls-43{stroke:#967315;}.cls-44{stroke:#987115;}.cls-45{stroke:#7d5c25;}.cls-46{stroke:#906715;}.cls-47{stroke:#aa8213;}.cls-48{stroke:#8c6615;}.cls-49{stroke:#986f15;}.cls-50{stroke:#996f15;}.cls-51{stroke:#ba8e10;}.cls-52{stroke:#b88c10;}.cls-53{stroke:#a07b14;}.cls-54{stroke:#cda50b;}.cls-55{stroke:#ba980d;}.cls-56{stroke:#895414;}.cls-57{stroke:#755213;}.cls-58{stroke:#6a340f;}.cls-59{stroke:#a76816;}.cls-60{stroke:#8b5f14;}.cls-61{stroke:#f5a019;}.cls-62{stroke:#f39809;}.cls-63{stroke:#9b6717;}.cls-64{stroke:#986517;}.cls-65{stroke:#83612a;}.cls-66{stroke:#bda727;}.cls-67{stroke:#bca418;}.cls-68{stroke:#6e4a14;}.cls-69{stroke:#a98c19;}.cls-70{stroke:#a98113;}.cls-71{stroke:#7d5b25;}.cls-72{stroke:#a6863f;}.cls-73{stroke:#9a6715;}.cls-74{stroke:#773b11;}.cls-75{stroke:#935615;}.cls-76{stroke:#8f5317;}.cls-77{stroke:#a96916;}.cls-78{stroke:#985b16;}.cls-79{stroke:#975a16;}.cls-80{stroke:#975a15;}.cls-81{stroke:#9b5f16;}.cls-82{stroke:#c87813;}.cls-83{stroke:#a86916;}.cls-84{stroke:#c47714;}.cls-85{stroke:#a16416;}.cls-86{stroke:#c77913;}.cls-87{stroke:#975916;}.cls-88{stroke:#724a11;}.cls-89{stroke:#684210;}.cls-90{stroke:#955c15;}.cls-91{stroke:#986115;}.cls-92{stroke:#a76d15;}.cls-93{stroke:#c9880f;}.cls-94{stroke:#a97814;}.cls-95{stroke:#a36915;}.cls-96{stroke:#a96c15;}.cls-97{stroke:#c7890f;}.cls-98{stroke:#b67814;}.cls-99{stroke:#9c6a15;}.cls-100{stroke:#83612b;}.cls-101{stroke:#82602a;}.cls-102{stroke:#be910d;}.cls-103{stroke:#ad8613;}.cls-104{stroke:#b18c11;}.cls-105{stroke:#976b15;}.cls-106{stroke:#6e4a11;}.cls-107{stroke:#704a11;}.cls-108{stroke:#9f7b14;}.cls-109{stroke:#a88315;}.cls-110{stroke:#9a7515;}.cls-111{stroke:#a37c14;}.cls-112{stroke:#ca9d08;}.cls-113{stroke:#c1930c;}.cls-114{stroke:#bb8e0f;}.cls-115{stroke:#ab8013;}.cls-116{stroke:#ca9c2e;}.cls-117{stroke:#c5960c;}.cls-118{stroke:#bd9a0b;}.cls-119{stroke:#d9b10c;}.cls-120{stroke:#eab734;}.cls-121{stroke:#a87c15;}.cls-122{stroke:#8a6114;}.cls-123{stroke:#833f13;}.cls-124{stroke:#823f13;}.cls-125{stroke:#793c11;}.cls-126{stroke:#b57215;}.cls-127{stroke:#b7891a;}.cls-128{stroke:#ab7e13;}.cls-129{stroke:#9b6715;}.cls-130{stroke:#a97418;}.cls-131{stroke:#f5a729;}.cls-132{stroke:#886936;}.cls-133{stroke:#8e7244;}.cls-134{stroke:#dac529;}.cls-135{stroke:#744e14;}.cls-136{stroke:#be900e;}.cls-137{stroke:#b18415;}.cls-138{stroke:#ae871c;}.cls-139{stroke:#f3d87f;}.cls-140{stroke:#ab7115;}.cls-141{stroke:#af7914;}.cls-142{stroke:#994b16;}.cls-143{stroke:#864714;}.cls-144{stroke:#844013;}.cls-145{stroke:#a85717;}.cls-146{stroke:#a95817;}.cls-147{stroke:#a85617;}.cls-148{stroke:#c87913;}.cls-149{stroke:#cb6d15;}.cls-150{stroke:#b57315;}.cls-151{stroke:#c66916;}.cls-152{stroke:#b46f15;}.cls-153{stroke:#a36815;}.cls-154{stroke:#d67a11;}.cls-155{stroke:#d8840d;}.cls-156{stroke:#b46e16;}.cls-157{stroke:#c87814;}.cls-158{stroke:#c67115;}.cls-159{stroke:#a85d17;}.cls-160{stroke:#d8850d;}.cls-161{stroke:#cd7e11;}.cls-162{stroke:#9e6715;}.cls-163{stroke:#b87c13;}.cls-164{stroke:#ac7b14;}.cls-165{stroke:#b68411;}.cls-166{stroke:#b67315;}.cls-167{stroke:#d4870d;}.cls-168{stroke:#c38610;}.cls-169{stroke:#d69905;}.cls-170{stroke:#d59b04;}.cls-171{stroke:#c4890f;}.cls-172{stroke:#cca105;}.cls-173{stroke:#c2990f;}.cls-174{stroke:#744e15;}.cls-175{stroke:#bd9713;}.cls-176{stroke:#b98d0f;}.cls-177{stroke:#daa703;}.cls-178{stroke:#bb8c0f;}.cls-179{stroke:#d9a934;}.cls-180{stroke:#d0ae10;}.cls-181{stroke:#eac53e;}.cls-182{stroke:#b18112;}.cls-183{stroke:#a44f17;}.cls-184{stroke:#a55117;}.cls-185{stroke:#c89b1e;}.cls-186{stroke:#d09d1a;}.cls-187{stroke:#c7991f;}.cls-188{stroke:#cc9b05;}.cls-189{stroke:#c08f0d;}.cls-190{stroke:#b28212;}.cls-191{stroke:#c3910c;}.cls-192{stroke:#b78c10;}.cls-193{stroke:#ac7e13;}.cls-194{stroke:#a47614;}.cls-195{stroke:#c89824;}.cls-196{stroke:#b6881e;}.cls-197{stroke:#ab7c13;}.cls-198{stroke:#f6ac36;}.cls-199{stroke:#9d8662;}.cls-200{stroke:#fdf099;}.cls-201{stroke:#f9dc8c;}.cls-202{stroke:#92764b;}.cls-203{stroke:#f5b857;}.cls-204{stroke:#957b52;}.cls-205{stroke:#99815b;}.cls-206{stroke:#fad52a;}.cls-207{stroke:#ead23f;}.cls-208{stroke:#e6c81d;}.cls-209{stroke:#cc9b06;}.cls-210{stroke:#cb9906;}.cls-211{stroke:#c79824;}.cls-212{stroke:#bd8d0f;}.cls-213{stroke:#d9a81f;}.cls-214{stroke:#c79a1d;}.cls-215{stroke:#c29925;}.cls-216{stroke:#edc656;}.cls-217{stroke:#ca860f;}.cls-218{stroke:#b76317;}.cls-219{stroke:#b95b18;}.cls-220{stroke:#e48706;}.cls-221{stroke:#d77a11;}.cls-222{stroke:#d47612;}.cls-223{stroke:#c99509;}.cls-224{stroke:#cd7014;}.cls-225{stroke:#c16117;}.cls-226{stroke:#c06018;}.cls-227{stroke:#cd9a05;}.cls-228{stroke:#cc6f15;}.cls-229{stroke:#bb5d18;}.cls-230{stroke:#c36a16;}.cls-231{stroke:#dd800d;}.cls-232{stroke:#d8820e;}.cls-233{stroke:#c87a14;}.cls-234{stroke:#c88610;}.cls-235{stroke:#ea9603;}.cls-236{stroke:#c8890f;}.cls-237{stroke:#d9860d;}.cls-238{stroke:#e3ad02;}.cls-239{stroke:#eab505;}.cls-240{stroke:#eeba08;}.cls-241{stroke:#cda711;}.cls-242{stroke:#967a50;}.cls-243{stroke:#feea97;}.cls-244{stroke:#e3cd78;}.cls-245{stroke:#eab732;}.cls-246{stroke:#e3ad01;}.cls-247{stroke:#daa829;}.cls-248{stroke:#edc20c;}.cls-249{stroke:#f9d419;}.cls-250{stroke:#fac739;}.cls-251{stroke:#f7c401;}.cls-252{stroke:#b98511;}.cls-253{stroke:#ba8810;}.cls-254{stroke:#b05618;}.cls-255{stroke:#b38811;}.cls-256{stroke:#ba971b;}.cls-257{stroke:#b28312;}.cls-258{stroke:#bc8c0f;}.cls-259{stroke:#c5930b;}.cls-260{stroke:#996215;}.cls-261{stroke:#ad7f13;}.cls-262{stroke:#9a6315;}.cls-263{stroke:#9d6615;}.cls-264{stroke:#b68911;}.cls-265{stroke:#bb9a23;}.cls-266{stroke:#dba925;}.cls-267{stroke:#daae20;}.cls-268{stroke:#dba926;}.cls-269{stroke:#dbaa23;}.cls-270{stroke:#ceaa28;}.cls-271{stroke:#bb9725;}.cls-272{stroke:#b48611;}.cls-273{stroke:#bc8b0f;}.cls-274{stroke:#cc9c07;}.cls-275{stroke:#ce9b05;}.cls-276{stroke:#d9a830;}.cls-277{stroke:#be8e21;}.cls-278{stroke:#ebb727;}.cls-279{stroke:#eab731;}.cls-280{stroke:#f2b044;}.cls-281{stroke:#ae9b7d;}.cls-282{stroke:#fcf3a3;}.cls-283{stroke:#f4c67a;}.cls-284{stroke:#f3c476;}.cls-285{stroke:#fee677;}.cls-286{stroke:#fee887;}.cls-287{stroke:#fdef81;}.cls-288{stroke:#eec96c;}.cls-289{stroke:#edcb77;}.cls-290{stroke:#f4bf67;}.cls-291{stroke:#a38d6b;}.cls-292{stroke:#fde03d;}.cls-293{stroke:#ebb625;}.cls-294{stroke:#d8a832;}.cls-295{stroke:#ebbb45;}.cls-296{stroke:#edc146;}.cls-297{stroke:#e8bf55;}.cls-298{stroke:#be7515;}.cls-299{stroke:#e4ac02;}.cls-300{stroke:#d07114;}.cls-301{stroke:#d49c03;}.cls-302{stroke:#d17213;}.cls-303{stroke:#c66a16;}.cls-304{stroke:#d8830e;}.cls-305{stroke:#e48607;}.cls-306{stroke:#c87015;}.cls-307{stroke:#d29b04;}.cls-308{stroke:#f29809;}.cls-309{stroke:#d87d0f;}.cls-310{stroke:#dc820d;}.cls-311{stroke:#e09806;}.cls-312{stroke:#f29709;}.cls-313{stroke:#e48606;}.cls-314{stroke:#db830d;}.cls-315{stroke:#c76a16;}.cls-316{stroke:#c7a212;}.cls-317{stroke:#b89515;}.cls-318{stroke:#d49c11;}.cls-319{stroke:#c4910c;}.cls-320{stroke:#ce9907;}.cls-321{stroke:#f2a405;}.cls-322{stroke:#f19f06;}.cls-323{stroke:#f29908;}.cls-324{stroke:#e28c07;}.cls-325{stroke:#ed9b04;}.cls-326{stroke:#ec9a04;}.cls-327{stroke:#f29d07;}.cls-328{stroke:#eb9e03;}.cls-329{stroke:#f7c400;}.cls-330{stroke:#ebb618;}.cls-331{stroke:#9d8661;}.cls-332{stroke:#967b52;}.cls-333{stroke:#fdf189;}.cls-334{stroke:#fee869;}.cls-335{stroke:#fee888;}.cls-336{stroke:#fee578;}.cls-337{stroke:#fee577;}.cls-338{stroke:#fddd67;}.cls-339{stroke:#fee868;}.cls-340{stroke:#fee678;}.cls-341{stroke:#fce48b;}.cls-342{stroke:#feea98;}.cls-343{stroke:#fde16e;}.cls-344{stroke:#fbdc77;}.cls-345{stroke:#f1bc0a;}.cls-346{stroke:#efba35;}.cls-347{stroke:#e8b43c;}.cls-348{stroke:#eab843;}.cls-349{stroke:#e9b52f;}.cls-350{stroke:#e8b205;}.cls-351{stroke:#eab733;}.cls-352{stroke:#fdd20a;}.cls-353{stroke:#fcd955;}.cls-354{stroke:#f9cb06;}.cls-355{stroke:#fbc744;}.cls-356{stroke:#c6890f;}.cls-357{stroke:#c99a09;}.cls-358{stroke:#9c6615;}.cls-359{stroke:#bc9c27;}.cls-360{stroke:#ceaa29;}.cls-361{stroke:#cdaa2a;}.cls-362{stroke:#cca92a;}.cls-363{stroke:#c4920c;}.cls-364{stroke:#cb9807;}.cls-365{stroke:#cd9c06;}.cls-366{stroke:#d49d03;}.cls-367{stroke:#e8c837;}.cls-368{stroke:#ebb626;}.cls-369{stroke:#dab72b;}.cls-370{stroke:#d9a703;}.cls-371{stroke:#e9b405;}.cls-372{stroke:#c5900c;}.cls-373{stroke:#c4930b;}.cls-374{stroke:#d59e03;}.cls-375{stroke:#fac82c;}.cls-376{stroke:#fac738;}.cls-377{stroke:#fac637;}.cls-378{stroke:#fac639;}.cls-379{stroke:#f3bc38;}.cls-380{stroke:#fee778;}.cls-381{stroke:#f4bd66;}.cls-382{stroke:#eec972;}.cls-383{stroke:#fde868;}.cls-384{stroke:#f4ea67;}.cls-385{stroke:#eac465;}.cls-386{stroke:#f1bb22;}.cls-387{stroke:#e4aa18;}.cls-388{stroke:#efb922;}.cls-389{stroke:#ebb834;}.cls-390{stroke:#f0ba24;}.cls-391{stroke:#e3ab27;}.cls-392{stroke:#efbb36;}.cls-393{stroke:#eab845;}.cls-394{stroke:#e6b003;}.cls-395{stroke:#e6af03;}.cls-396{stroke:#e7b104;}.cls-397{stroke:#dba803;}.cls-398{stroke:#d8a604;}.cls-399{stroke:#e4ad02;}.cls-400{stroke:#cfad17;}.cls-401{stroke:#dbb20f;}.cls-402{stroke:#c6a417;}.cls-403{stroke:#c7a516;}.cls-404{stroke:#d4b51a;}.cls-405{stroke:#e99204;}.cls-406{stroke:#ea9504;}.cls-407{stroke:#daa81a;}.cls-408{stroke:#dab629;}.cls-409{stroke:#bb9a26;}.cls-410{stroke:#e3ac02;}.cls-411{stroke:#f1bc09;}.cls-412{stroke:#f2bd09;}.cls-413{stroke:#f19a07;}.cls-414{stroke:#f6cc13;}.cls-415{stroke:#facc05;}.cls-416{stroke:#fcd943;}.cls-417{stroke:#fee574;}.cls-418{stroke:#fcd957;}.cls-419{stroke:#fcdb63;}.cls-420{stroke:#fde363;}.cls-421{stroke:#fcda66;}.cls-422{stroke:#fcde78;}.cls-423{stroke:#fbdc79;}.cls-424{stroke:#fee762;}.cls-425{stroke:#fcda4a;}.cls-426{stroke:#fcd83c;}.cls-427{stroke:#f3bc37;}.cls-428{stroke:#fac638;}.cls-429{stroke:#f8d319;}.cls-430{stroke:#fbd64c;}.cls-431{stroke:#f5c035;}.cls-432{stroke:#f8cd55;}.cls-433{stroke:#fcd959;}.cls-434{stroke:#daa803;}.cls-435{stroke:#b48a11;}.cls-436{stroke:#cdb232;}.cls-437{stroke:#ccb131;}.cls-438{stroke:#dec33a;}.cls-439{stroke:#b69313;}.cls-440{stroke:#9a6415;}.cls-441{stroke:#cb9d06;}.cls-442{stroke:#cdb130;}.cls-443{stroke:#ddc339;}.cls-444{stroke:#e8c937;}.cls-445{stroke:#d9b72c;}.cls-446{stroke:#fcd83b;}.cls-447{stroke:#e7c72c;}.cls-448{stroke:#f1bd09;}.cls-449{stroke:#dcb20c;}.cls-450{stroke:#eec30c;}.cls-451{stroke:#fac737;}.cls-452{stroke:#fac82e;}.cls-453{stroke:#fcd83f;}.cls-454{stroke:#fbcf31;}.cls-455{stroke:#fad22d;}.cls-456{stroke:#fcd954;}.cls-457{stroke:#feec89;}.cls-458{stroke:#feee80;}.cls-459{stroke:#fee988;}.cls-460{stroke:#feea79;}.cls-461{stroke:#f4bc63;}.cls-462{stroke:#fee957;}.cls-463{stroke:#e5b953;}.cls-464{stroke:#ebb620;}.cls-465{stroke:#ea9505;}.cls-466{stroke:#d89d13;}.cls-467{stroke:#f29909;}.cls-468{stroke:#e39b0e;}.cls-469{stroke:#dcc11f;}.cls-470{stroke:#d5b518;}.cls-471{stroke:#c59a09;}.cls-472{stroke:#e7c818;}.cls-473{stroke:#dec31f;}.cls-474{stroke:#e5aa17;}.cls-475{stroke:#e7c730;}.cls-476{stroke:#e5ae02;}.cls-477{stroke:#fcd947;}.cls-478{stroke:#fcdc48;}.cls-479{stroke:#fcd951;}.cls-480{stroke:#fad255;}.cls-481{stroke:#fad150;}.cls-482{stroke:#fcda5c;}.cls-483{stroke:#ead03c;}.cls-484{stroke:#ead343;}.cls-485{stroke:#ead03d;}.cls-486{stroke:#fee64a;}.cls-487{stroke:#fde041;}.cls-488{stroke:#fde03f;}.cls-489{stroke:#fcd945;}.cls-490{stroke:#fde54a;}.cls-491{stroke:#fde24b;}.cls-492{stroke:#f4c404;}.cls-493{stroke:#f4c403;}.cls-494{stroke:#edc30c;}.cls-495{stroke:#f3c304;}.cls-496{stroke:#f5c402;}.cls-497{stroke:#eec30b;}.cls-498{stroke:#ebb606;}.cls-499{stroke:#e7c919;}.cls-500{stroke:#fac843;}.cls-501{stroke:#fdf07b;}.cls-502{stroke:#fce965;}.cls-503{stroke:#f3b345;}.cls-504{stroke:#f3b244;}.cls-505{stroke:#f8cb54;}.cls-506{stroke:#fac744;}.cls-507{stroke:#fcd948;}.cls-508{stroke:#f6a11b;}.cls-509{stroke:#eb9505;}.cls-510{stroke:#e4aa19;}.cls-511{stroke:#da9d14;}.cls-512{stroke:#ebd423;}.cls-513{stroke:#f4cb11;}.cls-514{stroke:#edd21b;}.cls-515{stroke:#edcb16;}.cls-516{stroke:#fddf3f;}.cls-517{stroke:#ebbc46;}.cls-518{stroke:#f4bf34;}.cls-519{stroke:#fbd136;}.cls-520{stroke:#eab631;}.cls-521{stroke:#f8d419;}.cls-522{stroke:#fbd52c;}.cls-523{stroke:#fbd52d;}.cls-524{stroke:#878787;opacity:0.2;}.cls-525{stroke:#c3bfe1;}.cls-526{stroke:#ffdc57;}.cls-527{stroke:#fac838;}</style></defs><g id="Слой_2" data-name="Слой 2"><g id="Слой_1-2" data-name="Слой 1"><path class="cls-1" d="M179,60.2s1.71-1.06,1.74-1c.16.27-5.7,9-5.59,9.16.23.4,18.25-11.16,18.52-10.69s-11.51,11.61-11.27,12c.75,1.31,37.55-23.29,38.24-22.08S181,74.35,181.57,75.39c.81,1.42,61.61-37.44,62.42-36S191,73.3,191.88,74.77s47.6-29.7,48.57-28c.51.88-40.19,27-39.46,28.22.47.81,43.63-26.33,44.12-25.47"/><path class="cls-2" d="M207.61,66.49c.15.27,9.79-6.11,10-5.77.37.65-19.17,16.38-18.89,16.86.45.78,33.91-20.84,34.46-19.9s-30.24,21.74-29.71,22.66c.75,1.3,37.38-23.19,38.07-22S202.17,84.93,202.76,86s49.17-29.87,49.81-28.76-39.69,26.76-39,27.88c.79,1.36,42.64-26.64,43.52-25.12.55,1-43.75,28.89-43,30.25.61,1.06,55.63-33.63,56.28-32.5S222,89.6,222.69,90.72C223.43,92,278.43,57,279.11,58.14S231.69,89.9,232.37,91.06c.57,1,46-28.29,46.74-27,.48.83-29.45,22.23-29,23,.66,1.15,38-23.14,38.5-22.23.35.6-26.75,20.36-26.26,21.2s26.57-16.62,27.12-15.66"/><path class="cls-1" d="M56.82,35.71s.73-.45.74-.43c.14.25-4.69,8.41-4.59,8.6S61.1,39,61.2,39.12s-1,5.87-.9,6c.18.32,4.37-2.91,4.54-2.62s-6.93,8.91-6.78,9.15,14-8.5,14.17-8.18-8,9.58-7.86,9.88,9-5.88,9.33-5.39c.19.33-12.92,12.29-12.65,12.75s23.32-14,23.55-13.6S66.41,62.49,66.68,63,91.25,48.18,91.5,48.62s-18.29,15.83-18,16.32,16.36-10.09,16.64-9.61c.13.23-4.54,8.61-4.42,8.81.28.49,13-8,13.25-7.65s-8.8,10.66-8.6,11,13.17-8.36,13.49-7.79c.2.33-10.53,11-10.38,11.28.37.65,24.73-15,25-14.45S94.94,74.79,95.33,75.46,118,61.66,118.27,62.21s-15.92,13.9-15.65,14.38,15.34-9.45,15.6-9c.16.27-8.73,10.74-8.54,11.07s10.19-6.22,10.34-6"/><path class="cls-2" d="M1.5,67c0,.06.85-.6.9-.52s.45,5.54.51,5.65c.25.42,19.56-12,19.86-11.47.18.32-9.67,10.61-9.47,11,.47.8,20.69-12.93,21.12-12.19S12.78,76.34,13.13,76.94c.45.79,34.09-20.71,34.54-19.94S20.46,77,20.91,77.79c.63,1.07,32.27-20.23,33-19,.46.79-35.77,24.59-35.12,25.72C19.29,85.41,68,54.71,68.6,55.7S24.38,85.33,25,86.36c.69,1.2,52.55-31.81,53.19-30.71S31.41,87,32.08,88.19c.55,1,44.34-27.28,45.06-26,.51.87-31,23.06-30.5,23.87C47.29,87.17,84,63.3,84.47,64.19c.4.69-30.59,22.45-30,23.39S85.78,68,86.41,69.12c.41.7-25.66,19.35-25.34,19.91C61.63,90,96.53,67.51,97,68.3S67.1,90,67.58,90.81c.34.58,24.26-14.8,24.61-14.21.22.38-11.76,11.64-11.55,12S93.74,80.53,94,80.92c.08.13-1.07,6.55-1,6.71s4.22-2.55,4.27-2.47"/><path class="cls-3" d="M148.42,2.37s1.48-.91,1.5-.87c.17.29-7.5,10.22-7.37,10.45s7.89-5,8.07-4.66c.32.55-19,15.78-18.63,16.34S155.35,9.55,155.6,10"/><path class="cls-3" d="M93.5,11.75s.71-.44.73-.42c.14.25-4.68,8.4-4.58,8.58s7.94-4.8,8-4.63-.88,5.8-.79,6,4-2.66,4.13-2.38-7.89,9.42-7.73,9.69S107.83,19.71,108,20,96.9,31.31,97.11,31.68s11.51-7.4,11.84-6.83S89.74,40.52,90.12,41.17c.28.49,28.74-17.3,29.05-16.78s-29,21.29-28.61,22,34.28-20.68,34.66-20c.52.89-35.15,25-34.64,25.93.4.68,31.62-19.47,32.15-18.56.43.75-26.29,20.5-25.89,21.2,1,1.79,62.44-37.95,63.26-36.52S94.69,59.66,95.8,61.58c.86,1.49,64.15-39.77,65.33-37.72,1,1.77-68,42.69-67.2,44.09,1.28,2.2,76.66-46.64,77.69-44.86,1.22,2.12-82.29,50.18-81.05,52.33,1,1.79,75.71-46.12,76.76-44.31,1.13,2-73.54,45.22-72.42,47.15,1.46,2.54,105.33-64.32,106.85-61.69C203.11,18.9,101.34,76.94,103,79.75c1.19,2.07,99-60.88,100.58-58.07,1.53,2.65-89.31,53.79-87.78,56.44,1.06,1.83,89.76-54.61,91-52.52s-81.23,49.78-80,51.91c1,1.68,80.62-49.05,81.71-47.17s-77.79,48.21-76.83,49.87c1.09,1.9,73.35-44.77,74.4-43,.95,1.64-64.81,40.82-63.85,42.48.84,1.47,59.19-35.94,60-34.61.57,1-47.23,31.2-46.5,32.47s47.76-29.3,48.5-28c.65,1.11-37.35,25.42-36.7,26.56s33.29-20.85,34-19.63c.37.63-25.79,20.23-25.38,20.94S204.84,60,205.2,60.62s-24.72,18.86-24.26,19.64c.24.43,24.58-14.94,24.9-14.38.22.38-12.64,12.48-12.4,12.89.14.24,10.08-6.15,10.22-5.9s-3.1,6.83-3,7c0,0,6.39-3.75,6.41-3.71"/><path class="cls-4" d="M148.09,35.59c0,.08,1.8-1.19,1.86-1.08"/><path class="cls-4" d="M91.1,65.14c0,.06.89-.63.94-.54S89.51,71.81,89.59,72c.82,1.42,59.71-36.76,60.7-35,.8,1.38-54.37,34.78-53.46,36.36C97.89,75.1,152,39.17,153,40.86S93.31,78.49,94.2,80s64.46-39.17,65.31-37.71-53.11,34-52.26,35.51,51.87-32.34,52.91-30.54c.64,1.11-51.4,33-50.48,34.59.67,1.15,59.92-36.24,60.63-35S118.9,80.43,119.59,81.62s56.24-34.06,56.93-32.87-47.32,31.7-46.65,32.87c.55.94,43.9-27,44.62-25.77.46.8-28,21.42-27.53,22.16.62,1.07,35.16-21.44,35.65-20.59.35.61-26.73,20.36-26.24,21.2s29.7-18.55,30.3-17.5c.38.65-23.32,18.07-23,18.58.57,1,36-21.88,36.51-21.08s-30.79,22.18-30.3,23c.4.69,29.13-17.76,29.54-17.06.32.55-18.34,15.22-18,15.76s20-12.31,20.33-11.74c.21.36-12.52,12.8-12.27,13.23.15.27,13.86-8.49,14.07-8.13.1.17-1.37,6.33-1.27,6.5s4.43-2.65,4.47-2.58"/><path class="cls-5" d="M12.41,88.94s1.39-.85,1.41-.81c.15.26-5.37,8.78-5.26,9s13.62-8.31,13.82-8-6.74,9-6.58,9.3c.37.63,15.07-9.48,15.41-8.9s-19.32,15.67-19,16.21c.43.73,31.73-19.27,32.14-18.55S15.54,108,16,108.88c.68,1.17,36-22.56,36.78-21.24C53.37,88.61,8.22,117,9,118.36c.7,1.22,62.88-38,63.63-36.73s-64,40.48-63.18,41.94c1.12,2,81.56-49.48,82.6-47.69,1.17,2-83.74,51.6-82.58,53.61,1.62,2.81,132.87-81.68,135-78C146.49,55,13.92,129,15.75,132.13c2.13,3.7,134.26-81.43,136-78.49s-139.32,81.13-137,85.14c1.75,3,137.49-85,139.91-80.78,2.11,3.66-143.45,84.26-141.78,87.14,2.57,4.46,151.93-92.53,154-88.92,2.34,4-159.75,92.28-157.38,96.4,2.07,3.58,153-93.14,155-89.51,2.36,4.08-155.09,89.53-152.78,93.55,2.15,3.71,155.35-94.82,157.57-91S6.55,159.77,9.16,164.29c2,3.46,164.93-101.51,167.66-96.8C179.65,72.4,9.15,163.5,12,168.42c2,3.52,171.22-104.23,173.54-100.2C188.25,72.92,10.45,169,13.06,173.53c2.16,3.75,177.41-108,179.84-103.83S6.15,177.82,8.4,181.72c2.88,5,184.94-113.1,187.68-108.36S6.49,182.12,9.23,186.86,195.69,73.65,198.1,77.82C200.28,81.59,10.16,185.49,13,190.33c3.13,5.42,190.37-116.58,193.26-111.58,3.16,5.47-194,109.91-190.74,115.49,3,5.13,190.63-118,194.07-112,2.52,4.37-199.21,114.68-196.34,119.65,2.61,4.53,205-124.14,207.49-119.8S4.92,204,8.52,210.18c2.57,4.45,216.32-132.7,219.7-126.84,3,5.27-219.42,124.77-216.11,130.5,2.9,5,218.33-132.79,221.25-127.74C237,92.48,7.58,213.7,11.32,220.18c3,5.28,229.92-140.71,233.37-134.74,2.87,5-233.06,134-230.35,138.69C18,230.45,248.23,82.28,251.18,87.39,254,92.3,16.76,221,20.05,226.72s236-143.93,239.33-138.18C262.8,94.45,11.61,231.07,14.49,236.07,18.67,243.29,269.16,81,272.66,87c4.11,7.12-252.48,142.05-248.29,149.32,4,6.86,252.56-154.58,256.36-148C284.29,94.49,13.66,238.23,18,245.72S280.57,84.21,284.85,91.63c3.37,5.84-268,151.4-263.93,158.48C24,255.37,279,91.85,283,98.81S20.64,248,24.05,253.89c4.37,7.57,258-158.59,262.17-151.37C290,109.12,20.61,254.21,23.94,260,28,267,284,102.64,287.07,108,291,114.78,23.39,255.2,27.91,263,32,270,280.16,109.09,283.75,115.31c3.81,6.6-255.41,143.82-251.49,150.6C35.8,272,285.35,112.57,288.48,118c3.57,6.18-259.4,147.75-255.86,153.88,3.07,5.31,244.21-150,248.11-143.24S28.58,271.45,32.21,277.74C35.71,283.8,283,123.13,287.28,130.47S38.76,272,42.16,277.89c3.84,6.66,240.33-146,243.47-140.57,3.45,6-248.23,140.91-244.75,146.93,3.66,6.35,243.4-149.79,247.41-142.84S41.29,282.26,44.38,287.59C47.71,293.37,279.43,144.18,282.77,150,286.38,156.21,45.1,284,49.18,291c3.46,6,233.62-141.3,236.4-136.48,2.94,5.09-242.3,137.63-238.63,144,3.25,5.63,237.83-145.65,241.44-139.39,3.41,5.91-238.15,134.54-234.25,141.31,3,5.25,223.3-136.63,226.64-130.85,3.73,6.46-226,129.34-223.07,134.45,3.14,5.45,220.68-135.28,224.09-129.38,2.87,5-229.36,129.38-225.67,135.78,2.84,4.92,226.8-139.67,230.58-133.13S62.65,304.17,66.34,310.56c2.74,4.75,210.86-130,214.45-123.82,3,5.22-221.69,126-218.59,131.42,3.64,6.3,222.34-136.48,225.85-130.39C291.8,194.26,63,316,66.1,321.4c2.5,4.33,218-132.46,220.86-127.51S71.72,316.57,74.73,321.78c2.91,5,206.74-125.29,209.3-120.85S70.36,321.69,73.82,327.68,279.85,202,282.75,207.06C286,212.63,77.8,324.31,80.94,329.76c3,5.1,200.91-123.38,204.1-117.84,3,5.25-208.44,118.29-205.22,123.86,2.91,5.05,195.7-119.27,198.42-114.56,2.36,4.09-189.6,109.94-187.24,114,2.6,4.49,186.33-113.64,189-109.09C282.32,230.26,91.22,335,93.79,339.44S277.56,227.9,279.91,232c2.9,5-185.37,105.75-182.51,110.7S276,233.34,278.71,238c2.35,4.07-183,106.17-180.9,109.87,2.7,4.68,171.83-106.1,174.81-100.93,2.3,4-171.9,99.78-169.51,103.92,2.82,4.87,161-99.11,163.67-94.49,2.14,3.7-158,92.12-156.17,95.37,2.64,4.57,152.24-92.12,154.07-88.95,2.24,3.87-150.3,87.89-148.11,91.69s139.81-86.57,142.34-82.18c2.16,3.74-143.58,83-141.36,86.85s142.24-86.09,144-83.12S120.15,359,122.3,362.67c1.84,3.17,128.45-78.77,130.44-75.31C254.28,290,125.52,362,127.39,365.22c1.56,2.71,116.48-70.36,117.83-68,1.88,3.26-113.28,67.28-111.66,70.09,1.45,2.5,103.71-63.76,105.39-60.85,1.2,2.07-96.22,59.1-95,61.19,1.06,1.83,79.44-49.13,80.85-46.68s-82.9,50.89-81.78,52.82c.78,1.37,65.05-39.38,65.84-38"/><path class="cls-6" d="M33.39,104.72s1.39-.85,1.41-.81c.16.26-5.37,8.78-5.26,9s13.71-8.37,13.9-8-6.82,9.07-6.66,9.35c.38.64,15.44-9.71,15.78-9.11S32.87,121,33.19,121.52c.43.75,32.63-19.83,33.06-19.09S36.5,123.8,37,124.66c.71,1.23,38.05-23.81,38.84-22.43.59,1-46.68,30.46-45.84,31.91S97.69,93.19,98.5,94.6s-69,43.18-68,44.75c1.71,3,120.83-73.4,122.41-70.67,1.72,3-124.1,73.64-122.39,76.59,1.44,2.49,117.9-72.47,119.81-69.17,1.75,3-115.17,69-113.55,71.82,1.91,3.3,119.38-72.44,120.9-69.81S33.62,151,35.69,154.56c1.58,2.73,122.87-75.95,125-72.2,1.89,3.28-128.41,76-126.91,78.56,2.32,4,137.47-83.71,139.35-80.45,2.12,3.67-144.88,84.19-142.72,87.93,1.88,3.25,138.72-84.48,140.62-81.18,2.14,3.7-140.46,81.58-138.36,85.22,2,3.39,141.4-86.31,143.42-82.81s-148.38,86.31-146,90.44C32,183.25,181.52,86.9,184,91.23c2.6,4.5-153.65,88.46-151,93C34.84,187.44,191,88,193.14,91.72c2.51,4.34-161.51,93.42-159.1,97.59C36.05,192.78,198.73,89,201,92.92S27.29,193.87,29.38,197.5c2.69,4.64,172.76-105.64,175.31-101.22S27.65,198.21,30.21,202.64,205.09,96.46,207.35,100.37c2,3.54-175.83,101.09-173.21,105.63,3,5.11,179.37-109.85,182.09-105.13,3,5.12-181.65,103.26-178.63,108.49,2.8,4.85,179.58-111.17,182.82-105.55,2.37,4.1-186.52,107.78-183.84,112.43C39.06,220.53,230.4,98.86,232.77,103S29.6,218.09,33,224c2.44,4.22,205.46-126,208.67-120.47,2.88,5-207.81,118.46-204.67,123.89,2.77,4.8,208.69-126.92,211.47-122.1,3.52,6.1-215.4,122-211.83,128.2,2.94,5.09,222-135.89,225.37-130.12,2.77,4.79-224.54,129.31-221.94,133.82,3.47,6,222.59-135,225.4-130.13,2.69,4.66-222.36,127.05-219.23,132.47,2.93,5.08,215.52-131.45,218.56-126.19S38.5,244,41.13,248.58c3.66,6.33,223.94-136.38,227-131.06,3.59,6.22-220.32,124.7-216.66,131.05,3.32,5.75,211.08-129.22,214.26-123.71,3,5.19-223.81,126.54-220.18,132.82S262.28,124.42,265.81,130.53C268.58,135.33,45.66,256,49,261.78,51.51,266.09,260.65,132,263.94,137.7S49.85,260.46,52.63,265.28c3.57,6.18,211.14-129.76,214.55-123.87C270.29,146.81,50.35,266.33,53.07,271c3.29,5.7,212.43-128.49,215-124.11,3.16,5.49-214.16,120.51-210.49,126.87,3.28,5.68,204.26-124.63,207.16-119.6,3.08,5.32-205.44,116.73-202.28,122.2,2.85,4.93,204.49-123.89,207-119.52,2.88,5-208.89,120.16-206,125.12,2.46,4.25,195.16-119.9,198.29-114.48s-201,115-198.12,120c2.8,4.83,201.29-124,204.66-118.16S71.46,282.65,74.15,287.31c3,5.27,190-115.41,192.43-111.1,2.73,4.73-195.82,112.33-193.07,117.1,2.89,5,192.57-118.48,195.73-113s-194,111.78-191.61,116c2.61,4.52,183.48-112,186.09-107.44,2.8,4.85-183.7,105-180.54,110.44,2.69,4.65,181.19-109.59,183.35-105.85,2.28,3.95-187.64,108-184.79,112.9,2.5,4.33,184.82-113.13,187.6-108.31C272,202.58,86.72,302.59,89.73,307.8c2.3,4,168.77-103.31,171.31-98.91,2.8,4.86-169.19,98.22-167,102.06,2.36,4.08,164.1-100.63,166.65-96.22,2.14,3.71-170.2,97.4-167.45,102.17,2.09,3.61,168-103.41,170.79-98.61s-162.37,93.55-159.68,98.2c2,3.41,149.14-92.06,151.71-87.6,2.15,3.72-157.25,90.9-155,94.74,2.55,4.4,157.76-96.77,160.22-92.5,2.63,4.56-157.63,91.41-155.43,95.22,1.7,2.94,149.83-91,151.77-87.63s-144.25,84-142.23,87.48c1.91,3.3,134.72-81.67,136.4-78.76s-138.6,80.19-136.34,84.11c2.15,3.71,130.21-79.4,132-76.23,2,3.44-125.7,74.26-123.76,77.63,1.77,3.06,120.87-74.2,122.78-70.88,1.83,3.16-124.77,72.92-122.83,76.28,1.65,2.86,111.08-67.68,112.61-65,1.28,2.21-101.45,61.54-100.17,63.76S232,278.59,233.34,281c1.2,2.08-94.45,57.32-93.15,59.58,1.17,2,86-52.19,87.09-50.29,1.33,2.3-83.5,50.52-82.2,52.79,1.13,1.95,72.1-44.09,73.16-42.24.95,1.64-72.22,45.14-71.36,46.63.77,1.33,50.48-31.1,51.33-29.63"/><path class="cls-7" d="M67.25,190.61s.18-.18.21-.12-1.8,6.81-1.72,6.94S75,191.81,75.11,192s-5.69,8.44-5.54,8.7S73.93,198,74,198.16s-4.73,7.7-4.62,7.9,3.89-2.36,3.94-2.27-3.88,7.31-3.76,7.51,3.84-2.38,3.91-2.26-7.45,9.33-7.27,9.64c0,.1,9.75-5.76,9.81-5.66.15.26-9.52,10.6-9.36,10.87s12-7.1,12.07-7c.21.37-12.26,12.53-12,12.89.1.18,7.4-4.59,7.54-4.35s-1.37,6.85-1.28,7,3-1.94,3.06-1.76"/><path class="cls-8" d="M69.52,235.46s1.46-.9,1.48-.86"/><path class="cls-8" d="M75.19,225s0-.07,0,0-1.62,6.7-1.54,6.83,3.75-2.22,3.77-2.18"/><path class="cls-9" d="M69.59,187.58s1.47-.91,1.5-.86"/><path class="cls-10" d="M70,236.37s1-.6,1-.57"/><path class="cls-11" d="M220.3,187.7s1.38-.85,1.41-.81c.13.24-4.26,8.17-4.16,8.35s9.74-5.92,9.86-5.7-5.27,8.22-5.13,8.47,3.71-2.51,3.87-2.24-7.6,9.27-7.45,9.53,9.94-6,10.07-5.81-6.37,8.68-6.22,8.93,2.5-1.84,2.67-1.54-10,10.7-9.76,11.09c.12.21,15.29-9.14,15.42-8.91.22.38-15.34,13.79-15.11,14.19s16.45-9.82,16.59-9.58c.25.43-15.15,14.11-14.9,14.54.1.18,7.31-4.53,7.44-4.3"/><path class="cls-11" d="M186.4,229s.11-.15.15-.09-1.74,6.77-1.66,6.91c.17.3,14.76-9,15-8.65.1.18-3.35,7.17-3.24,7.37.3.52,11.23-7.12,11.5-6.64.15.26-6.17,8.49-6,8.72s16.55-10.05,16.77-9.68c.11.21-3.85,7.3-3.73,7.5s0-.28.09-.05"/><path class="cls-11" d="M156.46,238.92c0,.05.1-.13.13-.07s-1.72,6.76-1.64,6.89c.17.3,14.42-8.81,14.63-8.44.09.16-3,7-2.91,7.17.3.51,10.89-6.91,11.16-6.44.14.25-5.83,8.3-5.7,8.52.22.38,16.48-10,16.69-9.63.12.2-3.75,7.24-3.63,7.44s0-.28.09-.06"/><path class="cls-11" d="M126.73,248.87s.11-.14.14-.08-1.74,6.77-1.66,6.9c.17.3,14.44-8.82,14.65-8.46.1.17-3,7-2.89,7.17.3.52,11.2-7.11,11.48-6.63.15.27-6.16,8.48-6,8.72s16.24-9.87,16.46-9.51-7.23,9.15-7.07,9.43,7.07-4.37,7.19-4.16"/><path class="cls-11" d="M107.77,262.12c0,.06.88-.62.93-.54s-1.83,6.82-1.75,7c.24.42,19.34-11.85,19.64-11.34.09.17-3,7-2.89,7.16s2.47-1.74,2.61-1.5"/><path class="cls-12" d="M126.76,248.88s6.62-3.83,6.63-3.82c.1.17-4.68,7.67-4.54,7.9,0,0,.44-.27.44-.26"/><path class="cls-12" d="M115.22,258.31c0,.05.41-.33.45-.26.16.27,11.82-1.7,11.94-1.49,0,0,1.66-1,1.68-1"/><path class="cls-12" d="M106.48,260.22s.11-.15.15-.09-1.79,6.79-1.71,6.93,3.67-2.17,3.69-2.13"/><path class="cls-13" d="M96.15,247.36S98,246.23,98,246.28s.16,6,.23,6.07,1.2-.74,1.22-.71"/><path class="cls-13" d="M89.21,247.23s1.62-1,1.64-.95c.16.27-5.56,8.89-5.44,9.09,0,0,3.31-2,3.32-1.92s4.45,2.76,4.53,2.89,1.4-.86,1.42-.82"/><path class="cls-13" d="M99.18,257.22s1.62-1,1.65-1c.15.27-5.57,8.89-5.46,9.1,0,0,3.34-2,3.36-1.94s4.46,2.75,4.53,2.88,1.41-.87,1.43-.83"/><path class="cls-13" d="M79.24,237.28s1.68-1,1.71-1c.16.27-5.62,8.92-5.51,9.12,0,0,3.33-2,3.35-1.93s4.5,2.72,4.58,2.85,1.38-.84,1.4-.81"/><path class="cls-14" d="M74.83,189.5c0,.05.34-.28.37-.21.15.26-5.17,8.67-5.06,8.87s6-3.6,6-3.49-3.17,7.07-3.06,7.27,1.72-1.06,1.75-1-2.23,6.32-2.15,6.47,1.81-1.1,1.83-1.06-1.33,5.92-1.25,6.07,1.41-.87,1.44-.83S70.88,219,71,219.18c0,0,7.17-4.2,7.2-4.15"/><path class="cls-10" d="M166.84,149.5c0,.05.24-.23.28-.16s-1.88,6.85-1.8,7c.17.31,14.54-8.88,14.75-8.51.1.17-3.37,7.18-3.26,7.38.27.46,9.26-5.92,9.5-5.49.12.21-4.15,7.38-4,7.57s6.57-4,6.66-3.85"/><path class="cls-15" d="M208,181.48c0,.08,1.32-.89,1.38-.79s-2,6.89-1.88,7,8.55-5.19,8.66-5"/><path class="cls-16" d="M114,167.82s1.75-1.08,1.78-1c.12.2,8.82.89,8.92,1.05s1.73-1.07,1.76-1,5.49,2.22,5.57,2.36,3.51-2.07,3.53-2"/><path class="cls-16" d="M107,169.38c0,.05.25-.23.29-.17s-1.89,6.86-1.81,7,3.54-2.1,3.56-2.06"/><path class="cls-16" d="M143.94,157.88s1.75-1.07,1.78-1,8.83.87,8.92,1,1.73-1,1.76-1,5.5,2.22,5.58,2.36,3.49-2.06,3.51-2"/><path class="cls-16" d="M136.9,159.42s.21-.2.24-.14-1.79,6.8-1.71,6.93,3.48-2.05,3.5-2"/><path class="cls-10" d="M198.77,167.75s1.43-.88,1.45-.84c.16.26-5.4,8.8-5.29,9s12.4-7.56,12.58-7.26c.08.14-1.88,6.36-1.78,6.52s.39-.46.5-.28"/><path class="cls-17" d="M188.81,158s1.77-1.1,1.8-1c.16.27-5.76,9-5.64,9.2s12.4-7.56,12.58-7.26-4.62,7.86-4.48,8.09,5.86-3.61,6-3.45"/><path class="cls-13" d="M84.09,177.76s1.75-1.07,1.77-1,8.84.87,8.93,1,1.73-1.05,1.76-1,5.5,2.22,5.58,2.36,3.48-2.06,3.5-2"/><path class="cls-13" d="M77,179.3s.21-.2.24-.14-1.8,6.8-1.72,6.94,2.76-1.61,2.77-1.6"/><path class="cls-12" d="M219.08,187.83s1.22-.75,1.24-.72c.14.25-4.68,8.4-4.58,8.59s4.9-2.93,4.94-2.85-2.14,6.51-2,6.68c0,0,.49-.3.49-.29s-.7,5.48-.63,5.6.48-.29.49-.28-.38,5.38-.31,5.51.43-.26.44-.25c.09.16-3.93,7.42-3.8,7.64,0,0,5.77-3.34,5.78-3.33"/><path class="cls-8" d="M215.69,177.44c0,.05.27-.25.31-.18s1.33,5.29,1.39,5.39,1.25-.76,1.27-.73"/><path class="cls-8" d="M207.21,180c0,.06.51-.38.55-.31"/><path class="cls-16" d="M212.3,177.46s.93-.58.95-.55,5.09,3.1,5.16,3.21.53-.33.54-.31"/><path class="cls-16" d="M208.67,177.8s1.53-1,1.56-.9"/><path class="cls-18" d="M218.7,188s.67-.42.68-.4c.14.25-4.75,8.44-4.64,8.63,0,0,3.86-2.29,3.89-2.25"/><path class="cls-19" d="M76.82,188.89c0,.05,0-.09.06,0s-1.77,6.75-1.7,6.88,3.23-1.9,3.24-1.87"/><path class="cls-20" d="M139.21,167.58s1.41-.87,1.44-.83c.14.26-5.68,8.23-5.57,8.42,0,0,3.14-1.84,3.15-1.81"/><path class="cls-21" d="M208.14,185.81s.91-.56.93-.53,3,4.09,3,4.18,3.85-2.28,3.87-2.23"/><path class="cls-22" d="M74.48,218s.7-.44.71-.42"/><path class="cls-23" d="M79.3,219.93s.43-.26.44-.25c.14.25-4.68,8.4-4.58,8.59,0,0,3.06-1.8,3.07-1.78s.7,4.93.77,5.06.72-.45.74-.43"/><path class="cls-16" d="M78.71,223.93s.51-.32.52-.3c.14.24-4.48,8.28-4.37,8.46,0,0,2.87-1.67,2.88-1.66"/><path class="cls-24" d="M218.08,217.14s.82-.5.83-.48c.15.25-5,8.56-4.86,8.75,0,0,3.33-2,3.35-1.93"/><path class="cls-25" d="M199.69,227.9s.45-.36.49-.29"/><path class="cls-26" d="M209.52,226.55s1.42-.88,1.45-.84"/><path class="cls-27" d="M188.15,228.43s.8-.49.81-.47"/><path class="cls-28" d="M190,226.74s.8-.49.81-.47,5.06,2.53,5.12,2.64,3.64-2.15,3.66-2.11"/><path class="cls-29" d="M187.57,235.39s1.37-.84,1.39-.8"/><path class="cls-30" d="M144.66,246.48s1.38-.85,1.41-.81,5.08,2.86,5.14,3,4.73-2.83,4.77-2.76"/><path class="cls-31" d="M160,236.7s1-.59,1-.56,5.44,2.65,5.5,2.76,3.18-1.87,3.2-1.84c.12.22,10.05-.64,10.19-.39,0,0,.75-.46.76-.44"/><path class="cls-32" d="M155.22,238.19c0,.09,1.78-1.17,1.85-1.07"/><path class="cls-33" d="M179.81,236.43s1-.63,1-.6"/><path class="cls-34" d="M158.19,240.61s.81-.5.83-.47"/><path class="cls-35" d="M130.16,246.62s.89-.55.91-.53,5.5,2.61,5.57,2.73,3.08-1.81,3.1-1.79"/><path class="cls-15" d="M100.45,256.53s.78-.48.79-.46c.14.24-4.41,8.25-4.3,8.43s10.85-6.6,11-6.35"/><path class="cls-8" d="M108.4,259.8s.72-.44.73-.42"/><path class="cls-8" d="M97.54,260.26c0,.06,1.09-.75,1.14-.67s-2.2,7-2.11,7.17,3.66-2.17,3.69-2.13"/><path class="cls-36" d="M128.26,250s.8-.49.81-.47"/><path class="cls-36" d="M109.84,256.83s1.33-.82,1.35-.78,5.87,2.4,5.94,2.52,3.75-2.23,3.78-2.18"/><path class="cls-10" d="M109.19,257.48s1-.64,1.06-.61"/><path class="cls-8" d="M87.55,249.87c0,.09,1.9-1.25,2-1.13s-3.14,7.54-3,7.7,10.36-6.3,10.5-6.06"/><path class="cls-37" d="M99.25,249.86s.43-.27.44-.26c.13.24-4.38,8.24-4.28,8.42s3.6-2.13,3.62-2.09"/><path class="cls-38" d="M90.51,246.55s.77-.47.78-.45"/><path class="cls-38" d="M88.84,243.26s.83-.51.84-.48"/><path class="cls-8" d="M77.58,239.88c0,.09,1.9-1.24,2-1.13s-3.14,7.55-3.05,7.71,11-6.68,11.12-6.43"/><path class="cls-23" d="M80.6,236.55s.75-.46.76-.44"/><path class="cls-39" d="M75.85,195.61s1.69-1.05,1.72-1c.18.31-7.2,9.79-7.06,10,0,0,3.94-2.34,4-2.3s-.22,5.45-.14,5.58,1.54-.94,1.56-.9-1.62,6-1.54,6.12,1.43-.87,1.45-.83.46,4.91.53,5,1.09-.67,1.11-.64"/><path class="cls-40" d="M78,188.87s1.28-.79,1.3-.75"/><path class="cls-41" d="M77.41,193.7s.88-.54.89-.52"/><path class="cls-8" d="M168.2,150.34c0,.06.6-.44.64-.37s-2.53,7.21-2.45,7.36c.19.32,15.2-9.28,15.42-8.9.07.12-.37,5.52-.29,5.66.18.31,4-2.68,4.17-2.4"/><path class="cls-42" d="M171.15,157.75s1.46-.9,1.48-.85,4.9,3,5,3.08,3.8-2.25,3.82-2.21"/><path class="cls-43" d="M169.19,157.82s1.56-1,1.58-.92"/><path class="cls-29" d="M208.75,179.14s.4-.25.41-.24c.14.23-4.08,8.07-4,8.25l2.49-1.44c.1.18,8.05.58,8.17.78,0,0,1.48-.91,1.51-.87"/><path class="cls-8" d="M116.35,167.8s.53-.41.57-.34,7.93,1.42,8,1.57,2.72-1.67,2.76-1.6,4.53,2.8,4.6,2.93,4.39-2.61,4.42-2.56"/><path class="cls-8" d="M108.29,170.44c0,.06,1-.67,1-.59s-2.75,7.33-2.66,7.48,4.44-2.64,4.48-2.58"/><path class="cls-44" d="M109.31,177.69s1.41-.87,1.44-.82"/><path class="cls-45" d="M111.22,177s.73-.46.75-.43"/><path class="cls-8" d="M146.28,157.86c0,.06.54-.41.58-.34s7.94,1.42,8,1.56,2.71-1.66,2.75-1.59,4.5,2.82,4.57,2.95,4.42-2.63,4.45-2.58"/><path class="cls-8" d="M138.24,160.49c0,.06.94-.66,1-.57s-2.74,7.32-2.65,7.47,4.43-2.64,4.47-2.58"/><path class="cls-45" d="M140.91,166.78l.21-.12"/><path class="cls-8" d="M197.57,170.26c0,.05.49-.38.53-.31s-1.72,6.76-1.64,6.9,10.26-6.24,10.4-6"/><path class="cls-46" d="M189.85,167.15s.75-.47.77-.44,3.65,3.69,3.71,3.8,3.17-1.86,3.18-1.84"/><path class="cls-47" d="M197.58,169.68s.84-.51.86-.49"/><path class="cls-48" d="M205.63,177.67s1.3-.81,1.32-.77"/><path class="cls-49" d="M201.3,177.62s1.25-.78,1.27-.74"/><path class="cls-50" d="M198.49,170.18s.51-.32.52-.3"/><path class="cls-51" d="M197.58,175.33s1.1-.68,1.12-.65"/><path class="cls-52" d="M199,177.6s.88-.54.89-.51"/><path class="cls-8" d="M187.62,160.26c0,.05.46-.36.5-.29s-1.69,6.74-1.61,6.87,10.25-6.23,10.38-6"/><path class="cls-53" d="M188,158.36s1.07-.66,1.09-.62c.14.24-4.73,8.42-4.63,8.61,0,0,3.12-1.83,3.14-1.81"/><path class="cls-54" d="M187.62,165.81s1.06-.65,1.07-.62"/><path class="cls-55" d="M188.35,164.66s.32-.2.33-.19"/><path class="cls-7" d="M78.62,181.09c0,.07.93-.64,1-.56s1.59,4.9,1.65,5,11.18-6.81,11.33-6.55,6.64,1.44,6.74,1.61,4.25-2.61,4.32-2.49,3.69,3,3.75,3.07,1.5-.92,1.52-.88"/><path class="cls-8" d="M83.82,178.49s1.94-1.19,2-1.13,8.64,1,8.73,1.15,1.94-1.19,2-1.14,5.33,2.33,5.41,2.46,3.65-2.16,3.67-2.12"/><path class="cls-8" d="M78.37,180.17c0,.05.61-.45.65-.38"/><path class="cls-29" d="M77.23,187.36c.07.13,3.91-2.49,4-2.32"/><path class="cls-56" d="M78,187.88c0,.07,1.25-.84,1.3-.75"/><path class="cls-57" d="M217.48,198.85s1.43-.88,1.46-.84c.14.25-4.82,8.47-4.71,8.66,0,0,3.18-1.87,3.19-1.84"/><path class="cls-58" d="M218.09,207.88s.82-.5.83-.48c.15.25-4.81,8.48-4.71,8.66,0,0,3.2-1.87,3.21-1.85"/><path class="cls-59" d="M176.73,190.37c.06.09,2.33-1.51,2.4-1.38s-4.26,8.17-4.16,8.34c.21.36,16.89-10.33,17.14-9.89.1.18-3.83,7.43-3.71,7.64.31.54,11.86-7.51,12.15-7,.16.28-6.78,8.83-6.64,9.07.23.4,17.37-10.55,17.6-10.16.12.22-4.52,7.67-4.4,7.88.23.41,7.59-5,7.85-4.53.11.18-5.56,8.31-5.41,8.57s11.3-6.7,11.37-6.57"/><path class="cls-60" d="M213.63,198.92c0,.05.2-.2.24-.14"/><path class="cls-61" d="M81.18,189.53c0,.07,1.06-.72,1.11-.64"/><path class="cls-62" d="M78.24,190c.05.08,1.89-1.24,2-1.13"/><path class="cls-63" d="M81,186.65s.57-.35.58-.34"/><path class="cls-64" d="M78.77,190.56s.5-.31.51-.29"/><path class="cls-65" d="M118.74,175.42c0,.05.47-.37.51-.3.13.22,8.54.8,8.64,1s4.53-2.7,4.56-2.63"/><path class="cls-66" d="M139.91,169.55s.94-.59,1-.56"/><path class="cls-67" d="M138.32,170c0,.06.72-.51.76-.44"/><path class="cls-68" d="M136.79,171.8s1.31-.81,1.33-.77"/><path class="cls-69" d="M142.38,167.41s.93-.57,1-.55"/><path class="cls-70" d="M207.47,180.85s1.15-.71,1.17-.68"/><path class="cls-71" d="M76.4,215.44s.91-.57.93-.54"/><path class="cls-72" d="M79.3,217.42s.83-.51.84-.48"/><path class="cls-73" d="M79.51,220.55s.61-.38.62-.36c.14.24-4.57,8.34-4.47,8.52,0,0,3.14-1.84,3.15-1.82s.61,5,.69,5.11.62-.39.63-.37"/><path class="cls-73" d="M79.5,234.88s.66-.41.67-.39"/><path class="cls-74" d="M209.21,226.14s1.78-1.1,1.81-1"/><path class="cls-74" d="M216.92,217.82s1.37-.85,1.4-.8c.15.25-5.4,8.37-5.29,8.56,0,0,3.74-2.22,3.77-2.17"/><path class="cls-75" d="M189.53,227.51s0-.06,0,0"/><path class="cls-76" d="M191.78,226.48s.86-.53.88-.51"/><path class="cls-32" d="M185.79,227.57s1.58-1,1.61-.93"/><path class="cls-77" d="M186.93,232.58s1.12-.69,1.14-.65"/><path class="cls-78" d="M187.64,228.85s.73-.45.74-.43"/><path class="cls-79" d="M147.57,245.83s1.5-.93,1.53-.88"/><path class="cls-79" d="M139.81,246.39s1.09-.66,1.1-.63"/><path class="cls-80" d="M157.56,243.83s.85-.52.86-.49"/><path class="cls-81" d="M161.94,236.44s.9-.56.92-.53,5.45,2.64,5.52,2.76,4.34-2.59,4.37-2.53"/><path class="cls-82" d="M154.1,238.21s.3-.26.33-.19"/><path class="cls-83" d="M163.36,235.89s1.81-1.12,1.85-1.07"/><path class="cls-84" d="M161.72,234.77s1.77-1.09,1.8-1"/><path class="cls-32" d="M119.78,253.31s1.56-1,1.59-.92"/><path class="cls-32" d="M124.35,248.86s.34-.28.38-.22"/><path class="cls-85" d="M128.07,247.77s.58-.43.62-.36c.12.22,8.41.64,8.51.81,0,0,3.06-1.8,3.08-1.78"/><path class="cls-86" d="M117.8,243.45s1.63-1,1.66-1-1.37,6.82-1.3,6.94,1.4-.85,1.42-.82"/><path class="cls-86" d="M108.82,247s1.33-.82,1.35-.78c.15.26-5.25,8.72-5.14,8.91,0,0,3.57-2.1,3.59-2.07s3.74,3.17,3.81,3.3,2.28-1.4,2.32-1.34"/><path class="cls-87" d="M119.16,254.84s1.14-.7,1.16-.67"/><path class="cls-80" d="M127.66,249.46s.83-.51.84-.49"/><path class="cls-88" d="M112.35,257.15s.89-.55.9-.52"/><path class="cls-89" d="M88.91,251.22c0,.07,1.43-1,1.49-.86s-.82,6.25-.75,6.37,6.13-3.68,6.19-3.57"/><path class="cls-90" d="M100.69,255.79s1.16-.71,1.18-.68"/><path class="cls-91" d="M99.46,249.84s.57-.36.58-.34"/><path class="cls-92" d="M93.35,246.34s1.41-.87,1.44-.83"/><path class="cls-93" d="M99.25,246.49s1.37-.85,1.4-.81"/><path class="cls-94" d="M89.41,241.93s.81-.5.83-.48"/><path class="cls-95" d="M88.79,237.74s.89-.55.91-.52"/><path class="cls-96" d="M99.66,249.11s.58-.35.59-.34"/><path class="cls-15" d="M79,241.21s.58-.44.62-.36,0,5.76.11,5.88,6.14-3.7,6.2-3.58"/><path class="cls-13" d="M86.8,237.2s1-.62,1-.59"/><path class="cls-97" d="M87.46,235.92s1.63-1,1.66-.95-2.83,7.37-2.75,7.53,3.5-2.07,3.52-2,1.34,4.56,1.41,4.68,1.29-.79,1.31-.76"/><path class="cls-98" d="M81.3,235.92s1.71-1,1.74-1"/><path class="cls-99" d="M80.56,235.75s.42-.27.43-.25"/><path class="cls-100" d="M75.3,202.41s1.21-.74,1.23-.71c.15.26-5.1,8.63-5,8.83,0,0,3.51-2.08,3.53-2s.73,4.91.81,5,1.18-.72,1.2-.69"/><path class="cls-101" d="M77.18,196.37s1.19-.73,1.21-.7"/><path class="cls-15" d="M168.85,151.54c0,.05.59-.44.63-.37s0,5.78.09,5.89,12.72-7.75,12.89-7.44c.07.11.36,5.12.43,5.25s4.3-2.64,4.37-2.52"/><path class="cls-102" d="M172.33,158.37s1.45-.9,1.48-.86,4.92,3,5,3.07,3.76-2.23,3.79-2.18"/><path class="cls-103" d="M167.23,160.28c0,.06.6-.44.65-.37"/><path class="cls-104" d="M187,157.91s.67-.41.68-.39"/><path class="cls-68" d="M165.27,161.22s1.84-1.14,1.88-1.09"/><path class="cls-105" d="M208.27,179.66s.68-.42.69-.4"/><path class="cls-7" d="M121.67,170.24c.06.11,2.66-1.72,2.74-1.58s7.18,1.87,7.26,2,3.42-2.09,3.47-2"/><path class="cls-7" d="M109,171.42c0,.05.59-.44.64-.37s-.15,5.88-.08,6,5.07-3,5.12-2.95"/><path class="cls-106" d="M121.53,171.61s2-1.24,2-1.18,9.59.42,9.69.6c0,0,1-.64,1.06-.61"/><path class="cls-106" d="M112.92,174.76c0,.09,2.16-1.41,2.23-1.29"/><path class="cls-107" d="M84.45,183.85c0,.05.58-.43.62-.36.15.26,10.1-.15,10.22,0,0,0,3.93-2.34,4-2.29s7.78.75,7.89.94c0,0,1.4-.86,1.42-.82"/><path class="cls-108" d="M107.62,179.44c0,.05.32-.28.36-.21"/><path class="cls-109" d="M109.85,179.32s1.06-.65,1.08-.62"/><path class="cls-7" d="M151.6,160.25c.06.1,2.58-1.66,2.65-1.53s7.17,1.88,7.24,2,3.45-2.1,3.5-2"/><path class="cls-7" d="M138.9,161.48c0,.05.59-.44.63-.37s-.14,5.88-.08,6,5.05-3,5.1-2.94"/><path class="cls-106" d="M142.86,164.82c0,.08,1.49-1,1.55-.89"/><path class="cls-15" d="M198.73,171.6c0,.06.73-.52.77-.45s0,5.79.08,5.9,6-3.61,6.06-3.5"/><path class="cls-110" d="M194,167.53s1-.62,1-.59"/><path class="cls-111" d="M191.41,167.61s1.16-.71,1.18-.68"/><path class="cls-112" d="M189.19,167.71s.93-.58.95-.55"/><path class="cls-113" d="M197,171s.84-.52.85-.49"/><path class="cls-114" d="M196,168.83s1.2-.74,1.22-.7"/><path class="cls-115" d="M201.5,178.1s1.05-.64,1.07-.61"/><path class="cls-116" d="M197.38,177.28s1-.62,1-.59"/><path class="cls-117" d="M198.93,178.46s1-.59,1-.56"/><path class="cls-15" d="M188.79,161.53c0,.06.59-.43.63-.36s0,5.79.07,5.9,6.17-3.71,6.23-3.59"/><path class="cls-118" d="M187.62,160.84s.82-.51.84-.49"/><path class="cls-119" d="M187,163.5s.87-.53.88-.5"/><path class="cls-120" d="M187.47,167.41s.93-.58.95-.55"/><path class="cls-39" d="M84.59,185.8c.06.1,2.27-1.47,2.34-1.35s8.54.79,8.64,1,5.47-3.28,5.52-3.19"/><path class="cls-121" d="M215.73,199.61s1.18-.73,1.2-.7"/><path class="cls-122" d="M217.49,202.91s.83-.51.84-.49"/><path class="cls-123" d="M216.84,214.86s1.45-.9,1.48-.86"/><path class="cls-124" d="M216.9,211.27s1.4-.85,1.42-.81"/><path class="cls-125" d="M217.41,208.53s.9-.56.92-.53"/><path class="cls-32" d="M187.4,189.48c0,.07,1.29-.88,1.35-.78s7,2,7.12,2.08,2.77-1.7,2.81-1.63,4.58,2.78,4.65,2.9,5.65-3.37,5.7-3.29"/><path class="cls-32" d="M179.1,191.59c0,.06.84-.59.89-.51s1,5.21,1.1,5.31,5-3,5.06-2.93,7.36,1,7.47,1.19,3.49-2.14,3.54-2,5.88,1.66,6,1.79,2.9-1.76,2.94-1.7,6.58,1.33,6.67,1.49,2.7-1.67,2.75-1.59"/><path class="cls-126" d="M182.89,190.93s1.59-1,1.62-.93,1.22,5.1,1.28,5.21,6.9-4.17,7-4,6.27,1.67,6.36,1.83,4.72-2.9,4.8-2.77,4,2.78,4.07,2.89,4.36-2.65,4.42-2.56"/><path class="cls-127" d="M178.21,190.15s.86-.53.87-.5"/><path class="cls-127" d="M157,198.17s0-.07,0,0c.12.21,8.14,1,8.23,1.19s4.72-2.82,4.76-2.75"/><path class="cls-128" d="M181.6,197.45s1.32-.81,1.34-.77,4.66,3.11,4.73,3.22,3.91-2.33,3.94-2.28c.13.22,10.32-.8,10.47-.55,0,0,.7-.43.71-.41"/><path class="cls-129" d="M210.43,197.06s.82-.51.83-.48"/><path class="cls-130" d="M179.6,187.12s1.36-.83,1.38-.79,5.55,2.58,5.62,2.7,3.27-1.93,3.28-1.9c.12.22,9.77-.56,9.91-.32,0,0,.73-.45.75-.43"/><path class="cls-130" d="M203.32,186.84s.85-.53.87-.5"/><path class="cls-131" d="M86.15,188.61s1.5-.93,1.53-.88"/><path class="cls-6" d="M76.68,198.92s.1-.14.13-.08-1.81,6.81-1.74,6.95,12.79-7.8,13-7.49-5.92,8.58-5.78,8.84,4.35-2.9,4.52-2.61-8.1,9.55-7.94,9.82,10.42-6.33,10.56-6.1-5.56,8.24-5.42,8.47,5.44-3.36,5.54-3.2"/><path class="cls-39" d="M115.05,176c.06.11,2.82-1.81,2.9-1.67s8.66.72,8.75.89,5-3,5.07-2.93"/><path class="cls-132" d="M121.85,176.1c0,.05.06-.11.09,0,.14.23,9.11.45,9.21.63,0,0,3.75-2.22,3.77-2.18"/><path class="cls-133" d="M125.49,175s1.39-.86,1.41-.82,4.93,3,5,3.07,3.77-2.24,3.8-2.19"/><path class="cls-134" d="M140.59,170.34s1.41-.87,1.43-.83"/><path class="cls-135" d="M117.94,172.61s1.62-1,1.65-1,6.19,2.21,6.26,2.33,4.26-2.54,4.3-2.48"/><path class="cls-136" d="M206.67,180.06s1.15-.71,1.17-.67"/><path class="cls-137" d="M196.45,186.62s1.5-.92,1.52-.87"/><path class="cls-132" d="M77.18,198.6s1.19-.74,1.21-.7c.16.28-6,9.14-5.9,9.35,0,0,3.17-1.86,3.18-1.84s.59,5,.66,5.12.84-.51.85-.49,0,5.08.07,5.2,1-.59,1-.57"/><path class="cls-138" d="M79.89,220.55s.85-.52.87-.5c.14.25-4.67,8.39-4.56,8.58,0,0,3.51-2.08,3.53-2"/><path class="cls-139" d="M80.8,216.89s.69-.42.7-.4"/><path class="cls-140" d="M79.91,226.84s.5-.31.51-.29c.14.23-4.46,8-4.36,8.23,0,0,2.74-1.6,2.75-1.59"/><path class="cls-141" d="M80.32,229.51s.61-.38.62-.36"/><path class="cls-142" d="M212.85,218.92c0,.05.37-.3.4-.24.15.25-4.6,8.36-4.49,8.54s7-4.24,7.11-4.1"/><path class="cls-143" d="M211.37,225.33s1-.59,1-.56"/><path class="cls-144" d="M216.82,220.9s.85-.52.86-.5"/><path class="cls-145" d="M196.79,225.33s1.45-.9,1.48-.85"/><path class="cls-146" d="M192.56,225.32s1.52-.94,1.55-.89"/><path class="cls-145" d="M205.48,224.75s1.58-1,1.6-.93"/><path class="cls-147" d="M208.58,217.89s1.43-.88,1.46-.84c.15.26-5.32,8.75-5.2,8.95s7.91-4.8,8-4.63"/><path class="cls-148" d="M176.35,228.87c0,.06.51-.38.55-.31s.88,5.3.94,5.4,6.58-4,6.66-3.84"/><path class="cls-149" d="M185.63,225.17s1.2-.74,1.22-.71"/><path class="cls-150" d="M179.13,235.44s1.7-1.05,1.73-1"/><path class="cls-151" d="M189.89,218.79s.05-.11.08,0c.17.29-6.67,9.5-6.54,9.72s16.27-10,16.51-9.53c.06.11.23,5.19.31,5.32s4-2.49,4.11-2.38"/><path class="cls-32" d="M145.52,245.37s1.69-1,1.72-1"/><path class="cls-77" d="M153.94,245s1.3-.8,1.32-.77"/><path class="cls-83" d="M142.29,245.82s1.44-.89,1.46-.85"/><path class="cls-152" d="M169.41,235.27s1.42-.87,1.44-.83"/><path class="cls-153" d="M179.22,235.84s.84-.52.86-.5"/><path class="cls-154" d="M163.14,233.16c0,.06.75-.54.8-.46"/><path class="cls-154" d="M153.71,236.3c.06.11,3-1.92,3.07-1.77.21.37-9.69,11.16-9.53,11.44.08.13,7.68-4.65,7.77-4.49"/><path class="cls-32" d="M157.3,239.37s.53-.33.54-.31"/><path class="cls-155" d="M164.35,232.88s1-.65,1.06-.61"/><path class="cls-148" d="M119.15,248.91c0,.06.83-.59.87-.51s-2.7,6.79-2.62,6.93,7.13-4.3,7.21-4.16"/><path class="cls-156" d="M118.94,241.83s1.23-.75,1.25-.72c.15.26-5,8.56-4.85,8.75s4.39-2.62,4.43-2.55-.67,5.69-.59,5.83,1.29-.79,1.31-.75"/><path class="cls-157" d="M124.67,247c0,.06,1.06-.73,1.11-.64"/><path class="cls-158" d="M120.83,254.22c0,.07,1-.69,1-.6"/><path class="cls-159" d="M127.35,250.49s.53-.33.54-.31"/><path class="cls-160" d="M108.18,220.35c0,.05.34-.29.38-.22s-2.09,7-2,7.1,9.91-6,10-5.8-3,7-2.84,7.15,1-.87,1.15-.67-4.89,7.79-4.77,8,7.66-4.65,7.76-4.48-4,7.36-3.85,7.56-.07-.25.06,0-7.14,9.16-7,9.46,13.08-7.78,13.18-7.61c.19.33-13,12.51-12.8,12.86.11.19,13.87-8.25,14-8.07s-9.91,10.92-9.74,11.22c0,.07,2-1.29,2.09-1.21"/><path class="cls-126" d="M100.58,250.94s.81-.5.82-.48,3.68,3.94,3.74,4,1.34-1,1.42-.82"/><path class="cls-126" d="M108.33,243.72s1.07-.66,1.09-.63c.15.27-5.72,9-5.6,9.18,0,0,3.8-2.26,3.82-2.21"/><path class="cls-161" d="M109.55,241.47s1.19-.74,1.21-.71c.15.25-4.72,8.43-4.62,8.62,0,0,3.25-1.91,3.26-1.89s.7,4.93.77,5.06.64-.4.65-.38"/><path class="cls-162" d="M102.11,255.52s.89-.55.91-.52"/><path class="cls-163" d="M94.1,245.75s1.44-.89,1.47-.85"/><path class="cls-160" d="M97.78,244.61s1.72-1.06,1.75-1-1.94,6.88-1.86,7,8.08-4.9,8.18-4.72"/><path class="cls-164" d="M89.46,238.11s.45-.28.46-.27"/><path class="cls-165" d="M90,243.11s.42-.26.43-.25"/><path class="cls-166" d="M100,248.69s.84-.52.86-.5"/><path class="cls-167" d="M93.58,245s1.2-.74,1.22-.71"/><path class="cls-168" d="M84.9,235.15s1.43-.88,1.45-.83"/><path class="cls-169" d="M89.38,235.29s.93-.58.94-.55"/><path class="cls-170" d="M91.25,239.22s.86-.53.87-.51"/><path class="cls-171" d="M80.65,229.31s.77-.48.78-.45c.14.23-4.38,8.23-4.28,8.41s3.7-2.19,3.72-2.15"/><path class="cls-172" d="M174.32,158.88s1.3-.8,1.32-.76,4.79,2.95,4.85,3.06,3.77-2.24,3.8-2.19"/><path class="cls-173" d="M170.15,160s.88-.54.9-.52"/><path class="cls-39" d="M145,166c.06.11,2.81-1.81,2.89-1.67s8.16,1,8.25,1.19,5.4-3.24,5.45-3.15"/><path class="cls-135" d="M147.88,162.63s1.72-1.06,1.75-1,6,2.3,6.09,2.43,4.1-2.44,4.13-2.39"/><path class="cls-29" d="M153.85,161.21s.78-.48.79-.46,5.31,2.38,5.37,2.5,3.29-1.94,3.31-1.91"/><path class="cls-174" d="M93.7,182s1-.6,1-.57,5.91,2.37,6,2.49,3.4-2,3.41-2"/><path class="cls-29" d="M88.07,182.53s1.51-.94,1.54-.89"/><path class="cls-175" d="M110.28,180.26s.63-.39.64-.37"/><path class="cls-101" d="M86.47,186.66c0,.09,2.12-1.38,2.18-1.27s9.12.45,9.23.63c0,0,3.78-2.25,3.8-2.2"/><path class="cls-132" d="M91.92,186s0-.08,0,0c.13.24,9.1.46,9.21.63s3.76-2.23,3.78-2.18"/><path class="cls-176" d="M191.93,168.24s1.26-.77,1.28-.73"/><path class="cls-177" d="M192.29,169.4s1.68-1,1.71-1c.11.2-2.44,7.16-2.35,7.31s3.8-2.26,3.83-2.21"/><path class="cls-178" d="M201.92,178.82s1.22-.75,1.24-.72"/><path class="cls-179" d="M196.79,177.69s1-.58,1-.55"/><path class="cls-177" d="M201,183.59c0,.06.32-.28.36-.21"/><path class="cls-177" d="M198.91,179.65s1.63-1,1.66-1,.57,5.47.63,5.58,4.15-2.47,4.19-2.41"/><path class="cls-180" d="M187,161s.84-.52.85-.49"/><path class="cls-181" d="M186.71,167.75s1-.59,1-.56"/><path class="cls-182" d="M214.92,201.32s1.53-.94,1.56-.9"/><path class="cls-142" d="M216.47,208s1.24-.77,1.26-.73"/><path class="cls-183" d="M215.07,213s1.62-1,1.64-1c.18.31-7.25,9.82-7.11,10.05,0,.06,4.55-2.72,4.59-2.65"/><path class="cls-142" d="M216.59,211.83s.91-.57.93-.54"/><path class="cls-184" d="M212.14,209.5c0,.06.37-.3.4-.23"/><path class="cls-59" d="M148.87,197.76s.82-.51.83-.48c.14.25-4.79,8.46-4.68,8.65s14.42-8.81,14.62-8.45c.11.18-3.68,7.36-3.56,7.56.3.52,11.3-7.17,11.58-6.69.16.27-6.26,8.54-6.13,8.78s16.83-10.23,17.05-9.85c.12.21-4.11,7.45-4,7.65s.92-.86,1.07-.61"/><path class="cls-185" d="M172,196s1.43-.89,1.45-.84"/><path class="cls-186" d="M168.19,196s1.5-.93,1.53-.88"/><path class="cls-187" d="M177.61,190.78s.82-.51.83-.48"/><path class="cls-59" d="M171.49,196.76l.22-.13"/><path class="cls-188" d="M178.63,200.5c0,.06.56-.42.6-.35.13.22,8.51.78,8.6.94s4-2.37,4-2.32"/><path class="cls-189" d="M180.38,198.49s1.83-1.13,1.86-1.07"/><path class="cls-190" d="M207.37,198.23s1.33-.81,1.35-.77"/><path class="cls-191" d="M190.26,198s.91-.56.92-.53"/><path class="cls-192" d="M196.84,197.39s.32-.2.33-.19"/><path class="cls-193" d="M212.19,198.78s1.79-1.1,1.82-1.05"/><path class="cls-194" d="M211.81,198.11s1.1-.68,1.12-.64"/><path class="cls-195" d="M177.73,188c0,.06.63-.46.67-.39.13.23,8.68.72,8.77.89s4.16-2.48,4.19-2.42"/><path class="cls-196" d="M182.57,186.61s.76-.47.77-.44"/><path class="cls-197" d="M178.8,197.86s1.66-1,1.69-1c.15.27-5.44,8.82-5.33,9,0,0,3.2-1.88,3.21-1.85"/><path class="cls-198" d="M86.77,189.46s1-.63,1-.6"/><path class="cls-199" d="M78.44,200.68s.81-.5.83-.47c.15.26-5.4,8.79-5.29,9,0,0,3.75-2.22,3.78-2.18s.29,5.16.37,5.29,1.12-.69,1.14-.66"/><path class="cls-200" d="M85.93,196.6s.73-.45.74-.43,5,2.89,5.1,3,3.85-2.28,3.87-2.24c.12.21,9.32-.19,9.46,0,0,.05,1.53-.94,1.55-.89s7.22.85,7.32,1,1.57-1,1.59-.92"/><path class="cls-201" d="M89.36,197.58s.54-.34.55-.32c.14.24-4.5,8.31-4.4,8.49,0,0,2.72-1.59,2.73-1.58s1,4.74,1.1,4.86.78-.47.79-.45-1.06,5.67-1,5.8.44-.27.45-.26"/><path class="cls-202" d="M78.11,197.93s1.14-.7,1.16-.67"/><path class="cls-201" d="M81.18,196.62s.78-.48.79-.46"/><path class="cls-203" d="M78.89,197.42c.1.16,5-3.17,5.15-3"/><path class="cls-204" d="M124.88,175.66s1.45-.9,1.47-.85,4.91,3,5,3.07,3.79-2.25,3.81-2.2"/><path class="cls-205" d="M124,176.2s1.36-.83,1.38-.79,4.92,3,5,3.06,3.79-2.24,3.81-2.2"/><path class="cls-206" d="M139.48,172.17c0,.07,1.07-.74,1.12-.65"/><path class="cls-207" d="M141.21,172.65s1.22-.75,1.24-.72"/><path class="cls-208" d="M142.21,169.31s1.13-.7,1.15-.67"/><path class="cls-209" d="M199.24,185.64s1.29-.79,1.32-.75"/><path class="cls-210" d="M206.16,180.08s.67-.41.68-.39"/><path class="cls-211" d="M191.83,187.24s.36-.3.4-.23"/><path class="cls-212" d="M199.59,186s1-.59,1-.56"/><path class="cls-204" d="M77.24,203.32s.82-.51.83-.48c.14.25-4.79,8.46-4.68,8.64,0,0,3.15-1.85,3.17-1.82"/><path class="cls-133" d="M76.94,202.77s.53-.32.54-.31"/><path class="cls-133" d="M76.93,209.34s.52-.32.53-.3"/><path class="cls-213" d="M81.08,225.13s1.69-1,1.72-1"/><path class="cls-214" d="M80.79,224.2s1.15-.72,1.17-.68"/><path class="cls-215" d="M80.57,220.7s.47-.29.48-.27"/><path class="cls-216" d="M87.6,215.85s0-.1.07,0"/><path class="cls-217" d="M80.67,227.86s1.4-.87,1.43-.83"/><path class="cls-218" d="M197.72,225.9c0,.06.59-.44.63-.36"/><path class="cls-219" d="M213,215.4c.06.1,2.63-1.7,2.71-1.57"/><path class="cls-219" d="M206.93,209.53c0,.06.85-.6.9-.52.18.32-7.67,10.05-7.53,10.29s13.28-8.1,13.47-7.77-8.6,10-8.41,10.35c.06.11,3.51-2.16,3.57-2.06"/><path class="cls-154" d="M161.58,229.45c.22.39,15.2-9.45,15.49-8.94s-10.63,11.68-10.46,12,15-9.14,15.18-8.76"/><path class="cls-220" d="M163.12,234.14c.08.13,4-2.55,4.11-2.37s1.78,4.15,1.83,4.24,6.36-3.83,6.43-3.71"/><path class="cls-160" d="M176.37,234.57c0,.06.74-.53.79-.45"/><path class="cls-221" d="M174.37,232.13c0,.05.38-.31.42-.25"/><path class="cls-222" d="M185.24,222.39s1.8-1.11,1.83-1.06"/><path class="cls-223" d="M192.6,214.05c.05.09,2.07-1.35,2.14-1.23"/><path class="cls-224" d="M183.36,222.66c.07.13,4-2.52,4.07-2.35"/><path class="cls-225" d="M200.67,212s1.15-.71,1.17-.68c.14.25-4.56,8.34-4.46,8.52s4.77-2.85,4.81-2.77"/><path class="cls-226" d="M202.49,219s1.44-.89,1.46-.84"/><path class="cls-227" d="M189.06,216.67c0,.07,1.58-1,1.64-.95"/><path class="cls-228" d="M193.28,220.74s1.32-.81,1.34-.77"/><path class="cls-229" d="M200.67,218s.93-.57.94-.55"/><path class="cls-230" d="M150.94,244.44s1.62-1,1.65-.95"/><path class="cls-148" d="M172.45,235.11s1.71-1.06,1.74-1"/><path class="cls-220" d="M135.13,239c0,.06,8.21-4.81,8.24-4.75.15.27-9.35,10.2-9.14,10.55.06.11,1.77-1.12,1.81-1.05"/><path class="cls-220" d="M143.59,237.43c.1.19,6.66-4.18,6.8-3.93s-6.49,9.66-6.37,9.87,9.21-5.77,9.4-5.43"/><path class="cls-220" d="M146.45,229c0,.05.16-.17.2-.11s1.74,4.8,1.8,4.9,11.18-6.81,11.33-6.54"/><path class="cls-231" d="M161,232.5s1.74-1.08,1.77-1"/><path class="cls-154" d="M120.18,237.61s1.35-.83,1.37-.79c.14.24-4.62,8.37-4.52,8.55s11-6.67,11.1-6.41,0,5.33.07,5.46,1.14-.93,1.26-.72"/><path class="cls-148" d="M112.43,218.87s0-.09.07,0,1.92,4.7,2,4.8,3.47-2,3.49-2,.27,5.16.35,5.29,1.11-.68,1.13-.65-1.4,5.86-1.32,6,1.29-.79,1.3-.76-1.21,5.85-1.13,6,1.87-1.16,1.91-1.1-3.71,7.3-3.59,7.51c0,0,6.41-3.73,6.42-3.7"/><path class="cls-148" d="M120.25,245s1-.62,1-.59"/><path class="cls-151" d="M120,244.91s.46-.28.47-.27"/><path class="cls-232" d="M127.79,245.44c0,.05.23-.22.27-.16"/><path class="cls-233" d="M106.57,218.81s.27-.25.31-.18-1.86,6.84-1.78,7,3.79-2.24,3.81-2.2-.06,5.35,0,5.49,1.54-.95,1.56-.9-1.83,6.1-1.75,6.24,1.62-1,1.64-.95-2.16,6.38-2.07,6.54,2.2-1.36,2.23-1.29"/><path class="cls-148" d="M101.39,253s.74-.45.75-.43"/><path class="cls-148" d="M106.8,247.73s1.35-.83,1.38-.79"/><path class="cls-148" d="M107.24,244.6s1.29-.79,1.31-.76"/><path class="cls-234" d="M101.21,251.05s.55-.34.56-.33"/><path class="cls-235" d="M103.22,240.76c.08.13,3.86-2.45,4-2.28"/><path class="cls-235" d="M97,236.22s1.38-.85,1.4-.81c.18.31-7.15,9.76-7,10s14.21-8.68,14.41-8.32"/><path class="cls-236" d="M100.65,248.4s1.1-.67,1.12-.64"/><path class="cls-235" d="M79.88,228.81c0,.05.51-.39.55-.32s1.2,5.12,1.26,5.22,11.21-6.82,11.36-6.56-3.38,7.19-3.27,7.39,5.16-3.17,5.24-3-3.51,7-3.41,7.21,2.47-1.5,2.5-1.45"/><path class="cls-237" d="M81.3,229.52s.53-.33.54-.31"/><path class="cls-238" d="M82.08,233.57s1.12-.69,1.14-.65"/><path class="cls-239" d="M178.32,159.71s1.68-1,1.71-1"/><path class="cls-240" d="M169.22,161.64c0,.05.34-.28.38-.22"/><path class="cls-239" d="M184.35,159.47s1.17-.72,1.19-.69"/><path class="cls-65" d="M149.34,165.58s.06-.11.1-.05c.13.23,9.13.44,9.23.61s3.75-2.22,3.77-2.18"/><path class="cls-132" d="M151.78,166.15s0-.09.06,0c.13.23,9.11.44,9.21.62s3.76-2.23,3.78-2.18"/><path class="cls-241" d="M110.68,180.06s.54-.33.55-.32"/><path class="cls-133" d="M95.56,185s1.38-.85,1.4-.81,5,3,5,3.06,3.79-2.25,3.82-2.21"/><path class="cls-242" d="M87.87,187.9c0,.09,2.11-1.38,2.18-1.26s8.85.6,9,.77,3.11-1.82,3.12-1.8"/><path class="cls-6" d="M119.25,177.72s1.62-1,1.65-.95c.16.27-5.92,9.08-5.8,9.28s14.8-9,15-8.66c.1.18-3.51,7.26-3.39,7.46.3.52,11.37-7.21,11.65-6.73.15.27-6.33,8.58-6.2,8.81.23.39,16.91-10.27,17.13-9.88.12.21-4.19,7.48-4.07,7.69s.41-.55.54-.32"/><path class="cls-243" d="M155.67,177.22c.05.08,1.55-1,1.61-.93"/><path class="cls-243" d="M123.08,176.72s.7-.43.72-.41,5.66,2.51,5.73,2.63,3-1.77,3-1.75c.13.22,10.2-.72,10.34-.47,0,0,.73-.45.74-.43s5.33,2,5.4,2.12,3.66-2.22,3.71-2.14-3.69,7.21-3.58,7.41c0,0,.47-.29.48-.28"/><path class="cls-6" d="M146.86,169.12s.16-.17.2-.11-2.11,7-2,7.11c.18.31,14.81-9,15-8.67.1.17-3.1,7-3,7.22.3.53,11.3-7.16,11.58-6.68.16.27-6.49,8.67-6.36,8.9.22.38,16.59-10.07,16.8-9.7.12.21-4.05,7.42-3.94,7.62s.56-.64.7-.4"/><path class="cls-244" d="M151.78,166.78s.7-.43.71-.41,5.69,2.5,5.76,2.62,3-1.76,3-1.74"/><path class="cls-239" d="M191,170s1.37-.84,1.39-.8c.14.24-4.52,8.31-4.42,8.5s6.32-3.81,6.39-3.69"/><path class="cls-245" d="M192.32,177.53s1.44-.89,1.47-.85-1.57,6.39-1.49,6.52,4.16-2.48,4.19-2.42"/><path class="cls-246" d="M199.3,180.63s1.25-.77,1.27-.73-1.36,5.83-1.29,5.95,4.51-2.7,4.55-2.63"/><path class="cls-247" d="M184.88,186.66c0,.06.65-.48.69-.4s8,.62,8.12.78,3.78-2.24,3.81-2.2"/><path class="cls-248" d="M185.73,161s1.12-.69,1.14-.66"/><path class="cls-249" d="M179,164.47s1.52-.94,1.55-.89.25,5.65.31,5.76,4.22-2.51,4.25-2.45"/><path class="cls-250" d="M186.41,168.86s.88-.54.89-.52"/><path class="cls-251" d="M186.77,171.86s0-.09,0,0"/><path class="cls-252" d="M213.69,201.41s1.2-.75,1.22-.71c.15.26-5.67,8.29-5.56,8.48s5.3-3.18,5.35-3.09"/><path class="cls-253" d="M209.87,201.4s.11-.14.14-.08"/><path class="cls-254" d="M215,211.59s.4-.25.41-.24"/><path class="cls-126" d="M149.56,202.47c0,.06.82-.58.86-.5s4,3.53,4,3.63,8.2-5,8.3-4.79,8.32.42,8.44.62.33-.42.43-.24"/><path class="cls-32" d="M151.56,201.22s.62-.39.63-.37.5,5.51.57,5.62,4.49-2.68,4.53-2.62,8.4.37,8.52.58,2.45-1.5,2.49-1.43"/><path class="cls-32" d="M149.4,201.4s.25-.22.28-.16,7.94,1.16,8,1.31,5.09-3.05,5.14-3,8.44.34,8.57.56,2.59-1.6,2.63-1.53"/><path class="cls-255" d="M146.49,209c0,.05.08-.12.11-.06s-1.71,6.75-1.63,6.89,3.47-2.05,3.49-2"/><path class="cls-256" d="M140.49,206.69s1.76-1.08,1.79-1"/><path class="cls-257" d="M158.5,207.3s.93-.57.94-.54,4.89,3,4.95,3.08,3.77-2.23,3.8-2.19"/><path class="cls-258" d="M169.9,208.14s1.78-1.1,1.81-1"/><path class="cls-259" d="M179.76,199.9s1.25-.77,1.27-.73c.16.27-6,9.11-5.85,9.32,0,0,4-2.37,4-2.32"/><path class="cls-260" d="M178,205s1-.63,1-.6"/><path class="cls-261" d="M170.85,207.34s1-.58,1-.55"/><path class="cls-262" d="M147,199s.1-.14.14-.08"/><path class="cls-263" d="M149.16,205.36s.72-.44.74-.42"/><path class="cls-264" d="M155.1,207.54s1.31-.81,1.33-.77"/><path class="cls-265" d="M148.25,200.13s.83-.51.84-.49"/><path class="cls-127" d="M150.29,196.74s1-.59,1-.56"/><path class="cls-266" d="M171.45,195.37s1.47-.9,1.49-.86"/><path class="cls-267" d="M165.05,195.37s1.44-.89,1.47-.85"/><path class="cls-268" d="M177,188.61s1.45-.9,1.48-.86"/><path class="cls-269" d="M158.83,195.35s1.45-.89,1.47-.85"/><path class="cls-270" d="M151.78,196.1s1.7-1,1.73-1"/><path class="cls-271" d="M152.3,196.53s.76-.46.77-.44"/><path class="cls-177" d="M178.49,201.58c0,.06.81-.57.85-.49.14.24,9.11.46,9.21.63s4.86-2.9,4.9-2.83"/><path class="cls-272" d="M179.85,198.06s1.16-.72,1.18-.68c.16.27-5.72,9-5.6,9.18,0,0,3.11-1.83,3.12-1.8"/><path class="cls-273" d="M209.71,199.46s1.37-.84,1.4-.8c.17.3-6.74,9.53-6.61,9.76,0,0,4-2.36,4-2.31"/><path class="cls-274" d="M196.44,198s.9-.55.91-.53"/><path class="cls-223" d="M205.94,198.85s1.22-.75,1.24-.72"/><path class="cls-275" d="M203.53,198.85s1.37-.84,1.39-.8"/><path class="cls-276" d="M182,185.41s1.46-.9,1.49-.86"/><path class="cls-277" d="M183.38,186.18l.23-.14"/><path class="cls-278" d="M176.81,186.71s1.83-1.13,1.87-1.07c.18.31-7.46,9.93-7.32,10.17,0,.05,4.27-2.55,4.3-2.49"/><path class="cls-279" d="M176.47,186.45c0,.05.08-.12.11-.06"/><path class="cls-280" d="M85.17,190.13s.16-.18.2-.12"/><path class="cls-281" d="M90,187.1s1-.64,1-.61S96.94,188.88,97,189s4.09-2.43,4.12-2.38"/><path class="cls-6" d="M89.32,187.65s1.57-1,1.6-.92c.16.28-5.89,9.07-5.77,9.27s14.44-8.81,14.64-8.45c.1.16-2.67,6.8-2.56,7,.29.51,10.83-6.88,11.1-6.41.14.25-5.78,8.27-5.65,8.5s16.4-10,16.61-9.6c.12.2-3.67,7.21-3.56,7.4s-.07-.25.06,0"/><path class="cls-282" d="M123.49,187.12s.89-.54.9-.51c.12.2,9.2.66,9.29.82s1.36-.83,1.38-.79,6.42,1.67,6.51,1.82,2.61-1.53,2.62-1.51"/><path class="cls-282" d="M99.14,186.66h0c.1.17,6.36,2.1,6.44,2.23s3-1.79,3-1.76c.13.21,10-.64,10.19-.39,0,0,.31-.19.32-.18s-.14,5.16-.07,5.27.51-.31.52-.3"/><path class="cls-283" d="M94.6,197.56s1.41-.87,1.43-.83"/><path class="cls-283" d="M89.61,197.55s1.39-.86,1.41-.81c.15.26-5.47,8.83-5.36,9,0,0,3-1.73,3-1.71"/><path class="cls-284" d="M88.36,192.56s.88-.54.89-.52"/><path class="cls-201" d="M99.58,197.44s1.18-.73,1.2-.7"/><path class="cls-285" d="M110.44,199.54s.1-.14.14-.08"/><path class="cls-286" d="M110.23,197.43s1.14-.7,1.16-.67"/><path class="cls-287" d="M119.44,195.61s1.14-.71,1.16-.67"/><path class="cls-288" d="M89.49,213.87s1.8-1.11,1.83-1.05"/><path class="cls-289" d="M89.68,207.48s.83-.51.84-.49"/><path class="cls-290" d="M88.72,189.73s.53-.33.54-.31"/><path class="cls-291" d="M123.89,176.57s1-.59,1-.56,5.39,2.68,5.45,2.8,3.35-2,3.37-1.95"/><path class="cls-292" d="M140,174c.06.11,2.87-1.84,2.95-1.7"/><path class="cls-293" d="M82.23,221.75s1.49-.92,1.52-.87,2.66,4.52,2.72,4.62,6.56-4.16,6.72-3.88"/><path class="cls-293" d="M91.55,210.78c0,.05.11-.14.14-.08S88.93,218,89,218.19s5.39-3.23,5.44-3.14"/><path class="cls-294" d="M81.29,219.9s.86-.53.88-.51"/><path class="cls-295" d="M82,219.74s1.77-1.09,1.8-1"/><path class="cls-296" d="M91.63,210.55s1.55-1,1.58-.91c.17.31-7,9.64-6.83,9.87,0,0,4.19-2.5,4.22-2.44"/><path class="cls-297" d="M81.82,218.56s1.22-.75,1.24-.71"/><path class="cls-226" d="M200.39,210.59c.06.1,2.68-1.74,2.76-1.6s-3.81,7.92-3.71,8.09,6-3.61,6.06-3.5"/><path class="cls-298" d="M204.5,207s1.28-.79,1.3-.75"/><path class="cls-220" d="M166.44,219s.27-.24.3-.17-2,6.89-1.87,7c.17.3,14.5-8.86,14.71-8.5"/><path class="cls-299" d="M150.15,226.69s.94-.58,1-.55,5.46,2.63,5.53,2.75,9-5.43,9.06-5.23"/><path class="cls-300" d="M176.28,225c.07.13,3.89-2.48,4-2.31"/><path class="cls-301" d="M182.7,216.72s.89-.54.9-.52"/><path class="cls-302" d="M183.71,221c0,.05.22-.21.26-.15"/><path class="cls-303" d="M190.2,217.93s1.42-.88,1.45-.83"/><path class="cls-304" d="M172.32,235.12s.09-.13.13-.08"/><path class="cls-305" d="M173.34,234.42c0,.06.91-.64,1-.56"/><path class="cls-306" d="M184.33,222.09s1-.64,1.06-.61"/><path class="cls-151" d="M197.06,209.78c.05.08,1.68-1.1,1.74-1s-3.72,7.87-3.62,8,5-3,5-2.91"/><path class="cls-307" d="M191.54,212.9c.07.11,3.22-2.07,3.31-1.92"/><path class="cls-151" d="M188.45,219.45s.7-.43.71-.41"/><path class="cls-238" d="M124.33,236.43c.06.1,2.67-1.72,2.75-1.59s4,3.53,4,3.63c.25.45,20.24-12.39,20.55-11.86.12.22-5.51,8.35-5.37,8.6,0,.08,2.78-1.71,2.82-1.63"/><path class="cls-308" d="M138,241.39c0,.08,1.59-1,1.65-.95s1.77,4.49,1.82,4.59,4.12-2.45,4.16-2.4"/><path class="cls-309" d="M130.31,239c0,.05.12-.15.15-.09"/><path class="cls-310" d="M146.82,232.53c0,.07,1.13-.77,1.19-.68"/><path class="cls-311" d="M121.32,236.74s1.12-.69,1.14-.65,4.75,3,4.81,3.16,3.3-1.94,3.32-1.91c.13.23,10.59-1,10.74-.71l.26-.15"/><path class="cls-312" d="M138.86,240.22s1.59-1,1.62-.94"/><path class="cls-313" d="M119.74,239.39c0,.05.47-.36.51-.29"/><path class="cls-314" d="M121.55,237.33s1.19-.73,1.21-.7"/><path class="cls-315" d="M120.38,244.53s.27-.17.28-.16"/><path class="cls-316" d="M119.3,219s.94-.58,1-.56c.15.26-5,8.57-4.86,8.76,0,0,2.7-1.58,2.71-1.57s1,4.74,1.11,4.86,1.14-.7,1.16-.67"/><path class="cls-317" d="M116.87,218.84s.06-.11.09-.05"/><path class="cls-318" d="M109,216.16s1.42-.87,1.44-.83"/><path class="cls-319" d="M119.21,232.51l.22-.13"/><path class="cls-320" d="M107.81,217.51s1.35-.84,1.37-.79c.14.24-4.79,8.46-4.68,8.64,0,0,3.15-1.85,3.17-1.83s.59,5,.66,5.12.83-.51.84-.49-1.1,5.7-1,5.83.87-.53.88-.51"/><path class="cls-160" d="M106.81,240.21s1.41-.87,1.44-.83"/><path class="cls-321" d="M93.19,239.16s1.27-.78,1.3-.75"/><path class="cls-322" d="M93,235.35s1.36-.84,1.38-.8"/><path class="cls-323" d="M94,239.41s1.07-.66,1.08-.63"/><path class="cls-239" d="M106.48,233.23s1.16-.71,1.18-.68"/><path class="cls-324" d="M103.6,242.05s1.43-.88,1.45-.84"/><path class="cls-325" d="M92.43,233.28c.06.1,2.51-1.62,2.59-1.49"/><path class="cls-326" d="M83.67,232.23s1.43-.88,1.46-.84"/><path class="cls-327" d="M91.35,235.93s.33-.27.37-.21"/><path class="cls-328" d="M82.58,231.13s1.26-.78,1.28-.74"/><path class="cls-329" d="M169.17,162.85c0,.06.89-.62.94-.54s7.55,1.39,7.64,1.53,5.41-3.25,5.47-3.15"/><path class="cls-204" d="M152.48,167.06c0,.05.07-.11.1-.05.13.22,8.59.76,8.69.93s4.26-2.54,4.29-2.48"/><path class="cls-133" d="M155.87,164.84s1-.59,1-.56,5.44,2.65,5.51,2.77,3.29-1.94,3.3-1.91"/><path class="cls-330" d="M111.27,181.21s1.44-.89,1.46-.85"/><path class="cls-331" d="M90.75,187.83s.3-.26.34-.2c.13.24,9,.5,9.14.68,0,0,3.9-2.32,3.93-2.28"/><path class="cls-332" d="M93.81,185.67S94.94,185,95,185s5.85,2.4,5.92,2.53,2.93-1.72,2.94-1.71"/><path class="cls-333" d="M118.36,182.11s.81-.5.83-.47"/><path class="cls-334" d="M117.73,180.24s1.44-.88,1.46-.84"/><path class="cls-335" d="M150.27,179.56s1.7-1.05,1.73-1"/><path class="cls-336" d="M148.68,182.18c0,.06.69-.51.74-.43"/><path class="cls-335" d="M152.54,180.17c0,.05.22-.21.26-.15"/><path class="cls-337" d="M157.67,179.9s1.24-.77,1.26-.73"/><path class="cls-338" d="M143.65,189.91c.06.11,2.82-1.82,2.9-1.68"/><path class="cls-286" d="M142,177.9c.06.1,2.86-1.84,2.94-1.7"/><path class="cls-205" d="M153.9,166.26s1.36-.83,1.38-.79,4.92,3,5,3.07,3.8-2.26,3.83-2.21"/><path class="cls-339" d="M147.56,171.19s1.55-.95,1.58-.91"/><path class="cls-340" d="M148.62,171.53s.51-.32.52-.3"/><path class="cls-341" d="M179.14,167.75s.45-.28.46-.26c.13.24-4.42,8.25-4.32,8.43s3.95-2.34,4-2.29"/><path class="cls-342" d="M164.72,177.21s.9-.56.92-.54,5.09,2.86,5.15,3,3.65-2.16,3.67-2.12"/><path class="cls-343" d="M168.81,168c0,.05.21-.21.25-.14"/><path class="cls-344" d="M175.72,166.78s.66-.41.67-.39"/><path class="cls-291" d="M153.86,166.61s.92-.57.93-.54,5.43,2.65,5.5,2.77,3.3-1.94,3.32-1.91"/><path class="cls-345" d="M191.09,170.77s.76-.47.77-.44c.15.26-5.55,8.61-5.44,8.81s4.26-2.53,4.29-2.48"/><path class="cls-346" d="M189.91,177.21s.9-.55.92-.53c.13.23-4.08,8.07-4,8.24s6.4-3.85,6.47-3.73"/><path class="cls-347" d="M194.49,180.26s.6-.37.61-.35"/><path class="cls-348" d="M192.62,179s.77-.48.79-.46"/><path class="cls-349" d="M193,184.6c0,.08,1.76-1.16,1.82-1"/><path class="cls-350" d="M199.07,181.37s1-.61,1-.58"/><path class="cls-351" d="M183.65,185.49c0,.06,1.11-.76,1.17-.67"/><path class="cls-352" d="M178.12,165c0,.05,0-.08,0,0"/><path class="cls-206" d="M169.84,164.92c0,.07,1.24-.84,1.29-.75s3.57,3.75,3.63,3.85,3.74-2.21,3.76-2.17"/><path class="cls-353" d="M179.89,167.22s.88-.54.9-.52c.1.18-1.84,6.83-1.76,7s3.36-2,3.37-1.95"/><path class="cls-354" d="M179.67,161.51s.68-.42.7-.4"/><path class="cls-355" d="M182.24,171.52s.16-.18.2-.12c.18.32-7.55,10-7.41,10.23s12.25-7.47,12.42-7.17"/><path class="cls-171" d="M209.8,205.46s.55-.34.56-.33"/><path class="cls-356" d="M212.29,200.69s.42-.26.43-.25"/><path class="cls-59" d="M116.6,208.94c0,.05.46-.36.5-.29s-2.1,7-2,7.11c.18.31,14.76-9,15-8.64.1.18-3.7,7.36-3.58,7.56.3.52,11.05-7,11.32-6.53.16.27-6.52,8.68-6.38,8.92.23.39,17.12-10.41,17.35-10,.12.21-4.41,7.61-4.29,7.81s.8-.78.94-.54"/><path class="cls-357" d="M147.77,210.1c0,.05.46-.36.5-.29"/><path class="cls-260" d="M148.09,214.88s1-.61,1-.58"/><path class="cls-358" d="M148.19,207.35s.9-.55.91-.52"/><path class="cls-273" d="M149.78,209.13s.5-.31.51-.3"/><path class="cls-359" d="M122.81,206.51s1.48-.91,1.5-.87,4.91,3,5,3.08,3.77-2.24,3.8-2.2"/><path class="cls-360" d="M135.39,205.93S137,205,137,205"/><path class="cls-361" d="M143.25,205.91s1.45-.89,1.48-.85"/><path class="cls-362" d="M147.67,201.92s.82-.51.83-.49"/><path class="cls-363" d="M160.06,207.72s.58-.36.59-.34"/><path class="cls-364" d="M168.07,208.75s1.31-.8,1.33-.76"/><path class="cls-365" d="M180.55,200.42s.48-.29.48-.27"/><path class="cls-366" d="M180.11,205.89s1.12-.69,1.14-.66"/><path class="cls-367" d="M154.11,194.12c0,.07,1.11-.76,1.16-.67"/><path class="cls-367" d="M144.71,197.68c0,.09,2.22-1.45,2.29-1.33.16.27-5.32,8.76-5.21,9s4.26-2.54,4.29-2.48"/><path class="cls-368" d="M158.32,194.85s1.81-1.12,1.85-1.07,4.69,3.09,4.75,3.2,4.63-2.76,4.67-2.69"/><path class="cls-369" d="M153.28,195.36s1-.59,1-.56"/><path class="cls-239" d="M195.53,199.72c0,.05,1.81-1.09,1.83-1.05.23.4-15.72,14.16-15.45,14.63s22-13.38,22.32-12.89"/><path class="cls-239" d="M177,212c.06.1,9.35-5.51,9.4-5.42.15.26-7.07,9.48-6.91,9.76.26.44,21.56-13,21.81-12.59"/><path class="cls-239" d="M153.15,221.52c.36.62,18.95-11.65,19.26-11.12s-13.75,12.86-13.48,13.31,13.79-8.44,14-8.08c.08.15-1.24,5.82-1.18,5.93s1.07-.64,1.09-.62"/><path class="cls-239" d="M118.75,232.46s8.15-4.78,8.18-4.73c.12.21-6.3,8.56-6.14,8.83s11.9-7.26,12.06-7"/><path class="cls-239" d="M140,219.82s1.67-1,1.7-1-2.43,6.57-2.36,6.7c.38.65,25.77-15.89,26.21-15.13"/><path class="cls-239" d="M148.62,211.78c0,.07,1.38-.93,1.44-.84s-3.93,8-3.84,8.16c.2.34,16-9.75,16.19-9.34"/><path class="cls-370" d="M179.18,204.21s6.86-4,6.87-4"/><path class="cls-370" d="M154.16,208.84s1.49-.91,1.51-.87c.11.2,8.64,1,8.73,1.15s1.34-.81,1.35-.78,4.51,2.82,4.58,2.94,4.07-2.41,4.1-2.37"/><path class="cls-370" d="M148.27,210.84c0,.06.7-.51.75-.44"/><path class="cls-239" d="M183.64,202.54s0-.09.06,0c.14.24-4.57,8.33-4.46,8.52s5.79-3.48,5.85-3.38"/><path class="cls-238" d="M186,201.43s7.91-4.62,7.93-4.57"/><path class="cls-238" d="M184.11,200.33s1.64-1,1.67-1"/><path class="cls-238" d="M181.91,201.22s1.42-.87,1.44-.83c.15.25-5.07,8.3-5,8.49s5.42-3.25,5.47-3.16"/><path class="cls-371" d="M183,201.56s1.65-1,1.68-1"/><path class="cls-372" d="M203.62,205.89c0,.08,1.66-1.1,1.72-1"/><path class="cls-373" d="M208.6,200.57s1.51-.93,1.54-.89"/><path class="cls-177" d="M200.44,198.57s.9-.55.92-.53c.21.37-9.23,10.91-9.07,11.18s11.33-6.89,11.48-6.63"/><path class="cls-374" d="M205,201.06s1.06-.66,1.08-.63"/><path class="cls-188" d="M200.49,206.15c0,.07,1.17-.79,1.23-.7"/><path class="cls-375" d="M173.85,186.32s1.45-.88,1.47-.84"/><path class="cls-375" d="M159.78,189.62s.39-.32.43-.25-1.33,6.54-1.25,6.67,11.58-7.06,11.74-6.78c.07.11,1,4.75,1.09,4.87s3.19-1.95,3.24-1.87"/><path class="cls-376" d="M177.08,184.47c0,.08,1.87-1.23,1.94-1.12"/><path class="cls-376" d="M170.36,185.87c0,.08,1.52-1,1.57-.91"/><path class="cls-377" d="M174.56,190.4s1.65-1,1.67-1"/><path class="cls-378" d="M179,183.1c.05.09,1.81-1.19,1.88-1.08"/><path class="cls-379" d="M186.63,181.32s1.75-1.08,1.78-1"/><path class="cls-200" d="M126.56,187c0,.05.26-.25.3-.18s8.19,1.26,8.28,1.41,2.15-1.31,2.18-1.26"/><path class="cls-200" d="M118.11,189.3s.12-.15.15-.09"/><path class="cls-286" d="M137.34,189.65s.13-.16.17-.1"/><path class="cls-380" d="M118.06,182.87s.53-.32.54-.31"/><path class="cls-381" d="M87.75,201.16c.06.09,2.38-1.54,2.45-1.42s-4.24,8.16-4.14,8.34c0,0,3.16-1.85,3.17-1.83"/><path class="cls-382" d="M99.29,198s1.13-.7,1.15-.66"/><path class="cls-344" d="M102.31,198s1-.65,1.07-.62,4.62,3.08,4.68,3.19,3.41-2,3.43-2"/><path class="cls-339" d="M112.62,200.55s.27-.24.3-.18"/><path class="cls-383" d="M120.11,192.69c0,.08,1.91-1.26,2-1.15"/><path class="cls-384" d="M118.58,198.85s.86-.53.87-.5"/><path class="cls-216" d="M91,209.94s1.47-.91,1.5-.87"/><path class="cls-385" d="M90.3,207.26s1.06-.65,1.07-.62"/><path class="cls-386" d="M94.75,216.55s.83-.51.84-.48c.15.24-4.73,8.43-4.62,8.61s7.08-4.27,7.16-4.13-.69,5.7-.61,5.85,1.94-1.2,2-1.14"/><path class="cls-387" d="M95,208.05s1.77-1.09,1.8-1c.13.24-4.11,8.09-4,8.26s4.94-3,5-2.87"/><path class="cls-120" d="M82.5,220.52s.76-.47.78-.45"/><path class="cls-386" d="M95.68,213.15s1.47-.9,1.49-.86"/><path class="cls-388" d="M91.56,224.08s1.11-.68,1.13-.65"/><path class="cls-389" d="M87.09,220c0,.06.9-.63,1-.55"/><path class="cls-390" d="M92.42,219.6s1.38-.85,1.4-.81"/><path class="cls-391" d="M93.28,207.15s1.06-.66,1.08-.63"/><path class="cls-120" d="M92.89,209.38s1.31-.81,1.34-.77"/><path class="cls-392" d="M92.48,214.3s.89-.55.91-.52"/><path class="cls-393" d="M91.57,208.19s1.22-.75,1.24-.71"/><path class="cls-223" d="M199.52,207.68c0,.09,1.82-1.2,1.88-1.09"/><path class="cls-238" d="M170.73,216.72s1.19-.74,1.22-.7,4.27,2.79,4.33,2.89,2.66-1.55,2.66-1.54"/><path class="cls-394" d="M161.29,226.09c0,.07,1.27-.86,1.32-.77"/><path class="cls-238" d="M187.61,212.56c.06.1,2.61-1.68,2.68-1.55"/><path class="cls-302" d="M196.36,209.19c0,.05.2-.2.24-.13"/><path class="cls-395" d="M141.11,236.7c0,.05.39-.32.43-.25"/><path class="cls-396" d="M142.34,227s.13-.16.17-.1"/><path class="cls-397" d="M140,234.48s.53-.32.54-.31"/><path class="cls-398" d="M120.08,232.47s.89-.55.9-.52"/><path class="cls-399" d="M124.08,235.47s.91-.56.92-.53"/><path class="cls-399" d="M121.17,234.35s.68-.42.69-.4"/><path class="cls-400" d="M117.88,220.48c0,.06.57-.43.62-.36s-2.85,7.39-2.77,7.55,3.44-2,3.46-2"/><path class="cls-401" d="M119.91,229.36s1.39-.86,1.41-.82"/><path class="cls-402" d="M119.42,222.76s.32-.2.33-.19"/><path class="cls-403" d="M125,218.05s1.74-1.07,1.77-1"/><path class="cls-404" d="M123.59,218.54s1.37-.85,1.4-.81"/><path class="cls-405" d="M104.89,207.43s1.73-1.07,1.76-1c.12.2-2.72,7.31-2.63,7.46s4-2.4,4.07-2.35"/><path class="cls-406" d="M99.24,215.21s1.81-1.11,1.84-1.06,1.62,4.88,1.68,5,4.82-2.88,4.86-2.81"/><path class="cls-407" d="M109.26,214.91s1.17-.72,1.19-.69"/><path class="cls-408" d="M111.45,217.24c0,.06.7-.5.75-.43"/><path class="cls-409" d="M118.33,211.27s.82-.5.83-.48"/><path class="cls-410" d="M99.21,217.37s1.51-.93,1.53-.88,2.2,4.54,2.26,4.64,3.46-2,3.48-2"/><path class="cls-177" d="M108,219.36s.52-.33.53-.31c.15.25-4.83,8.48-4.72,8.67,0,0,3.2-1.88,3.22-1.86s.59,5,.66,5.12.82-.51.84-.48"/><path class="cls-235" d="M94.26,235.5s1.48-.92,1.51-.87"/><path class="cls-235" d="M96.81,233.94s1.22-.76,1.24-.72"/><path class="cls-411" d="M105.92,224.67s1.41-.87,1.43-.83c.15.27-5.49,8.85-5.37,9,0,0,3.74-2.21,3.76-2.17s-.46,5.48-.38,5.61,1.4-.85,1.42-.81"/><path class="cls-238" d="M107.12,229.5s.83-.51.84-.49c.14.23-4.46,7.68-4.37,7.85,0,0,2.88-1.68,2.89-1.66"/><path class="cls-412" d="M105.83,218.73c0,.07.87-.61.92-.53"/><path class="cls-412" d="M99.26,218.15s.54-.34.55-.32c.14.24-4.5,8.3-4.4,8.49s4.72-2.83,4.77-2.75-1,5.88-.94,6S101.92,228,102,228s-3,6.75-2.91,6.91,3.11-1.88,3.15-1.81"/><path class="cls-329" d="M98.2,222.41c0,.07,1.09-.74,1.14-.66s-2.16,7-2.08,7.15,8-4.87,8.14-4.7-3.79,7.41-3.67,7.62,4.21-2.59,4.27-2.47-1.54,5.94-1.46,6.08,1.17-.71,1.18-.68"/><path class="cls-413" d="M97.71,231.87s1.45-.89,1.47-.85"/><path class="cls-414" d="M172.27,162s1.51-.93,1.53-.88"/><path class="cls-415" d="M183.23,161.45s.57-.35.58-.33"/><path class="cls-416" d="M112.76,183.27s.24-.22.28-.16"/><path class="cls-417" d="M153.61,179.24s1.28-.79,1.3-.75"/><path class="cls-418" d="M149.43,184.58c.07.13,3.83-2.44,3.93-2.27s-6.53,8.69-6.41,8.9c0,0,4.15-2.46,4.18-2.41"/><path class="cls-419" d="M150.05,182.87c0,.06.84-.59.88-.51"/><path class="cls-420" d="M156.54,179.89s1.13-.7,1.15-.66"/><path class="cls-421" d="M157.73,182.22c0,.06,1.12-.77,1.17-.68s8.76.66,8.85.83,4.41-2.62,4.45-2.56"/><path class="cls-243" d="M162,179.29h0"/><path class="cls-421" d="M171.09,181.18c.09.16,5.34-3.37,5.47-3.16"/><path class="cls-422" d="M180.41,170.6s1.36-.84,1.38-.8"/><path class="cls-344" d="M179.34,167.76s.78-.49.79-.46"/><path class="cls-423" d="M171.19,180.14c0,.06.68-.5.73-.42"/><path class="cls-424" d="M174.45,166.07s1.14-.7,1.16-.66"/><path class="cls-425" d="M174.08,165.28s1.41-.86,1.43-.82"/><path class="cls-426" d="M175.91,164.84s.78-.48.79-.46"/><path class="cls-427" d="M185.25,179.74c0,.06.69-.5.73-.42"/><path class="cls-428" d="M188.18,175.94s.84-.52.86-.5"/><path class="cls-426" d="M169.41,165.9s.31-.27.35-.2"/><path class="cls-429" d="M176.34,162.86s.73-.45.75-.43"/><path class="cls-421" d="M180.15,167.57s.53-.32.53-.3c.12.2-3,7.46-2.9,7.62s3.7-2.19,3.73-2.15"/><path class="cls-430" d="M184,169.51s.84-.52.85-.49"/><path class="cls-428" d="M186.59,174.51s1.1-.68,1.12-.65c.13.24-4.76,7.75-4.66,7.92s3.26-1.92,3.28-1.89"/><path class="cls-431" d="M184.94,179.74s1.18-.72,1.2-.68"/><path class="cls-432" d="M181.88,175.05s1.47-.9,1.49-.86"/><path class="cls-433" d="M180.51,175.5s1.31-.81,1.33-.77"/><path class="cls-126" d="M119.55,212.33c0,.06.62-.45.66-.37s4,3.48,4.09,3.58,8.88-5.39,9-5.19,4.27,2.86,4.34,3,5.8-3.56,5.89-3.4"/><path class="cls-32" d="M119.49,211.56c0,.07,1-.7,1.06-.61s8.32.93,8.41,1.09,4.41-2.63,4.44-2.57,8.33.41,8.45.62c0,.06,1.83-1.12,1.86-1.07"/><path class="cls-32" d="M121.62,211.16s.62-.39.63-.37.63,5.44.69,5.55,4.38-2.61,4.41-2.55,8.2.49,8.32.7,2.65-1.63,2.69-1.55"/><path class="cls-434" d="M150.25,213.85s1.11-.68,1.13-.65"/><path class="cls-435" d="M133.85,217.43s1.21-.75,1.23-.71,4.91,3,5,3.07,3.81-2.25,3.83-2.21"/><path class="cls-436" d="M117.88,207.85c0,.05.6-.45.65-.38"/><path class="cls-437" d="M117.77,208.57s1.35-.83,1.37-.79c.16.27-5.68,8.95-5.56,9.15,0,0,3.48-2.05,3.5-2"/><path class="cls-438" d="M115.38,208.2c.06.09,2.2-1.43,2.27-1.31"/><path class="cls-439" d="M127.32,217.27s1-.6,1-.57"/><path class="cls-440" d="M119.42,207.59s1.46-.9,1.48-.86"/><path class="cls-162" d="M119.49,215.62s.68-.42.69-.4"/><path class="cls-441" d="M150,210s1.06-.66,1.08-.63"/><path class="cls-442" d="M130.74,205.92s1.49-.92,1.51-.87"/><path class="cls-443" d="M124,205.29s1.46-.91,1.49-.86,4.88,3,4.94,3.09,4-2.39,4-2.34"/><path class="cls-408" d="M137.72,205.31s1.45-.89,1.47-.85"/><path class="cls-444" d="M136.57,204.44s1.82-1.12,1.85-1.07"/><path class="cls-445" d="M147.36,202.63s.54-.33.55-.32"/><path class="cls-446" d="M161.1,183.28c0,.06.59-.44.63-.37.16.27-6.74,9.8-6.62,10s4.23-2.72,4.35-2.51"/><path class="cls-446" d="M136.75,196.91c.07.11,2.91-1.86,3-1.72.18.3-7,9.67-6.86,9.9s12.41-7.56,12.59-7.26"/><path class="cls-447" d="M140.32,204.72s1.47-.9,1.49-.86"/><path class="cls-448" d="M131.56,222s.06-.11.09-.06c.24.41-10.81,11.78-10.63,12.09.28.48,21.73-13.32,22.06-12.74"/><path class="cls-329" d="M187.39,204.63c.08.14,4.16-2.64,4.27-2.46"/><path class="cls-448" d="M160.89,211.72c.05.08,1.72-1.14,1.79-1s.48,4.88.53,5,1.65-1,1.67-1"/><path class="cls-448" d="M150.28,212.68s.41-.33.45-.26.51,5.51.57,5.61,5.55-3.33,5.6-3.23"/><path class="cls-238" d="M169.06,209.73s1-.61,1-.58-.57,6.12-.5,6.24,12-7.3,12.15-7"/><path class="cls-448" d="M179.47,211.44c0,.06.7-.51.74-.43"/><path class="cls-448" d="M192.72,205.68c.05.07,1.39-.93,1.44-.83"/><path class="cls-411" d="M160.83,219.32c0,.05.18-.18.21-.12"/><path class="cls-329" d="M122.75,228s1.62-1,1.64-.95"/><path class="cls-448" d="M195.78,202.63s.14-.16.17-.1"/><path class="cls-248" d="M138.24,220.33s1.68-1,1.71-1"/><path class="cls-449" d="M138,219.22s1.69-1,1.72-1"/><path class="cls-450" d="M119.17,229.55s.14-.17.17-.11"/><path class="cls-238" d="M193.32,208.7c0,.05.19-.19.23-.13"/><path class="cls-345" d="M162.08,221.57s.76-.47.77-.45"/><path class="cls-345" d="M156.3,217.17s.9-.55.91-.53"/><path class="cls-448" d="M123,230.76s.68-.43.69-.4"/><path class="cls-448" d="M186.52,204.82c0,.07,1.52-1,1.58-.91"/><path class="cls-451" d="M164.13,186.13s1.45-.89,1.47-.85"/><path class="cls-452" d="M162.42,186.07c0,.07,1.3-.88,1.35-.78s.87,5.3.93,5.41,2.81-1.64,2.82-1.63"/><path class="cls-453" d="M169.18,185.9s.63-.47.68-.4"/><path class="cls-454" d="M169.15,188.27s1.22-.75,1.24-.72"/><path class="cls-455" d="M161.06,190.12s.86-.53.88-.5"/><path class="cls-451" d="M172.22,188.57s1.12-.69,1.14-.66"/><path class="cls-456" d="M173.55,180.71s1.43-.88,1.45-.84"/><path class="cls-457" d="M118.08,191.23c0,.08,1.88-1.24,1.94-1.12"/><path class="cls-333" d="M130.78,188.76s1.31-.81,1.33-.77"/><path class="cls-458" d="M126.71,188.87s1.62-1,1.65-1"/><path class="cls-459" d="M119.84,192.16s.55-.34.56-.33"/><path class="cls-380" d="M138.19,189.35s1.76-1.09,1.79-1"/><path class="cls-460" d="M118.91,192.48c0,.1,2.44-1.58,2.51-1.45"/><path class="cls-203" d="M88.34,201.74c.06.09,2.38-1.55,2.46-1.42s-4.1,7.38-4,7.55c0,0,3.25-1.92,3.27-1.89"/><path class="cls-461" d="M90.51,201.34l.14-.09"/><path class="cls-421" d="M105.64,200.44s.08-.13.12-.07"/><path class="cls-462" d="M113.36,202.25c0,.07,8.44-4.95,8.48-4.89"/><path class="cls-462" d="M129.92,192.45c0,.08,1.31-.89,1.37-.79"/><path class="cls-462" d="M121.53,194c0,.06,1-.7,1.06-.62s-1.91,6.39-1.84,6.52,4.71-2.81,4.75-2.74"/><path class="cls-418" d="M109.43,199.89s1.51-.93,1.54-.88"/><path class="cls-463" d="M91.06,206.74s.71-.43.72-.41"/><path class="cls-464" d="M95.27,216.07s.85-.52.87-.5"/><path class="cls-465" d="M96.52,209.09s.41-.33.45-.26-1.61,6.7-1.53,6.83,3.89-2.31,3.92-2.26"/><path class="cls-466" d="M94.75,207.22s1.41-.86,1.43-.82"/><path class="cls-467" d="M92.12,204.74c0,.07,1.26-.85,1.31-.75"/><path class="cls-468" d="M95.25,206.64s.73-.45.74-.43,5.61,2.55,5.68,2.67,3.17-1.87,3.18-1.84"/><path class="cls-469" d="M120.56,221.52s.89-.55.9-.52"/><path class="cls-470" d="M120.13,226.34s.71-.44.73-.42"/><path class="cls-471" d="M133,217.86s.91-.57.93-.54,4.92,3,5,3.07,3.75-2.23,3.78-2.19"/><path class="cls-472" d="M124.42,221.17c0,.05.22-.21.25-.15"/><path class="cls-473" d="M123.71,219.3s1.37-.85,1.4-.81"/><path class="cls-62" d="M98.36,210.1c0,.07,1.21-.82,1.26-.73s-2.7,7.31-2.61,7.46,9.67-5.88,9.79-5.66"/><path class="cls-474" d="M109.24,207.6s.48-.29.49-.28c.14.24-4.42,8.25-4.31,8.43s3.62-2.14,3.64-2.1"/><path class="cls-464" d="M109.4,207.24s.86-.53.88-.51c.13.24-4.16,8.11-4.06,8.29s3.86-2.29,3.89-2.25"/><path class="cls-475" d="M112.76,214.69s1.61-1,1.64-.95"/><path class="cls-239" d="M106.82,220.91s1.14-.71,1.16-.67"/><path class="cls-239" d="M106.86,225.74s1-.61,1-.58"/><path class="cls-476" d="M106.83,223.48s1.13-.69,1.15-.66"/><path class="cls-477" d="M154.2,183.91s1.24-.76,1.26-.73"/><path class="cls-477" d="M145.59,191.88c0,.07.89-.62.93-.54"/><path class="cls-478" d="M153.66,187s1.34-.83,1.36-.79"/><path class="cls-479" d="M150.48,187.73s.15-.17.18-.11"/><path class="cls-418" d="M158.43,183.65c0,.07,1.2-.81,1.25-.72"/><path class="cls-480" d="M168.06,182.36c0,.07,1.14-.78,1.19-.69"/><path class="cls-481" d="M168.4,181.14s1.45-.89,1.47-.85"/><path class="cls-482" d="M140.6,191.79c0,.05.54-.41.58-.34"/><path class="cls-477" d="M137.31,193.91c0,.05.15-.17.19-.11"/><path class="cls-483" d="M116,209.25s1.48-.92,1.51-.87"/><path class="cls-438" d="M117.43,210.21s.52-.33.53-.31"/><path class="cls-484" d="M116.69,206.31c0,.05.48-.37.52-.3"/><path class="cls-485" d="M126.81,204.3s1-.64,1-.61"/><path class="cls-486" d="M115,203.63s1.19-.73,1.21-.7c.14.24,10.69-.23,10.8,0s8.84-5.54,9-5.21"/><path class="cls-486" d="M125.93,194.16s1.78-1.1,1.81-1"/><path class="cls-487" d="M136.27,196.14c0,.05.21-.21.24-.14"/><path class="cls-488" d="M137.4,199.42s1.42-.88,1.45-.83"/><path class="cls-489" d="M156.1,187.92s.59-.37.6-.35"/><path class="cls-490" d="M152.37,190.86s.51-.31.52-.3"/><path class="cls-491" d="M148.25,191.12s.53-.33.54-.31"/><path class="cls-492" d="M127.79,222.93s1.56-1,1.58-.91"/><path class="cls-493" d="M121.08,227.68c0,.07,1.08-.74,1.13-.66"/><path class="cls-494" d="M130.64,220s1.43-.88,1.45-.84"/><path class="cls-495" d="M137,220.33s1.07-.65,1.08-.62"/><path class="cls-239" d="M134.18,219.68s1.67-1,1.7-1"/><path class="cls-496" d="M127.59,223.86s.08-.12.12-.07"/><path class="cls-497" d="M129.56,223.4s1-.62,1-.59"/><path class="cls-498" d="M132.6,226.29s.84-.51.86-.49"/><path class="cls-177" d="M139.49,218.49s1-.59,1-.56"/><path class="cls-499" d="M120.85,224.57s1-.62,1-.59"/><path class="cls-500" d="M167.63,181.18s.69-.43.71-.41"/><path class="cls-451" d="M165.66,186.19c0,.05.28-.24.31-.17"/><path class="cls-501" d="M130.38,189.58s1.59-1,1.62-.93"/><path class="cls-502" d="M125.66,192.31c0,.05.47-.36.51-.29"/><path class="cls-334" d="M133.19,192.37c0,.07,1.24-.84,1.29-.75"/><path class="cls-503" d="M94.66,199.41s1.52-.94,1.54-.89"/><path class="cls-504" d="M91.3,203.39s.78-.48.8-.46"/><path class="cls-505" d="M101.14,199.48s1.63-1,1.66-1"/><path class="cls-506" d="M99.54,202.37s.32-.28.35-.21"/><path class="cls-507" d="M106.88,202.38c0,.05.35-.29.39-.22"/><path class="cls-508" d="M90.89,204.13c.06.09,2.43-1.58,2.5-1.45"/><path class="cls-509" d="M93,207.57c0,.08,1.48-1,1.54-.89"/><path class="cls-386" d="M101.71,203.47s1.67-1,1.7-1,0,5.77.11,5.89,4.19-2.5,4.22-2.44"/><path class="cls-510" d="M99.28,201.78s1.29-.79,1.31-.75c.11.2-2.53,7.21-2.45,7.36s4.21-2.5,4.24-2.45"/><path class="cls-511" d="M99.27,205.56s.81-.5.82-.47"/><path class="cls-198" d="M90.16,202.83s.4-.32.44-.25"/><path class="cls-512" d="M119.07,221.65s.42-.33.46-.27"/><path class="cls-434" d="M133.21,218.65s1.25-.77,1.27-.73"/><path class="cls-513" d="M126.42,222.53c0,.05.33-.28.37-.21"/><path class="cls-514" d="M125.31,219.8s1.21-.74,1.23-.71"/><path class="cls-515" d="M124.48,222.81s0-.06,0,0"/><path class="cls-375" d="M103.07,202.84s1.8-1.11,1.83-1.06.37,5.59.44,5.7,4.45-2.66,4.49-2.6.83,4.85.9,5,1.84-1.13,1.87-1.08"/><path class="cls-446" d="M110,201.74s1.17-.72,1.19-.68c.11.2-3,7.47-2.92,7.62s5.57-3.34,5.62-3.24-1.07,5.92-1,6.07,3.38-2.07,3.43-2"/><path class="cls-507" d="M162.52,182.24s1-.61,1-.59"/><path class="cls-516" d="M114.3,204.25s1.27-.79,1.29-.75"/><path class="cls-450" d="M122.17,225.46s0-.06,0,0"/><path class="cls-131" d="M91.14,202.87c0,.08,1.77-1.17,1.83-1.06"/><path class="cls-517" d="M99.83,200.13s.86-.53.87-.5"/><path class="cls-376" d="M104.28,201.78s1.45-.9,1.48-.85"/><path class="cls-518" d="M101.21,201.23s.77-.48.79-.46"/><path class="cls-519" d="M108.27,202.29s1.71-1,1.74-1"/><path class="cls-520" d="M100.48,201.31s.94-.58,1-.56"/><path class="cls-521" d="M124.43,222.44s1.28-.79,1.3-.76"/><path class="cls-522" d="M110.61,204.66s1.37-.84,1.39-.8"/><path class="cls-523" d="M112.44,210.6s.55-.33.55-.32"/><path class="cls-524" d="M45,124.17s0-.07,0,0-1.77,6.78-1.69,6.92c.21.36,17.1-10.46,17.35-10s-10.46,11-10.24,11.41,11-7,11.32-6.54-15.3,13.48-15.05,13.93S64.58,129,64.82,129.42s-14.67,13.19-14.4,13.65,11.11-7.16,11.43-6.6S42.92,152,43.29,152.63c.23.41,24.69-14.83,24.94-14.4.33.58-25,19.08-24.63,19.69s26.69-16,27-15.57c.41.71-27.5,20.87-27.09,21.57.25.45,20.36-12.55,20.71-12s-14.86,14.26-14.61,14.69c.35.61,17.68-10.85,18-10.36S48,172.74,48.39,173.38s18-11.31,18.37-10.6-20.63,16.58-20.37,17c.45.78,29-17.59,29.38-17,.52.9-33.4,23.6-32.87,24.52.37.64,26.78-16.34,27.16-15.69s-25.45,19.08-25,19.8,26.15-16,26.56-15.33-29.8,22.16-29.28,23.05c.38.66,32.5-20,33-19.06S44.43,202.45,45,203.42c.4.69,35-21.28,35.48-20.48.56,1-34.24,24.23-33.69,25.17.42.74,37-22.46,37.46-21.63.58,1-41.49,28.25-41,29.16s40.1-24.4,40.64-23.46S44.78,219,45.37,220.05s36.44-22.13,36.91-21.31-32.31,23.09-31.79,24c.61,1.06,35.62-21.87,36.18-20.89s-32.82,23-32.24,24,31.24-19.58,31.91-18.43c.45.78-32.9,24.11-32.39,25S92.57,209,93.05,209.8s-43,28.72-42.24,30c.49.85,45-27.47,45.64-26.35S54.6,241.82,55.26,243c.56,1,41.37-25.17,41.93-24.2.73,1.26-42.57,28.75-41.83,30,.58,1,47.73-29.07,48.38-27.94s-45.06,30.45-44.51,31.4c.69,1.19,45.55-27.6,46.11-26.63s-40.11,27.67-39.51,28.7,41.62-25.47,42.25-24.39-47.46,32.2-46.88,33.2c.78,1.35,53.28-32.27,53.94-31.14.75,1.31-43.92,29.54-43.15,30.87s43.79-26.9,44.49-25.68-50.85,33.08-50,34.56,53-32.44,53.77-31c.66,1.15-50.67,33.48-49.86,34.88.59,1,51.34-31.44,52.12-30.09s-48.76,32.2-48.1,33.35c.88,1.51,54.43-33.36,55.26-31.91s-55.1,36.17-54.38,37.41c.84,1.45,59-35.54,59.62-34.42.85,1.47-55.73,35.24-54.74,36.95.86,1.5,54.7-33.35,55.47-32s-51,33-50.19,34.38,58.47-35.35,59.16-34.15c.83,1.45-58.58,38.07-57.75,39.51.7,1.21,54.13-33.32,55-31.77S86.51,298.53,87.33,300s64.86-39.77,65.87-38-55.84,36.32-55,37.69c.95,1.64,57.8-35.17,58.58-33.82s-59.92,38.21-59,39.71,65.81-40.37,66.84-38.59S101.14,307,102,308.4s61.22-37.4,62.11-35.86-57.38,37-56.36,38.75,64.5-39,65.28-37.69-67.51,42.76-66.45,44.59c.95,1.64,74.61-45.52,75.66-43.69s-68.45,42.92-67.29,44.92c.92,1.61,65.2-40,66.22-38.23S119,320.81,119.78,322.26c1,1.75,67.65-41.57,68.74-39.68.9,1.55-69.93,43.19-68.78,45.19,1,1.64,78.91-48.45,80.16-46.28s-69,43.14-67.82,45.16c.95,1.65,68.12-42.19,69.36-40,1,1.73-72.12,44.47-71.08,46.26,1.29,2.25,84-51.39,85.23-49.21s-79.08,48.55-78,50.49c.83,1.45,76.31-46.25,77.26-44.6S150.05,330.19,151,331.81c.78,1.35,53.61-32.55,54.3-31.35.59,1-48.2,31.33-47.39,32.74.58,1,35.87-21.86,36.37-21"/><path class="cls-525" d="M55.86,121c.6,1,46.65-28.76,47.44-27.39.57,1-35.69,25.75-35.24,26.54,1,1.81,79.5-48.73,80.72-46.61,1.1,1.91-72.46,44.85-71.35,46.77,1.23,2.12,77.12-46.58,78-45,.77,1.33-61.82,39.36-61,40.7,1,1.73,65.74-40.41,66.81-38.57.66,1.16-37.87,26.61-37.26,27.66.71,1.23,41.07-25.39,41.8-24.14.24.43-16.5,14.8-16.17,15.37.23.4,24.79-14.91,25.05-14.46.37.64-20,16.59-19.75,17.06s22.6-13.81,22.92-13.24S160.62,101,161,101.55s25.82-15.66,26.14-15.09-16.19,14.1-15.93,14.54,20.1-12.33,20.42-11.78S175,103.59,175.28,104.08,192.4,93.46,192.71,94s-17.44,14.71-17.18,15.16,26.94-16.29,27.26-15.74-15.67,13.84-15.37,14.36S209.31,94.34,209.66,95s-19,16-18.66,16.57,21.14-12.8,21.39-12.35S194,114.82,194.3,115.4s24.17-14.77,24.52-14.16-17.52,15.08-17.18,15.67,24-14.65,24.35-14.06-13.68,13.61-13.44,14c.38.66,26.83-16.45,27.25-15.74s-25.52,19.72-25.08,20.49c.35.6,27.94-16.88,28.27-16.32s-19.72,16.62-19.39,17.2,28-17.06,28.38-16.39c.25.44-14.65,13.25-14.4,13.67.42.74,23.8-14.73,24.22-14,.3.52-20.17,16.39-19.9,16.86s22.34-13.68,22.68-13.1c.23.41-14.55,13.75-14.26,14.24s15.16-9.31,15.4-8.89c.4.69-21.4,17.5-21,18.21.21.38,22-13.4,22.31-12.88s-17.4,15-17.1,15.49,18.28-11.28,18.59-10.74-20.43,16.65-20.12,17.19,20.14-12.36,20.46-11.82c.42.73-24.2,19.33-23.79,20,.25.44,23.65-14.31,23.93-13.82.43.74-27,20-26.52,20.85.22.38,23.13-13.85,23.35-13.47S246.6,159.48,247,160.1s17-10.42,17.25-9.95-17,14.38-16.71,14.89,19.8-12,20-11.57S245.6,170.54,246,171.25c.22.39,20.07-12.25,20.36-11.76s-23.21,18.41-22.9,19S263,166.5,263.29,167s-16.44,15-16.12,15.49c.22.38,17.25-10.52,17.49-10.1S247.92,187,248.23,187.52s15.54-9.67,15.84-9.15-15.75,14.26-15.48,14.72,15.21-9.48,15.52-9-19.31,15.79-19,16.4,19.26-11.67,19.5-11.26c.37.65-19.33,16.17-19,16.78.23.4,20.25-12.38,20.55-11.87s-21.34,17.36-21,18,22.87-13.81,23.13-13.35c.46.78-25.84,19.21-25.39,20,.28.48,17.91-11.14,18.26-10.54S236.38,228,236.83,228.76c.31.54,28.56-17.2,28.87-16.67.45.79-25.77,20.1-25.39,20.76s22.11-13.43,22.4-12.93c.57,1-31.3,22.35-30.89,23.07s31-18.81,31.39-18.12c.61,1.06-35.9,25-35.25,26.16.44.77,30-18.24,30.42-17.56.56,1-31.27,23-30.76,23.88.39.69,22.93-14.07,23.29-13.45.65,1.12-36.55,25.7-35.94,26.75.5.87,33.66-20.36,34.06-19.66.66,1.15-41.95,28.95-41.3,30.08.48.84,39.44-24.07,40-23.09.87,1.49-51.22,33.35-50.36,34.85.56,1,43.77-26.6,44.34-25.6.78,1.35-64,40.64-63.18,42s54.38-33.06,55.1-31.81"/><path class="cls-525" d="M33.42,104.76s1.39-.86,1.41-.82c.15.26-5.37,8.78-5.26,9s13.72-8.37,13.91-8-6.83,9.07-6.67,9.35c.38.64,15.44-9.71,15.78-9.11S32.9,121,33.22,121.55c.43.75,32.64-19.83,33.07-19.09.51.89-29.76,21.37-29.26,22.23.71,1.23,38.07-23.82,38.86-22.44.59,1-46.7,30.47-45.86,31.92s67.72-41,68.53-39.56-69,43.2-68.08,44.77c.27.48,24.63-14.8,24.88-14.36.38.66-25.24,19.63-24.86,20.28.22.39,17.11-10.55,17.4-10S36.56,147.59,36.76,148s13-8,13.2-7.62-14.53,13.76-14.24,14.26,11.75-7.5,12.06-7-14.12,13-13.93,13.33c.31.55,21.35-12.91,21.6-12.47.41.7-25.38,19.24-25,20,.25.43,17.49-10.67,17.74-10.24S32.47,172,32.74,172.47s15.17-9.35,15.43-8.9-18.34,16-18,16.53c.22.39,19.48-11.94,19.78-11.42s-17.29,15-17,15.55c.22.38,19.89-12.06,20.14-11.63.34.59-19.4,16.17-19.07,16.74.22.39,20.52-12.44,20.77-12,.38.65-25.76,19.6-25.43,20.19s22.73-13.76,23-13.28-22.53,17.8-22.17,18.42c.26.45,18-11,18.28-10.55S33.92,205.58,34.18,206s16.07-9.9,16.34-9.43-13.14,12.34-12.88,12.8,9.88-6.39,10.17-5.87c.19.32-11.4,12.38-11.19,12.75s15.45-9.39,15.65-9S32.65,223.34,33,224c.2.34,20.74-12.57,21-12.12s-17.31,15-17,15.54c.21.37,15.86-9.66,16.08-9.29.32.56-16.76,14.82-16.44,15.38.22.38,21.05-12.72,21.3-12.3s-18.11,15.59-17.86,16,17.62-10.65,17.82-10.29-11.87,12.26-11.66,12.62,12.5-7.73,12.72-7.34-18,16-17.8,16.41,22.88-13.73,23.11-13.34-13,12.87-12.76,13.33,12.16-7.56,12.39-7.16S45.26,257.11,45.6,257.71s20.19-12.26,20.45-11.81-17.29,15.37-17,15.91c.18.32,17.23-10.52,17.48-10.1S52.46,264.92,52.68,265.3s19.13-11.64,19.39-11.2-19.23,16.48-19,17,22.22-13.28,22.41-12.94c.31.53-18.29,15.08-17.93,15.7.25.44,16.82-10.23,17-9.84s-12.39,12-12.16,12.44,19.28-11.59,19.47-11.25c.3.52-18.79,16.33-18.49,16.85.2.34,13.59-8.43,13.84-8s-13.9,13.09-13.66,13.51,22.88-13.85,23.15-13.37S74,287,74.21,287.33s14-8.53,14.16-8.17-15.05,13.73-14.8,14.16,20.4-12.4,20.67-11.93-16.8,14.5-16.56,14.91,14-8.6,14.23-8.21S83,298.94,83.24,299.31s15.14-9.19,15.33-8.85-17.08,15.37-16.77,15.9,23.35-14.08,23.6-13.63-15.92,14.55-15.61,15.08,11.87-7.41,12.12-7S94,310.71,94.13,311c.24.41,12.52-7.81,12.77-7.37s-13.83,12.86-13.57,13.32,22.2-13.48,22.49-13-11.62,12.15-11.38,12.57,9.73-6.27,10-5.78-13.56,12.53-13.33,12.92,24.43-14.76,24.72-14.27c.37.65-20.25,16.44-19.93,17,.2.36,23.08-13.88,23.31-13.47s-14,12.91-13.77,13.32,15.16-9.27,15.38-8.89S115.22,331,115.51,331.55s18.89-11.5,19.15-11.05S123.57,332.58,123.79,333s19.89-12.17,20.19-11.65-20.59,16.43-20.24,17.05,19.7-12,20-11.52c.14.23-7.65,10-7.52,10.26,1.35,2.34,95.67-58.38,97-56,1.19,2.08-94.25,57.21-92.95,59.46,1.16,2,85.77-52.05,86.87-50.15,1.32,2.29-83.28,50.39-82,52.65C146.29,345,217,299.12,218.05,301c.94,1.64-71.94,45-71.09,46.47.76,1.32,50-30.82,50.87-29.37"/><path class="cls-526" d="M111.79,91.44c.07.11,3.31-2.12,3.4-2S114,96,114.05,96.08c.5.87,37.42-23,38-22,.43.74-27.8,20.42-27.31,21.26.63,1.09,30.1-18.71,30.68-17.71s-31.44,22.27-31,23.11,37.61-22.85,38.1-22-31.42,22.27-30.9,23.18,31.43-19.72,32.11-18.54c.46.8-36.32,24.88-35.66,26,.5.86,45.78-27.64,46.3-26.73s-43,28.94-42.38,29.94,48.45-29.31,49-28.31-45.91,30.92-45.26,32.06c.54.92,42.93-26.42,43.64-25.19.55,1-33.92,24.66-33.41,25.54.4.7,21.17-13,21.5-12.41s-19.08,16.22-18.72,16.84c.11.18,2.11-1.55,2.26-1.3"/><path class="cls-527" d="M120.9,87.33c.34.6,24.58-15.24,25-14.45S122.85,91.4,123.17,92s30.09-18.47,30.57-17.65c.32.56-20.19,16.31-19.82,17,.5.86,22.83-14.25,23.29-13.45S133.28,96,133.65,96.64s30.28-18.39,30.67-17.7-23.85,18.17-23.45,18.88,24-15.1,24.5-14.15c.38.65-28.56,20.71-28,21.63.4.69,37.95-22.89,38.37-22.15s-34.91,24.52-34.44,25.35c.32.56,27.81-16.73,28.1-16.22S144.58,111.47,145,112.12c0,.06,1.7-1.09,1.74-1"/></g></g></svg>