<svg xmlns="http://www.w3.org/2000/svg" viewBox="0 0 256 256"><defs><style>.cls-1{fill:#2394cd;}.cls-2{fill:#ffd15c;}.cls-3{fill:#f8b64c;}.cls-4{fill:#f2f2f2;}.cls-5{fill:#40596b;}.cls-6{fill:#ff7058;}.cls-7{fill:#f1543f;}.cls-8{fill:#84dbff;}.cls-9{fill:#cdd6e0;}</style></defs><g id="Слой_2" data-name="Слой 2"><g id="Слой_1-2" data-name="Слой 1"><rect class="cls-1" width="256" height="256" rx="25.12"/><rect class="cls-2" x="154.71" y="53.69" width="46.95" height="148.63" rx="6.3"/><rect class="cls-3" x="161.19" y="59.76" width="34" height="53.43"/><rect class="cls-4" x="164.43" y="67.04" width="27.52" height="8.1"/><rect class="cls-4" x="164.43" y="83.23" width="27.52" height="8.1"/><rect class="cls-4" x="164.43" y="97.81" width="19.43" height="8.1"/><circle class="cls-5" cx="178.19" cy="174.3" r="12.03"/><path class="cls-4" d="M178.19,163.78a10.53,10.53,0,1,1-10.52,10.52,10.52,10.52,0,0,1,10.52-10.52m0-3a13.53,13.53,0,1,0,13.53,13.53,13.55,13.55,0,0,0-13.53-13.53Z"/><rect class="cls-6" x="104.52" y="53.69" width="46.95" height="148.63" rx="6.3"/><rect class="cls-7" x="111" y="59.76" width="34" height="53.43"/><rect class="cls-4" x="114.24" y="67.04" width="27.52" height="8.1"/><rect class="cls-4" x="114.24" y="83.23" width="27.52" height="8.1"/><rect class="cls-4" x="114.24" y="97.81" width="19.43" height="8.1"/><circle class="cls-5" cx="128" cy="174.3" r="12.03"/><path class="cls-4" d="M128,163.78a10.53,10.53,0,1,1-10.52,10.52A10.52,10.52,0,0,1,128,163.78m0-3a13.53,13.53,0,1,0,13.53,13.53A13.55,13.55,0,0,0,128,160.77Z"/><rect class="cls-8" x="54.33" y="53.69" width="46.95" height="148.63" rx="6.3"/><rect class="cls-4" x="60.81" y="59.76" width="34" height="53.43"/><rect class="cls-9" x="64.05" y="67.04" width="27.52" height="8.1"/><rect class="cls-9" x="64.05" y="83.23" width="27.52" height="8.1"/><rect class="cls-9" x="64.05" y="97.81" width="19.43" height="8.1"/><path class="cls-5" d="M77.81,186.33a12,12,0,1,1,12-12A12,12,0,0,1,77.81,186.33Z"/><path class="cls-4" d="M77.81,163.78A10.53,10.53,0,1,1,67.29,174.3a10.52,10.52,0,0,1,10.52-10.52m0-3A13.53,13.53,0,1,0,91.34,174.3a13.55,13.55,0,0,0-13.53-13.53Z"/></g></g></svg>