<?xml version="1.0" encoding="utf-8"?>
<!-- Generator: Adobe Illustrator 25.1.0, SVG Export Plug-In . SVG Version: 6.00 Build 0)  -->
<svg version="1.1" id="Слой_1" xmlns="http://www.w3.org/2000/svg" xmlns:xlink="http://www.w3.org/1999/xlink" x="0px" y="0px"
	 viewBox="0 0 48 48" style="enable-background:new 0 0 48 48;" xml:space="preserve">
<style type="text/css">
	.st0{fill:#909090;}
</style>
<path class="st0" d="M39.8,43.3L26.3,30c-1,0.8-2.1,1.4-3.4,1.8s-2.7,0.7-4.3,0.7c-3.8,0-7.1-1.3-9.8-4s-4-5.9-4-9.6s1.3-7,4-9.6
	s5.9-4,9.7-4c3.8,0,7,1.3,9.6,4c2.7,2.7,4,5.9,4,9.6c0,1.5-0.2,2.9-0.6,4.2c-0.4,1.3-1,2.5-1.9,3.6L43.2,40L39.8,43.3z M18.5,27.7
	c2.5,0,4.6-0.9,6.3-2.6c1.7-1.7,2.6-3.9,2.6-6.3c0-2.5-0.9-4.6-2.6-6.4c-1.7-1.7-3.8-2.6-6.3-2.6s-4.6,0.9-6.4,2.6
	c-1.8,1.7-2.6,3.9-2.6,6.4c0,2.5,0.9,4.6,2.6,6.3C13.9,26.8,16.1,27.7,18.5,27.7z"/>
</svg>
